<svg xmlns="http://www.w3.org/2000/svg" xml:space="preserve" width="200" height="300" viewBox="0 0 52.917 79.375"><g style="display:inline;stroke-width:1.01586"><path d="m-73.635 70.178 1.18-.177s-1.431-6.076-7.158-9.735c0 0-2.348-1.1-2.64-.763 6.48 3.136 8.618 10.675 8.618 10.675" style="fill:#43673f;stroke:#000;stroke-width:.13439;stroke-linecap:round;stroke-linejoin:round;stroke-miterlimit:2;stroke-opacity:1" transform="matrix(.8344 .2575 -.19522 1.1011 94.25 12.413)"/><path d="M-79.613 60.266c-13.844-7.092-13.87 15.111-13.87 15.111.71-8.335 5.382-18.842 13.87-15.11" style="fill:#43673f;stroke:#000;stroke-width:.13439;stroke-linecap:round;stroke-linejoin:round;stroke-miterlimit:2;stroke-opacity:1" transform="matrix(.8344 .2575 -.19522 1.1011 94.25 12.413)"/></g><g style="display:inline;stroke-width:1.01586"><path d="m-73.635 70.178 1.18-.177s-1.431-6.076-7.158-9.735c0 0-2.348-1.1-2.64-.763 6.48 3.136 8.618 10.675 8.618 10.675" style="fill:#43673f;stroke:#000;stroke-width:.13439;stroke-linecap:round;stroke-linejoin:round;stroke-miterlimit:2;stroke-opacity:1" transform="matrix(-.8344 .2575 .19522 1.1011 -39.77 3.492)"/><path d="M-79.613 60.266c-13.844-7.092-13.87 15.111-13.87 15.111.71-8.335 5.382-18.842 13.87-15.11" style="fill:#43673f;stroke:#000;stroke-width:.13439;stroke-linecap:round;stroke-linejoin:round;stroke-miterlimit:2;stroke-opacity:1" transform="matrix(-.8344 .2575 .19522 1.1011 -39.77 3.492)"/></g><g style="display:inline;stroke-width:1.01586"><path d="m-73.635 70.178 1.18-.177s-1.431-6.076-7.158-9.735c0 0-2.348-1.1-2.64-.763 6.48 3.136 8.618 10.675 8.618 10.675" style="fill:#43673f;stroke:#000;stroke-width:.13439;stroke-linecap:round;stroke-linejoin:round;stroke-miterlimit:2;stroke-opacity:1" transform="matrix(.79043 .37116 -.3466 1.0632 100.055 14.17)"/><path d="M-79.613 60.266c-13.844-7.092-13.87 15.111-13.87 15.111.71-8.335 5.382-18.842 13.87-15.11" style="fill:#43673f;stroke:#000;stroke-width:.13439;stroke-linecap:round;stroke-linejoin:round;stroke-miterlimit:2;stroke-opacity:1" transform="matrix(.79043 .37116 -.3466 1.0632 100.055 14.17)"/></g><path d="M36.153 70.164c-.13.242.836 1.163 1.612 1.269 3.125-5.535 14.667-20.061 14.667-20.061s-12.183 9.6-16.279 18.792" style="display:inline;fill:#43673f;stroke:#000;stroke-width:.132292;stroke-linecap:round;stroke-linejoin:round;stroke-miterlimit:2;stroke-opacity:1"/><path d="M37.635 76.678s3.23-27.891 15.107-39.414c-13.58 6.452-17.4 38.877-17.4 38.877zM20.326 67.156s-2.729-27.89-12.763-39.414c11.473 6.452 14.7 38.878 14.7 38.878zM30.275 65.577s2.729-27.89 12.763-39.413c-11.473 6.452-14.7 38.877-14.7 38.877z" style="display:inline;fill:#43673f;stroke:#000;stroke-width:.132292;stroke-linecap:round;stroke-linejoin:round;stroke-miterlimit:2;stroke-opacity:1"/><path d="M26.72 68.947s13.49-18.3 25.262-22.165C41.317 46.516 25.595 67.77 25.595 67.77zM18.87 73.458S9.891 54.872.032 49.456C9.594 51 20.072 72.595 20.072 72.595ZM26.549 63.393S13.059 45.092 1.287 41.228c10.665-.267 26.387 20.987 26.387 20.987z" style="display:inline;fill:#43673f;stroke:#000;stroke-width:.132292;stroke-linecap:round;stroke-linejoin:round;stroke-miterlimit:2;stroke-opacity:1"/><path d="M21.607 64.68s2.004-27.92-4.782-40.652c8.804 7.917 6.521 40.382 6.521 40.382zM29.939 66.256s-2.004-27.919 4.782-40.652c-8.805 7.918-6.522 40.383-6.522 40.383z" style="display:inline;fill:#43673f;stroke:#000;stroke-width:.132292;stroke-linecap:round;stroke-linejoin:round;stroke-miterlimit:2;stroke-opacity:1"/><path d="M21.19 65.639s.787-27.98-6.546-40.406c9.14 7.527 8.271 40.06 8.271 40.06zM33.735 68.144s6.245-27.285 16.457-37.478C39.457 35.664 32.15 67.378 32.15 67.378Z" style="display:inline;fill:#43673f;stroke:#000;stroke-width:.132292;stroke-linecap:round;stroke-linejoin:round;stroke-miterlimit:2;stroke-opacity:1"/><path d="M33.445 65.536c-.9-7.171 7.497-35.873 8.128-36.117.102.647-5.818 24.429-6.547 36.424zM23.292 71.982C21.408 65.004 2.765 41.62 2.089 41.635c.15.637 14.637 20.404 19.856 31.23ZM25.24 62.561c-1.85-7.009 4.76-36.632 5.47-36.957.192.63-4.074 25.039-3.588 37.055z" style="display:inline;fill:#43673f;stroke:#000;stroke-width:.132292;stroke-linecap:round;stroke-linejoin:round;stroke-miterlimit:2;stroke-opacity:1"/><path d="M23.26 61.304c-2.712-6.723.151-36.94.815-37.35.268.6-.918 25.351 1.064 37.213z" style="display:inline;fill:#43673f;stroke:#000;stroke-width:.132292;stroke-linecap:round;stroke-linejoin:round;stroke-miterlimit:2;stroke-opacity:1"/><path d="M24.097 61.033c3.34-6.433 3.372-36.786 2.75-37.258-.324.573-1.504 25.324-4.607 36.942zM21.375 65.38c1.274-7.136-7.726-36.123-8.46-36.389-.14.643 6.098 24.624 6.592 36.64z" style="display:inline;fill:#43673f;stroke:#000;stroke-width:.132292;stroke-linecap:round;stroke-linejoin:round;stroke-miterlimit:2;stroke-opacity:1"/><path d="M20.156 66.474C15.582 60.85 9.4 31.134 9.914 30.545c.434.495 6.604 24.494 11.997 35.243zM29.844 65.128c4.574-5.624 10.756-35.34 10.242-35.929-.434.495-6.603 24.494-11.997 35.243ZM17.081 73.278c.9-7.171-7.497-35.873-8.128-36.117-.102.647 5.818 24.43 6.547 36.425Z" style="display:inline;fill:#43673f;stroke:#000;stroke-width:.132292;stroke-linecap:round;stroke-linejoin:round;stroke-miterlimit:2;stroke-opacity:1"/><path d="M17.688 71.243c-4.849-5.36-14.423-33.691-14.046-34.252.455.471 9.238 23.35 15.517 33.597zM33.75 68.698c4.848-5.36 14.422-33.691 14.044-34.252-.454.471-9.237 23.35-15.517 33.597ZM28.527 63.01c3.546-6.298 6.631-36.044 6.14-36.508-.34.56-3.857 24.814-7.72 36.194z" style="display:inline;fill:#43673f;stroke:#000;stroke-width:.132292;stroke-linecap:round;stroke-linejoin:round;stroke-miterlimit:2;stroke-opacity:1"/><g style="stroke-width:.930227"><path d="M-71.437 68.792s1.273-16.988 5.09-18.833l2.1.064c-4.454 2.608-5.472 19.214-5.472 19.214z" style="display:inline;fill:#43673f;stroke:#000;stroke-width:.123062;stroke-linecap:round;stroke-linejoin:round;stroke-miterlimit:2;stroke-opacity:1" transform="matrix(1.07533 0 0 1.07468 116.058 -3.795)"/><path d="m-66.347 49.959 2.1.064c2.52 1.034.396 18.611.396 18.611s.023-17.505-2.496-18.675" style="fill:#43673f;stroke:#000;stroke-width:.123062;stroke-linecap:round;stroke-linejoin:round;stroke-miterlimit:2;stroke-opacity:1" transform="matrix(1.07533 0 0 1.07468 116.058 -3.795)"/></g><path d="M26.847 23.775c-.245.434-.981 14.729-2.671 26.69-.517-12.001.1-26.06-.101-26.511-.309.19-1.092 6.823-1.57 14.542-.952-6.174-2.667-11.759-5.68-14.468 2.23 4.183 3.51 10.004 4.224 15.936-1.211-6.335-3.188-12.081-6.405-14.73 4.275 7.245 5.79 19.777 6.31 28.968a100 100 0 0 0-.884-.945 108 108 0 0 0-1.574-6.36c-2.312-9.043-5.18-17.76-5.582-17.906-.046.212.603 2.965 1.51 6.99-1.865-3.693-4.13-6.702-6.861-8.239a26 26 0 0 1 2.325 3.143c.077 1.503 1.26 7.655 2.931 14.492a4.3 4.3 0 0 0-1.294-.391c-1.297-4.526-2.363-7.744-2.572-7.824-.036.226.666 3.287 1.625 7.684-1.573-1.087-3.155-1.999-4.698-2.635-1.271-3.058-2.106-5.084-2.238-5.22-.095.14.44 2.041 1.372 4.891-1.286-.446-2.538-.684-3.727-.654 1.361.447 2.745 1.087 4.13 1.87.407 1.219.872 2.569 1.379 4-2.594-3.261-4.5-5.468-4.707-5.463.05.215 1.736 2.61 4.147 6.107-.848.973-1.633 2.122-2.338 3.315-1.287-.827-2.584-1.395-3.866-1.602 1.154.634 2.296 1.449 3.413 2.393C1.332 55.652.037 59.613.037 59.613c1.013-2.522 2.359-5.117 3.894-7.345 1.393 1.232 2.745 2.657 4.028 4.173-4.435 3.72-6.426 14.897-6.426 14.897 1.335-5.412 4.02-11.32 7.332-13.797 1.773 2.206 3.395 4.548 4.794 6.738a76 76 0 0 0 1.047 2.153c.383 2.619.667 5.065.794 7.154l1.581-.308c.091-.724.087-1.669.006-2.782q.311.427.6.747l.035-.015c.74 1.384 1.148 2.23 1.148 2.23l1.201-.863s-.342-.705-.96-1.87l1.017.108s0-.624-.109-1.645a71 71 0 0 1 1.925 3.677l1.348-.883c-.332-1.229-1.183-2.965-2.364-4.993l1.335-.37s-.041-.418-.132-1.169l.784-.156s.008-.289.014-.819l.417-.064s.083-1.172.156-3.124l1.334-.098.199.248q.075.632.205 1.124l.706.037c.392.508.603.795.603.795l.623-.653.873.174c.022.566.044 1.065.064 1.488l-.02.04.023.009.006.123c-1.58 1.92-2.523 3.196-2.523 3.196l1.125 1.177s.82-1.111 2.23-2.844l.989.153s-.02-.276-.05-.786l.386.107s.043-.441.139-1.236c.94-1.11 2.032-2.357 3.239-3.663q-.108.843-.175 1.6c-.865 3.089-1.328 5.1-1.328 5.1l.41.198q-.143.238-.283.467l1.472.655c1.439-1.59 3.294-5.205 5.182-9.516-1.135 3.824-1.957 7.495-2.526 10.439q-.13.27-.252.543c-.033.061.005.167.093.292-.64 3.434-.904 5.685-.904 5.685l2.293.537s.318-2.748 1.122-6.875q.279-.435.59-.903a72 72 0 0 0-.108 1.234l1.847.478s.128-2.077.486-4.925a301 301 0 0 1 5.348-7.215c.484 5.461.476 11.492.476 11.492s.903-7.468.9-13.289c.626-.814 1.211-1.57 1.734-2.241 1.248 2.46 2.25 5.283 2.917 7.982 0 0-.782-4.384-2.456-8.575 1.182-1.514 1.941-2.47 1.941-2.47s-.86.678-2.198 1.844c-.701-1.654-1.544-3.242-2.536-4.475 1.435-.823 2.872-1.494 4.284-1.957-1.579-.04-3.268.392-5.001 1.157a6.8 6.8 0 0 0-1.037-.851c1.865-3.771 4.11-7.218 6.797-9.825-3.483 1.655-6.324 5.02-8.623 9.106l-.123-.015c2.316-6.394 3.96-11.67 3.8-11.91-.215.223-2.289 5.447-5.079 11.977-.778.163-1.604.554-2.48 1.219 2.634-6.503 5.997-13.024 9.956-16.975-5.386 2.507-9.91 11.74-13.08 20.32 1.958-10.574 4.529-21.139 4.461-21.567-.286.11-2.169 6.073-4.058 13.226 1.264-5.308 2.199-10.022 2.499-12.191.925-1.586 1.931-3.035 3.024-4.29-4.367 2.456-7.54 8.675-9.794 15.437 1.07-7.894 1.659-14.876 1.423-15.1-.255.421-2.301 14.196-4.94 25.852.259-8.884 1.38-19.969 4.994-26.749-6.303 5.668-6.924 23.916-6.768 33.828a74 74 0 0 1-.676 2.258l-.188-.244c-.18-12.37 3.807-35.233 3.622-35.842-.368.168-2.322 8.21-3.861 16.893.481-9.31.337-18.464-.003-18.722m-16.613 7.666c3.313 5.432 5.626 12.632 7.194 19.144q-.255-.248-.513-.492a17 17 0 0 0-.677-1.397 13.6 13.6 0 0 0-1.37-1.75c-2.177-6.919-3.923-13.224-4.634-15.505m29.01.398c-1.4 4.771-4.323 15.121-7.478 23.774 1.323-7.077 3.654-16.565 7.478-23.774M6.52 43.75c.842.52 1.68 1.09 2.512 1.694a7.3 7.3 0 0 0-1.412.93c-.388-.92-.756-1.799-1.1-2.624m5.922 2.465q.308.035.611.115l.116.461a49 49 0 0 0-.727-.576m-2.066.243q.333.261.665.527a486 486 0 0 1 1.607 7.757 273 273 0 0 0-3.367-4.468q-.58-1.346-1.121-2.623c.731-.538 1.473-.946 2.216-1.193m31.91.963c-.679 1.58-1.395 3.224-2.133 4.88a58 58 0 0 0-2.413 2.062 131 131 0 0 1 2.153-5.868q.253-.31.525-.604a4.6 4.6 0 0 1 1.868-.47m-29.887.691q.727.622 1.434 1.261c.94 3.562 1.978 7.103 3.029 10.091a17 17 0 0 0-.807-1.194c-.002-.003-.22-.224-.508-.498-.306-.313-.616-.647-.912-.895a260 260 0 0 0-2.236-8.765m32.914.292q.145.099.29.206-.256.136-.513.28zm-29.982.006q.107.202.206.407l-.106-.095zm20.71.081c-.782 3.278-1.485 6.548-1.972 9.413q-.709.728-1.378 1.445c1.156-3.096 2.31-6.95 3.35-10.858m-29.139.22 1.005 1.464a257 257 0 0 0 1.98 5.212 4.4 4.4 0 0 0-.804.306c-1.47-1.652-3.014-3.122-4.58-4.228.765-1.034 1.57-1.969 2.4-2.754m39.65.715q.328.32.646.681a.8.8 0 0 0-.229-.145l-1.191-.036q.386-.257.774-.5m.858.927c.806.96 1.559 2.106 2.245 3.37-.43.38-.896.802-1.39 1.259-.08-2.125-.329-3.853-.855-4.629m-1.766.864c.471 1.212.816 3.106 1.067 5.234a76 76 0 0 0-4.439 4.663c.7-3.786 1.771-7.748 3.372-9.897m-29.189.636.303.3q.231.878.389 1.738a228 228 0 0 1-.692-2.038m22.177 3.809a191 191 0 0 1-3.313 6.87l.08-.703c.376-1.305.81-2.76 1.304-4.315.626-.62 1.27-1.24 1.929-1.852m-17.94.644.385.431q.045 1.087.071 2.076c-.138-.797-.29-1.636-.457-2.507m-8.632.035q.634.958 1.268 1.93.165.88.323 1.76a265 265 0 0 1-1.698-3.688zm-1.666.328q.228.57.458 1.134-.396-.5-.8-.986.17-.08.342-.148m8.16.174q.125.82.238 1.622-.08-.21-.16-.425a26 26 0 0 0-.079-1.197m-3.719.89q.44.574.823 1.184l-.815-1.151zm.955 4.378c.973 1.546 1.912 3.08 2.784 4.56.368 1.826.486 3.264.52 3.812-.837-1.374-1.718-2.97-2.617-4.704a111 111 0 0 0-.687-3.668m3.312 8.502.005.104-.046-.086z" style="fill:#43673f;stroke:#000;stroke-width:.132292;stroke-linecap:round;stroke-linejoin:round;stroke-miterlimit:2;stroke-opacity:1"/><path d="M21.755 5.27c.856 2.433 1.878 59.942 1.878 59.942l.618-.015s-.974-60.31-2.496-59.927" style="fill:#506e00;fill-opacity:1;stroke:#374b00;stroke-width:.132293;stroke-linecap:round;stroke-linejoin:round;stroke-miterlimit:2;stroke-opacity:1" transform="rotate(-175.731 29.555 2.978)scale(1 -1)"/><g style="display:inline;stroke-width:9.5049"><path d="m-248.268 136.955 1.213-16.838c8.328-20.393-32.591-12.84-14.136 1.918l6.874 16.147z" style="display:inline;fill:#bfb5e6;fill-opacity:1;stroke:#7e6acd;stroke-width:1.25742;stroke-linecap:round;stroke-linejoin:round;stroke-miterlimit:2;stroke-opacity:1" transform="matrix(.10197 .02642 -.02645 .1017 65.438 5.461)"/><path d="M-255.326 133.74c-13.234-.764-20.996-61.399-20.996-61.399.89.955 2.418 1.655 3.627 2.354.19-.763 1.717-1.908 1.717-1.908 2.438 4.661 17.243 7.026 7.66 39.123.35 4.17 4.425 15.947 7.992 21.83" style="fill:#8b78b6;fill-opacity:1;stroke:#7e6acd;stroke-width:1.25742;stroke-linecap:round;stroke-linejoin:round;stroke-miterlimit:2;stroke-opacity:1" transform="rotate(4.269 45.571 142.336)scale(-.10535 .10507)"/><path d="M-253.29 136.408s-9.898-40.58-6.749-51.378c2.88-.63 6.389 2.97 6.838-.9 10.258 6.119 12.867 21.235 2.61 26.274-3.374 1.689-2.7 26.004-2.7 26.004" style="display:inline;fill:#8b78b6;fill-opacity:1;stroke:#7e6acd;stroke-width:1.25742;stroke-linecap:round;stroke-linejoin:round;stroke-miterlimit:2;stroke-opacity:1" transform="rotate(4.269 45.571 142.336)scale(-.10535 .10507)"/><g style="display:inline;stroke-width:9.5049"><path d="M-249.558 141.579c21.886-41.738 55.556 10.667 63.094 10.534.03-26.86-5.868-38.953-33.866-35.619-13.732 2.04-27.173 7.434-29.228 25.085" style="display:inline;fill:#8b78b6;fill-opacity:1;stroke:#644f93;stroke-width:1.25742;stroke-linecap:round;stroke-linejoin:round;stroke-miterlimit:2;stroke-opacity:1" transform="matrix(.10197 .02642 -.02645 .1017 65.438 5.461)"/><path d="M-228.332 125.445c17.845-.254 39.07 26.373 42.039 25.473 3.934-35.695-28.272-46.846-42.04-25.473" style="display:inline;fill:#bfb5e6;fill-opacity:1;stroke:#7e6acd;stroke-width:1.25742;stroke-linecap:round;stroke-linejoin:round;stroke-miterlimit:2;stroke-opacity:1" transform="matrix(.10197 .02642 -.02645 .1017 65.438 5.461)"/><path d="M-223.28 121.883s10.086-1.498 18.926 9.427c0 0-15.223-4.814-23.978-5.865z" style="fill:#998d5b;fill-opacity:1;stroke:none;stroke-width:1.25742;stroke-linecap:round;stroke-linejoin:round;stroke-miterlimit:2;stroke-opacity:1" transform="matrix(.10197 .02642 -.02645 .1017 65.438 5.461)"/><path d="M-228.332 125.445c24.471 6.725 37.369 27.298 41.868 26.668 6.182-6.361-14.03-25.198-41.868-26.668" style="fill:#8b78b6;fill-opacity:1;stroke:#7e6acd;stroke-width:1.25742;stroke-linecap:round;stroke-linejoin:round;stroke-miterlimit:2;stroke-opacity:1" transform="matrix(.10197 .02642 -.02645 .1017 65.438 5.461)"/><path d="M-228.74 113.004c6.27 5.59.408 12.44.408 12.44 7.13-5.19 21.035-13.082-.407-12.44" style="display:inline;fill:#bfb5e6;fill-opacity:1;stroke:#7e6acd;stroke-width:1.25742;stroke-linecap:round;stroke-linejoin:round;stroke-miterlimit:2;stroke-opacity:1" transform="matrix(.10197 .02642 -.02645 .1017 65.438 5.461)"/></g><path d="M-250.411 135.688s8.638-15.116 8.458-25.914c.45-9.088-3.06-28.883 13.587-29.783 3.329-1.71-9.358 47.689-22.045 55.697" style="fill:#8b78b6;fill-opacity:1;stroke:#7e6acd;stroke-width:1.25742;stroke-linecap:round;stroke-linejoin:round;stroke-miterlimit:2;stroke-opacity:1" transform="rotate(4.269 45.571 142.336)scale(-.10535 .10507)"/><g style="display:inline;stroke-width:9.5049"><path d="M-252.972 138.447c21.887-41.737 59.141 12.604 66.679 12.47 8.31-12.583-6.039-37.757-34.037-34.423-13.732 2.04-27.021-2.423-32.642 21.953" style="display:inline;fill:#8b78b6;fill-opacity:1;stroke:#644f93;stroke-width:1.25742;stroke-linecap:round;stroke-linejoin:round;stroke-miterlimit:2;stroke-opacity:1" transform="rotate(4.269 45.571 142.336)scale(-.10535 .10507)"/><path d="M-227.748 123.136c16.376-1.8 38.486 28.682 41.455 27.782 14.037-20.335-27.6-49.17-41.455-27.782" style="display:inline;fill:#bfb5e6;fill-opacity:1;stroke:#7e6acd;stroke-width:1.25742;stroke-linecap:round;stroke-linejoin:round;stroke-miterlimit:2;stroke-opacity:1" transform="rotate(4.269 45.571 142.336)scale(-.10535 .10507)"/><path d="M-227.085 117.134c1.17 2.969-.663 6.002-.663 6.002s5.74-3.967 7.63-6.666c6.386-12.714 1.299-10.604-2.889-6.173-2.125 2.248-4.584.085-4.078 6.837" style="display:inline;fill:#bfb5e6;fill-opacity:1;stroke:#7e6acd;stroke-width:1.25742;stroke-linecap:round;stroke-linejoin:round;stroke-miterlimit:2;stroke-opacity:1" transform="rotate(4.269 45.571 142.336)scale(-.10535 .10507)"/><path d="M-227.748 123.136c14.756 2.07 36.956 28.412 41.455 27.782 6.966-12.63-24.188-45.012-41.455-27.782" style="fill:#bfb5e6;fill-opacity:1;stroke:#7e6acd;stroke-width:1.25742;stroke-linecap:round;stroke-linejoin:round;stroke-miterlimit:2;stroke-opacity:1" transform="rotate(4.269 45.571 142.336)scale(-.10535 .10507)"/></g><path d="m-250.524 153.969-2.857.018c-.064-13.552-12.061-28.781-21.16-29.863 8.717-4.517 19.215 9.615 19.215 9.615s.255-8.907 1.018-9.416c1.209.445 3.436 7.828 3.436 7.828 6.044-16.288 21.216-9.32 21.216-9.32s-22.332 1.934-20.868 31.138" style="display:inline;fill:#506e00;fill-opacity:1;stroke:#374b00;stroke-width:1.25742;stroke-linecap:round;stroke-linejoin:round;stroke-miterlimit:2;stroke-opacity:1" transform="rotate(4.269 45.571 142.336)scale(-.10535 .10507)"/></g><g style="stroke-width:1.17074"><path d="M21.755 5.27c.856 2.433 1.878 59.942 1.878 59.942l.618-.015s-.974-60.31-2.496-59.927" style="fill:#506e00;fill-opacity:1;stroke:#374b00;stroke-width:.154881;stroke-linecap:round;stroke-linejoin:round;stroke-miterlimit:2;stroke-opacity:1" transform="matrix(-.85316 .02818 .02838 .85422 49.983 12.656)"/><g style="display:inline;stroke-width:11.1278"><path d="m-248.268 136.955 1.213-16.838c8.328-20.393-32.591-12.84-14.136 1.918l6.874 16.147z" style="display:inline;fill:#bfb5e6;fill-opacity:1;stroke:#7e6acd;stroke-width:1.47212;stroke-linecap:round;stroke-linejoin:round;stroke-miterlimit:2;stroke-opacity:1" transform="matrix(.08897 .0131 -.0131 .08884 55.365 9.765)"/><path d="M-255.326 133.74c-13.234-.764-20.996-61.399-20.996-61.399.89.955 2.418 1.655 3.627 2.354.19-.763 1.717-1.908 1.717-1.908 2.438 4.661 17.243 7.026 7.66 39.123.35 4.17 4.425 15.947 7.992 21.83" style="fill:#8b78b6;fill-opacity:1;stroke:#7e6acd;stroke-width:1.47212;stroke-linecap:round;stroke-linejoin:round;stroke-miterlimit:2;stroke-opacity:1" transform="matrix(-.08988 .00297 .00298 .08975 8.151 7.594)"/><path d="M-253.29 136.408s-9.898-40.58-6.749-51.378c2.88-.63 6.389 2.97 6.838-.9 10.258 6.119 12.867 21.235 2.61 26.274-3.374 1.689-2.7 26.004-2.7 26.004" style="display:inline;fill:#8b78b6;fill-opacity:1;stroke:#7e6acd;stroke-width:1.47212;stroke-linecap:round;stroke-linejoin:round;stroke-miterlimit:2;stroke-opacity:1" transform="matrix(-.08988 .00297 .00298 .08975 8.151 7.594)"/><g style="display:inline;stroke-width:11.1278"><path d="M-249.558 141.579c21.886-41.738 55.556 10.667 63.094 10.534.03-26.86-5.868-38.953-33.866-35.619-13.732 2.04-27.173 7.434-29.228 25.085" style="display:inline;fill:#8b78b6;fill-opacity:1;stroke:#644f93;stroke-width:1.47212;stroke-linecap:round;stroke-linejoin:round;stroke-miterlimit:2;stroke-opacity:1" transform="matrix(.08897 .0131 -.0131 .08884 55.365 9.765)"/><path d="M-228.332 125.445c17.845-.254 39.07 26.373 42.039 25.473 3.934-35.695-28.272-46.846-42.04-25.473" style="display:inline;fill:#bfb5e6;fill-opacity:1;stroke:#7e6acd;stroke-width:1.47212;stroke-linecap:round;stroke-linejoin:round;stroke-miterlimit:2;stroke-opacity:1" transform="matrix(.08897 .0131 -.0131 .08884 55.365 9.765)"/><path d="M-223.28 121.883s10.086-1.498 18.926 9.427c0 0-15.223-4.814-23.978-5.865z" style="fill:#998d5b;fill-opacity:1;stroke:none;stroke-width:1.47212;stroke-linecap:round;stroke-linejoin:round;stroke-miterlimit:2;stroke-opacity:1" transform="matrix(.08897 .0131 -.0131 .08884 55.365 9.765)"/><path d="M-228.332 125.445c24.471 6.725 37.369 27.298 41.868 26.668 6.182-6.361-14.03-25.198-41.868-26.668" style="fill:#8b78b6;fill-opacity:1;stroke:#7e6acd;stroke-width:1.47212;stroke-linecap:round;stroke-linejoin:round;stroke-miterlimit:2;stroke-opacity:1" transform="matrix(.08897 .0131 -.0131 .08884 55.365 9.765)"/><path d="M-228.74 113.004c6.27 5.59.408 12.44.408 12.44 7.13-5.19 21.035-13.082-.407-12.44" style="display:inline;fill:#bfb5e6;fill-opacity:1;stroke:#7e6acd;stroke-width:1.47212;stroke-linecap:round;stroke-linejoin:round;stroke-miterlimit:2;stroke-opacity:1" transform="matrix(.08897 .0131 -.0131 .08884 55.365 9.765)"/></g><path d="M-250.411 135.688s8.638-15.116 8.458-25.914c.45-9.088-3.06-28.883 13.587-29.783 3.329-1.71-9.358 47.689-22.045 55.697" style="fill:#8b78b6;fill-opacity:1;stroke:#7e6acd;stroke-width:1.47212;stroke-linecap:round;stroke-linejoin:round;stroke-miterlimit:2;stroke-opacity:1" transform="matrix(-.08988 .00297 .00298 .08975 8.151 7.594)"/><g style="display:inline;stroke-width:11.1278"><path d="M-252.972 138.447c21.887-41.737 59.141 12.604 66.679 12.47 8.31-12.583-6.039-37.757-34.037-34.423-13.732 2.04-27.021-2.423-32.642 21.953" style="display:inline;fill:#8b78b6;fill-opacity:1;stroke:#644f93;stroke-width:1.47212;stroke-linecap:round;stroke-linejoin:round;stroke-miterlimit:2;stroke-opacity:1" transform="matrix(-.08988 .00297 .00298 .08975 8.151 7.594)"/><path d="M-227.748 123.136c16.376-1.8 38.486 28.682 41.455 27.782 14.037-20.335-27.6-49.17-41.455-27.782" style="display:inline;fill:#bfb5e6;fill-opacity:1;stroke:#7e6acd;stroke-width:1.47212;stroke-linecap:round;stroke-linejoin:round;stroke-miterlimit:2;stroke-opacity:1" transform="matrix(-.08988 .00297 .00298 .08975 8.151 7.594)"/><path d="M-227.085 117.134c1.17 2.969-.663 6.002-.663 6.002s5.74-3.967 7.63-6.666c6.386-12.714 1.299-10.604-2.889-6.173-2.125 2.248-4.584.085-4.078 6.837" style="display:inline;fill:#bfb5e6;fill-opacity:1;stroke:#7e6acd;stroke-width:1.47212;stroke-linecap:round;stroke-linejoin:round;stroke-miterlimit:2;stroke-opacity:1" transform="matrix(-.08988 .00297 .00298 .08975 8.151 7.594)"/><path d="M-227.748 123.136c14.756 2.07 36.956 28.412 41.455 27.782 6.966-12.63-24.188-45.012-41.455-27.782" style="fill:#bfb5e6;fill-opacity:1;stroke:#7e6acd;stroke-width:1.47212;stroke-linecap:round;stroke-linejoin:round;stroke-miterlimit:2;stroke-opacity:1" transform="matrix(-.08988 .00297 .00298 .08975 8.151 7.594)"/></g><path d="m-250.524 153.969-2.857.018c-.064-13.552-12.061-28.781-21.16-29.863 8.717-4.517 19.215 9.615 19.215 9.615s.255-8.907 1.018-9.416c1.209.445 3.436 7.828 3.436 7.828 6.044-16.288 21.216-9.32 21.216-9.32s-22.332 1.934-20.868 31.138" style="display:inline;fill:#506e00;fill-opacity:1;stroke:#374b00;stroke-width:1.47212;stroke-linecap:round;stroke-linejoin:round;stroke-miterlimit:2;stroke-opacity:1" transform="matrix(-.08988 .00297 .00298 .08975 8.151 7.594)"/></g></g><path d="M21.755 5.27c.856 2.433 1.878 59.942 1.878 59.942l.618-.015s-.974-60.31-2.496-59.927" style="fill:#506e00;fill-opacity:1;stroke:#374b00;stroke-width:.132293;stroke-linecap:round;stroke-linejoin:round;stroke-miterlimit:2;stroke-opacity:1" transform="rotate(9.86 9.393 146.049)"/><g style="display:inline;stroke-width:9.5049"><path d="m-248.268 136.955 1.213-16.838c8.328-20.393-32.591-12.84-14.136 1.918l6.874 16.147z" style="display:inline;fill:#bfb5e6;fill-opacity:1;stroke:#7e6acd;stroke-width:1.25742;stroke-linecap:round;stroke-linejoin:round;stroke-miterlimit:2;stroke-opacity:1" transform="matrix(-.10534 .00073 .00082 .10508 19.374 -3.675)"/><path d="M-255.326 133.74c-13.234-.764-20.996-61.399-20.996-61.399.89.955 2.418 1.655 3.627 2.354.19-.763 1.717-1.908 1.717-1.908 2.438 4.661 17.243 7.026 7.66 39.123.35 4.17 4.425 15.947 7.992 21.83" style="fill:#8b78b6;fill-opacity:1;stroke:#7e6acd;stroke-width:1.25742;stroke-linecap:round;stroke-linejoin:round;stroke-miterlimit:2;stroke-opacity:1" transform="matrix(.1038 .01804 -.018 .10352 74.5 1.48)"/><path d="M-253.29 136.408s-9.898-40.58-6.749-51.378c2.88-.63 6.389 2.97 6.838-.9 10.258 6.119 12.867 21.235 2.61 26.274-3.374 1.689-2.7 26.004-2.7 26.004" style="display:inline;fill:#8b78b6;fill-opacity:1;stroke:#7e6acd;stroke-width:1.25742;stroke-linecap:round;stroke-linejoin:round;stroke-miterlimit:2;stroke-opacity:1" transform="matrix(.1038 .01804 -.018 .10352 74.5 1.48)"/><g style="display:inline;stroke-width:9.5049"><path d="M-249.558 141.579c21.886-41.738 55.556 10.667 63.094 10.534.03-26.86-5.868-38.953-33.866-35.619-13.732 2.04-27.173 7.434-29.228 25.085" style="display:inline;fill:#8b78b6;fill-opacity:1;stroke:#644f93;stroke-width:1.25742;stroke-linecap:round;stroke-linejoin:round;stroke-miterlimit:2;stroke-opacity:1" transform="matrix(-.10534 .00073 .00082 .10508 19.374 -3.675)"/><path d="M-228.332 125.445c17.845-.254 39.07 26.373 42.039 25.473 3.934-35.695-28.272-46.846-42.04-25.473" style="display:inline;fill:#bfb5e6;fill-opacity:1;stroke:#7e6acd;stroke-width:1.25742;stroke-linecap:round;stroke-linejoin:round;stroke-miterlimit:2;stroke-opacity:1" transform="matrix(-.10534 .00073 .00082 .10508 19.374 -3.675)"/><path d="M-223.28 121.883s10.086-1.498 18.926 9.427c0 0-15.223-4.814-23.978-5.865z" style="fill:#998d5b;fill-opacity:1;stroke:none;stroke-width:1.25742;stroke-linecap:round;stroke-linejoin:round;stroke-miterlimit:2;stroke-opacity:1" transform="matrix(-.10534 .00073 .00082 .10508 19.374 -3.675)"/><path d="M-228.332 125.445c24.471 6.725 37.369 27.298 41.868 26.668 6.182-6.361-14.03-25.198-41.868-26.668" style="fill:#8b78b6;fill-opacity:1;stroke:#7e6acd;stroke-width:1.25742;stroke-linecap:round;stroke-linejoin:round;stroke-miterlimit:2;stroke-opacity:1" transform="matrix(-.10534 .00073 .00082 .10508 19.374 -3.675)"/><path d="M-228.74 113.004c6.27 5.59.408 12.44.408 12.44 7.13-5.19 21.035-13.082-.407-12.44" style="display:inline;fill:#bfb5e6;fill-opacity:1;stroke:#7e6acd;stroke-width:1.25742;stroke-linecap:round;stroke-linejoin:round;stroke-miterlimit:2;stroke-opacity:1" transform="matrix(-.10534 .00073 .00082 .10508 19.374 -3.675)"/></g><path d="M-250.411 135.688s8.638-15.116 8.458-25.914c.45-9.088-3.06-28.883 13.587-29.783 3.329-1.71-9.358 47.689-22.045 55.697" style="fill:#8b78b6;fill-opacity:1;stroke:#7e6acd;stroke-width:1.25742;stroke-linecap:round;stroke-linejoin:round;stroke-miterlimit:2;stroke-opacity:1" transform="matrix(.1038 .01804 -.018 .10352 74.5 1.48)"/><g style="display:inline;stroke-width:9.5049"><path d="M-252.972 138.447c21.887-41.737 59.141 12.604 66.679 12.47 8.31-12.583-6.039-37.757-34.037-34.423-13.732 2.04-27.021-2.423-32.642 21.953" style="display:inline;fill:#8b78b6;fill-opacity:1;stroke:#644f93;stroke-width:1.25742;stroke-linecap:round;stroke-linejoin:round;stroke-miterlimit:2;stroke-opacity:1" transform="matrix(.1038 .01804 -.018 .10352 74.5 1.48)"/><path d="M-227.748 123.136c16.376-1.8 38.486 28.682 41.455 27.782 14.037-20.335-27.6-49.17-41.455-27.782" style="display:inline;fill:#bfb5e6;fill-opacity:1;stroke:#7e6acd;stroke-width:1.25742;stroke-linecap:round;stroke-linejoin:round;stroke-miterlimit:2;stroke-opacity:1" transform="matrix(.1038 .01804 -.018 .10352 74.5 1.48)"/><path d="M-227.085 117.134c1.17 2.969-.663 6.002-.663 6.002s5.74-3.967 7.63-6.666c6.386-12.714 1.299-10.604-2.889-6.173-2.125 2.248-4.584.085-4.078 6.837" style="display:inline;fill:#bfb5e6;fill-opacity:1;stroke:#7e6acd;stroke-width:1.25742;stroke-linecap:round;stroke-linejoin:round;stroke-miterlimit:2;stroke-opacity:1" transform="matrix(.1038 .01804 -.018 .10352 74.5 1.48)"/><path d="M-227.748 123.136c14.756 2.07 36.956 28.412 41.455 27.782 6.966-12.63-24.188-45.012-41.455-27.782" style="fill:#bfb5e6;fill-opacity:1;stroke:#7e6acd;stroke-width:1.25742;stroke-linecap:round;stroke-linejoin:round;stroke-miterlimit:2;stroke-opacity:1" transform="matrix(.1038 .01804 -.018 .10352 74.5 1.48)"/></g><path d="m-250.524 153.969-2.857.018c-.064-13.552-12.061-28.781-21.16-29.863 8.717-4.517 19.215 9.615 19.215 9.615s.255-8.907 1.018-9.416c1.209.445 3.436 7.828 3.436 7.828 6.044-16.288 21.216-9.32 21.216-9.32s-22.332 1.934-20.868 31.138" style="display:inline;fill:#506e00;fill-opacity:1;stroke:#374b00;stroke-width:1.25742;stroke-linecap:round;stroke-linejoin:round;stroke-miterlimit:2;stroke-opacity:1" transform="matrix(.1038 .01804 -.018 .10352 74.5 1.48)"/></g><path d="M21.755 5.27c.856 2.433 1.878 59.942 1.878 59.942l.618-.015s-.974-60.31-2.496-59.927" style="fill:#506e00;fill-opacity:1;stroke:#374b00;stroke-width:.132293;stroke-linecap:round;stroke-linejoin:round;stroke-miterlimit:2;stroke-opacity:1" transform="rotate(170.14 13.62 4.262)scale(1 -1)"/><g style="display:inline;stroke-width:9.95851"><path d="m-248.268 136.955 1.213-16.838c8.328-20.393-32.591-12.84-14.136 1.918l6.874 16.147z" style="display:inline;fill:#bfb5e6;fill-opacity:1;stroke:#7e6acd;stroke-width:1.31743;stroke-linecap:round;stroke-linejoin:round;stroke-miterlimit:2;stroke-opacity:1" transform="matrix(.10055 .0007 -.00078 .10028 32.336 2.381)"/><path d="M-255.326 133.74c-13.234-.764-20.996-61.399-20.996-61.399.89.955 2.418 1.655 3.627 2.354.19-.763 1.717-1.908 1.717-1.908 2.438 4.661 17.243 7.026 7.66 39.123.35 4.17 4.425 15.947 7.992 21.83" style="fill:#8b78b6;fill-opacity:1;stroke:#7e6acd;stroke-width:1.31743;stroke-linecap:round;stroke-linejoin:round;stroke-miterlimit:2;stroke-opacity:1" transform="matrix(-.09907 .01722 .01718 .0988 -20.284 7.3)"/><path d="M-253.29 136.408s-9.898-40.58-6.749-51.378c2.88-.63 6.389 2.97 6.838-.9 10.258 6.119 12.867 21.235 2.61 26.274-3.374 1.689-2.7 26.004-2.7 26.004" style="display:inline;fill:#8b78b6;fill-opacity:1;stroke:#7e6acd;stroke-width:1.31743;stroke-linecap:round;stroke-linejoin:round;stroke-miterlimit:2;stroke-opacity:1" transform="matrix(-.09907 .01722 .01718 .0988 -20.284 7.3)"/><g style="display:inline;stroke-width:9.95851"><path d="M-249.558 141.579c21.886-41.738 55.556 10.667 63.094 10.534.03-26.86-5.868-38.953-33.866-35.619-13.732 2.04-27.173 7.434-29.228 25.085" style="display:inline;fill:#8b78b6;fill-opacity:1;stroke:#644f93;stroke-width:1.31743;stroke-linecap:round;stroke-linejoin:round;stroke-miterlimit:2;stroke-opacity:1" transform="matrix(.10055 .0007 -.00078 .10028 32.336 2.381)"/><path d="M-228.332 125.445c17.845-.254 39.07 26.373 42.039 25.473 3.934-35.695-28.272-46.846-42.04-25.473" style="display:inline;fill:#bfb5e6;fill-opacity:1;stroke:#7e6acd;stroke-width:1.31743;stroke-linecap:round;stroke-linejoin:round;stroke-miterlimit:2;stroke-opacity:1" transform="matrix(.10055 .0007 -.00078 .10028 32.336 2.381)"/><path d="M-223.28 121.883s10.086-1.498 18.926 9.427c0 0-15.223-4.814-23.978-5.865z" style="fill:#998d5b;fill-opacity:1;stroke:none;stroke-width:1.31743;stroke-linecap:round;stroke-linejoin:round;stroke-miterlimit:2;stroke-opacity:1" transform="matrix(.10055 .0007 -.00078 .10028 32.336 2.381)"/><path d="M-228.332 125.445c24.471 6.725 37.369 27.298 41.868 26.668 6.182-6.361-14.03-25.198-41.868-26.668" style="fill:#8b78b6;fill-opacity:1;stroke:#7e6acd;stroke-width:1.31743;stroke-linecap:round;stroke-linejoin:round;stroke-miterlimit:2;stroke-opacity:1" transform="matrix(.10055 .0007 -.00078 .10028 32.336 2.381)"/><path d="M-228.74 113.004c6.27 5.59.408 12.44.408 12.44 7.13-5.19 21.035-13.082-.407-12.44" style="display:inline;fill:#bfb5e6;fill-opacity:1;stroke:#7e6acd;stroke-width:1.31743;stroke-linecap:round;stroke-linejoin:round;stroke-miterlimit:2;stroke-opacity:1" transform="matrix(.10055 .0007 -.00078 .10028 32.336 2.381)"/></g><path d="M-250.411 135.688s8.638-15.116 8.458-25.914c.45-9.088-3.06-28.883 13.587-29.783 3.329-1.71-9.358 47.689-22.045 55.697" style="fill:#8b78b6;fill-opacity:1;stroke:#7e6acd;stroke-width:1.31743;stroke-linecap:round;stroke-linejoin:round;stroke-miterlimit:2;stroke-opacity:1" transform="matrix(-.09907 .01722 .01718 .0988 -20.284 7.3)"/><g style="display:inline;stroke-width:9.95851"><path d="M-252.972 138.447c21.887-41.737 59.141 12.604 66.679 12.47 8.31-12.583-6.039-37.757-34.037-34.423-13.732 2.04-27.021-2.423-32.642 21.953" style="display:inline;fill:#8b78b6;fill-opacity:1;stroke:#644f93;stroke-width:1.31743;stroke-linecap:round;stroke-linejoin:round;stroke-miterlimit:2;stroke-opacity:1" transform="matrix(-.09907 .01722 .01718 .0988 -20.284 7.3)"/><path d="M-227.748 123.136c16.376-1.8 38.486 28.682 41.455 27.782 14.037-20.335-27.6-49.17-41.455-27.782" style="display:inline;fill:#bfb5e6;fill-opacity:1;stroke:#7e6acd;stroke-width:1.31743;stroke-linecap:round;stroke-linejoin:round;stroke-miterlimit:2;stroke-opacity:1" transform="matrix(-.09907 .01722 .01718 .0988 -20.284 7.3)"/><path d="M-227.085 117.134c1.17 2.969-.663 6.002-.663 6.002s5.74-3.967 7.63-6.666c6.386-12.714 1.299-10.604-2.889-6.173-2.125 2.248-4.584.085-4.078 6.837" style="display:inline;fill:#bfb5e6;fill-opacity:1;stroke:#7e6acd;stroke-width:1.31743;stroke-linecap:round;stroke-linejoin:round;stroke-miterlimit:2;stroke-opacity:1" transform="matrix(-.09907 .01722 .01718 .0988 -20.284 7.3)"/><path d="M-227.748 123.136c14.756 2.07 36.956 28.412 41.455 27.782 6.966-12.63-24.188-45.012-41.455-27.782" style="fill:#bfb5e6;fill-opacity:1;stroke:#7e6acd;stroke-width:1.31743;stroke-linecap:round;stroke-linejoin:round;stroke-miterlimit:2;stroke-opacity:1" transform="matrix(-.09907 .01722 .01718 .0988 -20.284 7.3)"/></g><path d="m-250.524 153.969-2.857.018c-.064-13.552-12.061-28.781-21.16-29.863 8.717-4.517 19.215 9.615 19.215 9.615s.255-8.907 1.018-9.416c1.209.445 3.436 7.828 3.436 7.828 6.044-16.288 21.216-9.32 21.216-9.32s-22.332 1.934-20.868 31.138" style="display:inline;fill:#506e00;fill-opacity:1;stroke:#374b00;stroke-width:1.31743;stroke-linecap:round;stroke-linejoin:round;stroke-miterlimit:2;stroke-opacity:1" transform="matrix(-.09907 .01722 .01718 .0988 -20.284 7.3)"/></g><path d="M20.398 73.075c1.33-7.88-6.609-39.987-7.295-40.286-.143.71 5.288 27.264 5.533 40.552zM15.428 74.794c-3.984-6.03-9.173-35.483-8.715-35.98.378.535 5.607 24.478 10.269 35.555zM32.258 71.289c.283-7.223 13.25-34.17 13.913-34.307-.005.655-9.726 23.152-12.403 34.868Z" style="display:inline;fill:#668450;fill-opacity:1;stroke:#3b4c2e;stroke-width:.132292;stroke-linecap:round;stroke-linejoin:round;stroke-miterlimit:2;stroke-opacity:1"/><path d="M22.114 66.132c1.33-7.881-6.609-39.988-7.295-40.286-.143.71 5.289 27.263 5.533 40.551z" style="display:inline;fill:#668450;fill-opacity:1;stroke:#3b4c2e;stroke-width:.132292;stroke-linecap:round;stroke-linejoin:round;stroke-miterlimit:2;stroke-opacity:1"/><path d="M27.652 80.25c2.51-10.978-6.268-56.69-7.221-57.16-.26.987 5.387 38.71 4.693 57.404z" style="display:inline;fill:#668450;fill-opacity:1;stroke:#3b4c2e;stroke-width:.132291;stroke-linecap:round;stroke-linejoin:round;stroke-miterlimit:2;stroke-opacity:1"/><path d="M24.26 79.244c-3.52-10.698.974-57.028 1.88-57.585.35.96-1.768 39.043.66 57.592z" style="display:inline;fill:#668450;fill-opacity:1;stroke:#3b4c2e;stroke-width:.132291;stroke-linecap:round;stroke-linejoin:round;stroke-miterlimit:2;stroke-opacity:1"/><path d="M23.925 82.431c-2.874-10.89 4.38-56.868 5.316-57.37.292.979-4.097 38.868-2.782 57.529ZM34.65 87.123c-2.51-10.979 6.269-56.69 7.221-57.161.26.987-5.386 38.71-4.692 57.404zM17.032 90.957c2.51-10.979-6.268-56.69-7.22-57.161-.26.987 5.386 38.71 4.692 57.404ZM28.806 89.25c-2.232-11.04 7.699-56.515 8.663-56.962.234.994-6.363 38.562-6.142 57.268z" style="display:inline;fill:#668450;fill-opacity:1;stroke:#3b4c2e;stroke-width:.132291;stroke-linecap:round;stroke-linejoin:round;stroke-miterlimit:2;stroke-opacity:1"/><path d="M24.89 82.925c-2.51-10.978 6.268-56.69 7.22-57.161.26.987-5.386 38.71-4.692 57.404Z" style="display:inline;fill:#668450;fill-opacity:1;stroke:#3b4c2e;stroke-width:.132291;stroke-linecap:round;stroke-linejoin:round;stroke-miterlimit:2;stroke-opacity:1"/><path d="M16.614 72.7s-2.26-27.986-13.73-39.914c13.349 6.92 16.04 39.458 16.04 39.458ZM26.36 81.398s-2.259-30.306-13.729-43.223c13.348 7.493 16.04 42.728 16.04 42.728zM34.703 77.889s-.336-30.388 9.99-44.237c-12.66 8.605-12.334 43.941-12.334 43.941z" style="display:inline;fill:#668450;fill-opacity:1;stroke:#3b4c2e;stroke-width:.132292;stroke-linecap:round;stroke-linejoin:round;stroke-miterlimit:2;stroke-opacity:1"/><path d="M17.665 88.457S18 58.068 7.675 44.219c12.66 8.606 12.334 43.942 12.334 43.942z" style="display:inline;fill:#668450;fill-opacity:1;stroke:#3b4c2e;stroke-width:.132292;stroke-linecap:round;stroke-linejoin:round;stroke-miterlimit:2;stroke-opacity:1"/><path d="M21.755 5.27c.856 2.433 1.878 59.942 1.878 59.942l.618-.015s-.974-60.31-2.496-59.927" style="fill:#506e00;fill-opacity:1;stroke:#374b00;stroke-width:.132293;stroke-linecap:round;stroke-linejoin:round;stroke-miterlimit:2;stroke-opacity:1"/><g style="display:inline;stroke-width:9.5049"><path d="m-248.268 136.955 1.213-16.838c8.328-20.393-32.591-12.84-14.136 1.918l6.874 16.147z" style="display:inline;fill:#bfb5e6;fill-opacity:1;stroke:#7e6acd;stroke-width:1.25742;stroke-linecap:round;stroke-linejoin:round;stroke-miterlimit:2;stroke-opacity:1" transform="matrix(-.10366 .01875 .0188 .10338 -6.414 -3.173)"/><path d="M-255.326 133.74c-13.234-.764-20.996-61.399-20.996-61.399.89.955 2.418 1.655 3.627 2.354.19-.763 1.717-1.908 1.717-1.908 2.438 4.661 17.243 7.026 7.66 39.123.35 4.17 4.425 15.947 7.992 21.83" style="fill:#8b78b6;fill-opacity:1;stroke:#7e6acd;stroke-width:1.25742;stroke-linecap:round;stroke-linejoin:round;stroke-miterlimit:2;stroke-opacity:1" transform="matrix(.10535 0 0 .10507 48.78 -7.535)"/><path d="M-253.29 136.408s-9.898-40.58-6.749-51.378c2.88-.63 6.389 2.97 6.838-.9 10.258 6.119 12.867 21.235 2.61 26.274-3.374 1.689-2.7 26.004-2.7 26.004" style="display:inline;fill:#8b78b6;fill-opacity:1;stroke:#7e6acd;stroke-width:1.25742;stroke-linecap:round;stroke-linejoin:round;stroke-miterlimit:2;stroke-opacity:1" transform="matrix(.10535 0 0 .10507 48.78 -7.535)"/><g style="display:inline;stroke-width:9.5049"><path d="M-249.558 141.579c21.886-41.738 55.556 10.667 63.094 10.534.03-26.86-5.868-38.953-33.866-35.619-13.732 2.04-27.173 7.434-29.228 25.085" style="display:inline;fill:#8b78b6;fill-opacity:1;stroke:#644f93;stroke-width:1.25742;stroke-linecap:round;stroke-linejoin:round;stroke-miterlimit:2;stroke-opacity:1" transform="matrix(-.10366 .01875 .0188 .10338 -6.414 -3.173)"/><path d="M-228.332 125.445c17.845-.254 39.07 26.373 42.039 25.473 3.934-35.695-28.272-46.846-42.04-25.473" style="display:inline;fill:#bfb5e6;fill-opacity:1;stroke:#7e6acd;stroke-width:1.25742;stroke-linecap:round;stroke-linejoin:round;stroke-miterlimit:2;stroke-opacity:1" transform="matrix(-.10366 .01875 .0188 .10338 -6.414 -3.173)"/><path d="M-223.28 121.883s10.086-1.498 18.926 9.427c0 0-15.223-4.814-23.978-5.865z" style="fill:#998d5b;fill-opacity:1;stroke:none;stroke-width:1.25742;stroke-linecap:round;stroke-linejoin:round;stroke-miterlimit:2;stroke-opacity:1" transform="matrix(-.10366 .01875 .0188 .10338 -6.414 -3.173)"/><path d="M-228.332 125.445c24.471 6.725 37.369 27.298 41.868 26.668 6.182-6.361-14.03-25.198-41.868-26.668" style="fill:#8b78b6;fill-opacity:1;stroke:#7e6acd;stroke-width:1.25742;stroke-linecap:round;stroke-linejoin:round;stroke-miterlimit:2;stroke-opacity:1" transform="matrix(-.10366 .01875 .0188 .10338 -6.414 -3.173)"/><path d="M-228.74 113.004c6.27 5.59.408 12.44.408 12.44 7.13-5.19 21.035-13.082-.407-12.44" style="display:inline;fill:#bfb5e6;fill-opacity:1;stroke:#7e6acd;stroke-width:1.25742;stroke-linecap:round;stroke-linejoin:round;stroke-miterlimit:2;stroke-opacity:1" transform="matrix(-.10366 .01875 .0188 .10338 -6.414 -3.173)"/></g><path d="M-250.411 135.688s8.638-15.116 8.458-25.914c.45-9.088-3.06-28.883 13.587-29.783 3.329-1.71-9.358 47.689-22.045 55.697" style="fill:#8b78b6;fill-opacity:1;stroke:#7e6acd;stroke-width:1.25742;stroke-linecap:round;stroke-linejoin:round;stroke-miterlimit:2;stroke-opacity:1" transform="matrix(.10535 0 0 .10507 48.78 -7.535)"/><g style="display:inline;stroke-width:9.5049"><path d="M-252.972 138.447c21.887-41.737 59.141 12.604 66.679 12.47 8.31-12.583-6.039-37.757-34.037-34.423-13.732 2.04-27.021-2.423-32.642 21.953" style="display:inline;fill:#8b78b6;fill-opacity:1;stroke:#644f93;stroke-width:1.25742;stroke-linecap:round;stroke-linejoin:round;stroke-miterlimit:2;stroke-opacity:1" transform="matrix(.10535 0 0 .10507 48.78 -7.535)"/><path d="M-227.748 123.136c16.376-1.8 38.486 28.682 41.455 27.782 14.037-20.335-27.6-49.17-41.455-27.782" style="display:inline;fill:#bfb5e6;fill-opacity:1;stroke:#7e6acd;stroke-width:1.25742;stroke-linecap:round;stroke-linejoin:round;stroke-miterlimit:2;stroke-opacity:1" transform="matrix(.10535 0 0 .10507 48.78 -7.535)"/><path d="M-227.085 117.134c1.17 2.969-.663 6.002-.663 6.002s5.74-3.967 7.63-6.666c6.386-12.714 1.299-10.604-2.889-6.173-2.125 2.248-4.584.085-4.078 6.837" style="display:inline;fill:#bfb5e6;fill-opacity:1;stroke:#7e6acd;stroke-width:1.25742;stroke-linecap:round;stroke-linejoin:round;stroke-miterlimit:2;stroke-opacity:1" transform="matrix(.10535 0 0 .10507 48.78 -7.535)"/><path d="M-227.748 123.136c14.756 2.07 36.956 28.412 41.455 27.782 6.966-12.63-24.188-45.012-41.455-27.782" style="fill:#bfb5e6;fill-opacity:1;stroke:#7e6acd;stroke-width:1.25742;stroke-linecap:round;stroke-linejoin:round;stroke-miterlimit:2;stroke-opacity:1" transform="matrix(.10535 0 0 .10507 48.78 -7.535)"/></g><path d="m-250.524 153.969-2.857.018c-.064-13.552-12.061-28.781-21.16-29.863 8.717-4.517 19.215 9.615 19.215 9.615s.255-8.907 1.018-9.416c1.209.445 3.436 7.828 3.436 7.828 6.044-16.288 21.216-9.32 21.216-9.32s-22.332 1.934-20.868 31.138" style="display:inline;fill:#506e00;fill-opacity:1;stroke:#374b00;stroke-width:1.25742;stroke-linecap:round;stroke-linejoin:round;stroke-miterlimit:2;stroke-opacity:1" transform="matrix(.10535 0 0 .10507 48.78 -7.535)"/></g><path d="M29.604 83.86s-2.056-37.38 7.475-54.896c-12.16 11.171-9.833 54.64-9.833 54.64z" style="display:inline;fill:#668450;fill-opacity:1;stroke:#3b4c2e;stroke-width:.132292;stroke-linecap:round;stroke-linejoin:round;stroke-miterlimit:2;stroke-opacity:1"/><path d="M22.788 83.51s2.056-37.38-7.474-54.897c12.159 11.171 9.832 54.64 9.832 54.64z" style="display:inline;fill:#668450;fill-opacity:1;stroke:#3b4c2e;stroke-width:.132292;stroke-linecap:round;stroke-linejoin:round;stroke-miterlimit:2;stroke-opacity:1"/><path d="M20.4 88.708S19.139 51.293 8.095 34.689c13.1 10.05 14.633 53.555 14.633 53.555ZM29.348 82.454s-.426-30.387 9.86-44.266C26.572 46.83 27.002 82.166 27.002 82.166zM40.81 89.04s-1.278-28.01 7.122-41.482C37.36 56.35 38.79 88.925 38.79 88.925z" style="display:inline;fill:#668450;fill-opacity:1;stroke:#3b4c2e;stroke-width:.132292;stroke-linecap:round;stroke-linejoin:round;stroke-miterlimit:2;stroke-opacity:1"/><path d="M38.991 75.648s2.26-27.986 13.73-39.915c-13.348 6.92-16.04 39.458-16.04 39.458z" style="display:inline;fill:#668450;fill-opacity:1;stroke:#3b4c2e;stroke-width:.132292;stroke-linecap:round;stroke-linejoin:round;stroke-miterlimit:2;stroke-opacity:1"/><path d="M37.09 80.541c-1.444-8.549 7.178-43.375 7.923-43.7.155.771-5.743 29.575-6.008 43.988z" style="display:inline;fill:#668450;fill-opacity:1;stroke:#3b4c2e;stroke-width:.132292;stroke-linecap:round;stroke-linejoin:round;stroke-miterlimit:2;stroke-opacity:1"/><g style="display:inline;fill:#668450;fill-opacity:1;stroke:#3b4c2e;stroke-width:.974289;stroke-opacity:1"><path d="m-73.635 70.178 1.18-.177s-1.431-6.076-7.158-9.735c0 0-2.348-1.1-2.64-.763 6.48 3.136 8.618 10.675 8.618 10.675" style="fill:#668450;fill-opacity:1;stroke:#3b4c2e;stroke-width:.128891;stroke-linecap:round;stroke-linejoin:round;stroke-miterlimit:2;stroke-opacity:1" transform="matrix(-.90106 .28716 .23667 1.09373 -49.577 16.197)"/><path d="M-79.613 60.266c-13.844-7.092-13.87 15.111-13.87 15.111.71-8.335 5.382-18.842 13.87-15.11" style="fill:#668450;fill-opacity:1;stroke:#3b4c2e;stroke-width:.128891;stroke-linecap:round;stroke-linejoin:round;stroke-miterlimit:2;stroke-opacity:1" transform="matrix(-.90106 .28716 .23667 1.09373 -49.577 16.197)"/></g><g style="display:inline;fill:#668450;fill-opacity:1;stroke:#3b4c2e;stroke-width:.974289;stroke-opacity:1"><path d="m-73.635 70.178 1.18-.177s-1.431-6.076-7.158-9.735c0 0-2.348-1.1-2.64-.763 6.48 3.136 8.618 10.675 8.618 10.675" style="fill:#668450;fill-opacity:1;stroke:#3b4c2e;stroke-width:.128891;stroke-linecap:round;stroke-linejoin:round;stroke-miterlimit:2;stroke-opacity:1" transform="matrix(.90106 .28716 -.23667 1.09373 102.766 10.63)"/><path d="M-79.613 60.266c-13.844-7.092-13.87 15.111-13.87 15.111.71-8.335 5.382-18.842 13.87-15.11" style="fill:#668450;fill-opacity:1;stroke:#3b4c2e;stroke-width:.128891;stroke-linecap:round;stroke-linejoin:round;stroke-miterlimit:2;stroke-opacity:1" transform="matrix(.90106 .28716 -.23667 1.09373 102.766 10.63)"/></g><g style="display:inline"><g style="display:inline;stroke-width:1.02368"><path d="M21.755 5.27c.856 2.433 1.878 59.942 1.878 59.942l.618-.015s-.974-60.31-2.496-59.927" style="fill:#506e00;fill-opacity:1;stroke:#374b00;stroke-width:.135426;stroke-linecap:round;stroke-linejoin:round;stroke-miterlimit:2;stroke-opacity:1" transform="matrix(.96562 .1473 -.14727 .96578 17.39 17.911)"/><g style="display:inline;stroke-width:10.5652"><path d="m-248.268 136.955 1.213-16.838c8.328-20.393-32.591-12.84-14.136 1.918l6.874 16.147z" style="display:inline;fill:#bfb5e6;fill-opacity:1;stroke:#7e6acd;stroke-width:1.39768;stroke-linecap:round;stroke-linejoin:round;stroke-miterlimit:2;stroke-opacity:1" transform="matrix(-.09474 .00262 .0027 .09449 13.713 15.118)"/><path d="M-255.326 133.74c-13.234-.764-20.996-61.399-20.996-61.399.89.955 2.418 1.655 3.627 2.354.19-.763 1.717-1.908 1.717-1.908 2.438 4.661 17.243 7.026 7.66 39.123.35 4.17 4.425 15.947 7.992 21.83" style="fill:#8b78b6;fill-opacity:1;stroke:#7e6acd;stroke-width:1.39768;stroke-linecap:round;stroke-linejoin:round;stroke-miterlimit:2;stroke-opacity:1" transform="matrix(.0937 .01429 -.01425 .09344 63.397 18.725)"/><path d="M-253.29 136.408s-9.898-40.58-6.749-51.378c2.88-.63 6.389 2.97 6.838-.9 10.258 6.119 12.867 21.235 2.61 26.274-3.374 1.689-2.7 26.004-2.7 26.004" style="display:inline;fill:#8b78b6;fill-opacity:1;stroke:#7e6acd;stroke-width:1.39768;stroke-linecap:round;stroke-linejoin:round;stroke-miterlimit:2;stroke-opacity:1" transform="matrix(.0937 .01429 -.01425 .09344 63.397 18.725)"/><g style="display:inline;stroke-width:10.5652"><path d="M-249.558 141.579c21.886-41.738 55.556 10.667 63.094 10.534.03-26.86-5.868-38.953-33.866-35.619-13.732 2.04-27.173 7.434-29.228 25.085" style="display:inline;fill:#8b78b6;fill-opacity:1;stroke:#644f93;stroke-width:1.39768;stroke-linecap:round;stroke-linejoin:round;stroke-miterlimit:2;stroke-opacity:1" transform="matrix(-.09474 .00262 .0027 .09449 13.713 15.118)"/><path d="M-228.332 125.445c17.845-.254 39.07 26.373 42.039 25.473 3.934-35.695-28.272-46.846-42.04-25.473" style="display:inline;fill:#bfb5e6;fill-opacity:1;stroke:#7e6acd;stroke-width:1.39768;stroke-linecap:round;stroke-linejoin:round;stroke-miterlimit:2;stroke-opacity:1" transform="matrix(-.09474 .00262 .0027 .09449 13.713 15.118)"/><path d="M-223.28 121.883s10.086-1.498 18.926 9.427c0 0-15.223-4.814-23.978-5.865z" style="fill:#998d5b;fill-opacity:1;stroke:none;stroke-width:1.39768;stroke-linecap:round;stroke-linejoin:round;stroke-miterlimit:2;stroke-opacity:1" transform="matrix(-.09474 .00262 .0027 .09449 13.713 15.118)"/><path d="M-228.332 125.445c24.471 6.725 37.369 27.298 41.868 26.668 6.182-6.361-14.03-25.198-41.868-26.668" style="fill:#8b78b6;fill-opacity:1;stroke:#7e6acd;stroke-width:1.39768;stroke-linecap:round;stroke-linejoin:round;stroke-miterlimit:2;stroke-opacity:1" transform="matrix(-.09474 .00262 .0027 .09449 13.713 15.118)"/><path d="M-228.74 113.004c6.27 5.59.408 12.44.408 12.44 7.13-5.19 21.035-13.082-.407-12.44" style="display:inline;fill:#bfb5e6;fill-opacity:1;stroke:#7e6acd;stroke-width:1.39768;stroke-linecap:round;stroke-linejoin:round;stroke-miterlimit:2;stroke-opacity:1" transform="matrix(-.09474 .00262 .0027 .09449 13.713 15.118)"/></g><path d="M-250.411 135.688s8.638-15.116 8.458-25.914c.45-9.088-3.06-28.883 13.587-29.783 3.329-1.71-9.358 47.689-22.045 55.697" style="fill:#8b78b6;fill-opacity:1;stroke:#7e6acd;stroke-width:1.39768;stroke-linecap:round;stroke-linejoin:round;stroke-miterlimit:2;stroke-opacity:1" transform="matrix(.0937 .01429 -.01425 .09344 63.397 18.725)"/><g style="display:inline;stroke-width:10.5652"><path d="M-252.972 138.447c21.887-41.737 59.141 12.604 66.679 12.47 8.31-12.583-6.039-37.757-34.037-34.423-13.732 2.04-27.021-2.423-32.642 21.953" style="display:inline;fill:#8b78b6;fill-opacity:1;stroke:#644f93;stroke-width:1.39768;stroke-linecap:round;stroke-linejoin:round;stroke-miterlimit:2;stroke-opacity:1" transform="matrix(.0937 .01429 -.01425 .09344 63.397 18.725)"/><path d="M-227.748 123.136c16.376-1.8 38.486 28.682 41.455 27.782 14.037-20.335-27.6-49.17-41.455-27.782" style="display:inline;fill:#bfb5e6;fill-opacity:1;stroke:#7e6acd;stroke-width:1.39768;stroke-linecap:round;stroke-linejoin:round;stroke-miterlimit:2;stroke-opacity:1" transform="matrix(.0937 .01429 -.01425 .09344 63.397 18.725)"/><path d="M-227.085 117.134c1.17 2.969-.663 6.002-.663 6.002s5.74-3.967 7.63-6.666c6.386-12.714 1.299-10.604-2.889-6.173-2.125 2.248-4.584.085-4.078 6.837" style="display:inline;fill:#bfb5e6;fill-opacity:1;stroke:#7e6acd;stroke-width:1.39768;stroke-linecap:round;stroke-linejoin:round;stroke-miterlimit:2;stroke-opacity:1" transform="matrix(.0937 .01429 -.01425 .09344 63.397 18.725)"/><path d="M-227.748 123.136c14.756 2.07 36.956 28.412 41.455 27.782 6.966-12.63-24.188-45.012-41.455-27.782" style="fill:#bfb5e6;fill-opacity:1;stroke:#7e6acd;stroke-width:1.39768;stroke-linecap:round;stroke-linejoin:round;stroke-miterlimit:2;stroke-opacity:1" transform="matrix(.0937 .01429 -.01425 .09344 63.397 18.725)"/></g><path d="m-250.524 153.969-2.857.018c-.064-13.552-12.061-28.781-21.16-29.863 8.717-4.517 19.215 9.615 19.215 9.615s.255-8.907 1.018-9.416c1.209.445 3.436 7.828 3.436 7.828 6.044-16.288 21.216-9.32 21.216-9.32s-22.332 1.934-20.868 31.138" style="display:inline;fill:#506e00;fill-opacity:1;stroke:#374b00;stroke-width:1.39768;stroke-linecap:round;stroke-linejoin:round;stroke-miterlimit:2;stroke-opacity:1" transform="matrix(.0937 .01429 -.01425 .09344 63.397 18.725)"/></g></g><g style="stroke-width:1.02368"><path d="M21.755 5.27c.856 2.433 1.878 59.942 1.878 59.942l.618-.015s-.974-60.31-2.496-59.927" style="fill:#506e00;fill-opacity:1;stroke:#374b00;stroke-width:.135426;stroke-linecap:round;stroke-linejoin:round;stroke-miterlimit:2;stroke-opacity:1" transform="matrix(-.96562 .1473 .14727 .96578 35.602 11.892)"/><g style="display:inline;stroke-width:10.5652"><path d="m-248.268 136.955 1.213-16.838c8.328-20.393-32.591-12.84-14.136 1.918l6.874 16.147z" style="display:inline;fill:#bfb5e6;fill-opacity:1;stroke:#7e6acd;stroke-width:1.39768;stroke-linecap:round;stroke-linejoin:round;stroke-miterlimit:2;stroke-opacity:1" transform="matrix(.09474 .00262 -.0027 .09449 39.28 9.1)"/><path d="M-255.326 133.74c-13.234-.764-20.996-61.399-20.996-61.399.89.955 2.418 1.655 3.627 2.354.19-.763 1.717-1.908 1.717-1.908 2.438 4.661 17.243 7.026 7.66 39.123.35 4.17 4.425 15.947 7.992 21.83" style="fill:#8b78b6;fill-opacity:1;stroke:#7e6acd;stroke-width:1.39768;stroke-linecap:round;stroke-linejoin:round;stroke-miterlimit:2;stroke-opacity:1" transform="matrix(-.0937 .01429 .01425 .09344 -10.405 12.706)"/><path d="M-253.29 136.408s-9.898-40.58-6.749-51.378c2.88-.63 6.389 2.97 6.838-.9 10.258 6.119 12.867 21.235 2.61 26.274-3.374 1.689-2.7 26.004-2.7 26.004" style="display:inline;fill:#8b78b6;fill-opacity:1;stroke:#7e6acd;stroke-width:1.39768;stroke-linecap:round;stroke-linejoin:round;stroke-miterlimit:2;stroke-opacity:1" transform="matrix(-.0937 .01429 .01425 .09344 -10.405 12.706)"/><g style="display:inline;stroke-width:10.5652"><path d="M-249.558 141.579c21.886-41.738 55.556 10.667 63.094 10.534.03-26.86-5.868-38.953-33.866-35.619-13.732 2.04-27.173 7.434-29.228 25.085" style="display:inline;fill:#8b78b6;fill-opacity:1;stroke:#644f93;stroke-width:1.39768;stroke-linecap:round;stroke-linejoin:round;stroke-miterlimit:2;stroke-opacity:1" transform="matrix(.09474 .00262 -.0027 .09449 39.28 9.1)"/><path d="M-228.332 125.445c17.845-.254 39.07 26.373 42.039 25.473 3.934-35.695-28.272-46.846-42.04-25.473" style="display:inline;fill:#bfb5e6;fill-opacity:1;stroke:#7e6acd;stroke-width:1.39768;stroke-linecap:round;stroke-linejoin:round;stroke-miterlimit:2;stroke-opacity:1" transform="matrix(.09474 .00262 -.0027 .09449 39.28 9.1)"/><path d="M-223.28 121.883s10.086-1.498 18.926 9.427c0 0-15.223-4.814-23.978-5.865z" style="fill:#998d5b;fill-opacity:1;stroke:none;stroke-width:1.39768;stroke-linecap:round;stroke-linejoin:round;stroke-miterlimit:2;stroke-opacity:1" transform="matrix(.09474 .00262 -.0027 .09449 39.28 9.1)"/><path d="M-228.332 125.445c24.471 6.725 37.369 27.298 41.868 26.668 6.182-6.361-14.03-25.198-41.868-26.668" style="fill:#8b78b6;fill-opacity:1;stroke:#7e6acd;stroke-width:1.39768;stroke-linecap:round;stroke-linejoin:round;stroke-miterlimit:2;stroke-opacity:1" transform="matrix(.09474 .00262 -.0027 .09449 39.28 9.1)"/><path d="M-228.74 113.004c6.27 5.59.408 12.44.408 12.44 7.13-5.19 21.035-13.082-.407-12.44" style="display:inline;fill:#bfb5e6;fill-opacity:1;stroke:#7e6acd;stroke-width:1.39768;stroke-linecap:round;stroke-linejoin:round;stroke-miterlimit:2;stroke-opacity:1" transform="matrix(.09474 .00262 -.0027 .09449 39.28 9.1)"/></g><path d="M-250.411 135.688s8.638-15.116 8.458-25.914c.45-9.088-3.06-28.883 13.587-29.783 3.329-1.71-9.358 47.689-22.045 55.697" style="fill:#8b78b6;fill-opacity:1;stroke:#7e6acd;stroke-width:1.39768;stroke-linecap:round;stroke-linejoin:round;stroke-miterlimit:2;stroke-opacity:1" transform="matrix(-.0937 .01429 .01425 .09344 -10.405 12.706)"/><g style="display:inline;stroke-width:10.5652"><path d="M-252.972 138.447c21.887-41.737 59.141 12.604 66.679 12.47 8.31-12.583-6.039-37.757-34.037-34.423-13.732 2.04-27.021-2.423-32.642 21.953" style="display:inline;fill:#8b78b6;fill-opacity:1;stroke:#644f93;stroke-width:1.39768;stroke-linecap:round;stroke-linejoin:round;stroke-miterlimit:2;stroke-opacity:1" transform="matrix(-.0937 .01429 .01425 .09344 -10.405 12.706)"/><path d="M-227.748 123.136c16.376-1.8 38.486 28.682 41.455 27.782 14.037-20.335-27.6-49.17-41.455-27.782" style="display:inline;fill:#bfb5e6;fill-opacity:1;stroke:#7e6acd;stroke-width:1.39768;stroke-linecap:round;stroke-linejoin:round;stroke-miterlimit:2;stroke-opacity:1" transform="matrix(-.0937 .01429 .01425 .09344 -10.405 12.706)"/><path d="M-227.085 117.134c1.17 2.969-.663 6.002-.663 6.002s5.74-3.967 7.63-6.666c6.386-12.714 1.299-10.604-2.889-6.173-2.125 2.248-4.584.085-4.078 6.837" style="display:inline;fill:#bfb5e6;fill-opacity:1;stroke:#7e6acd;stroke-width:1.39768;stroke-linecap:round;stroke-linejoin:round;stroke-miterlimit:2;stroke-opacity:1" transform="matrix(-.0937 .01429 .01425 .09344 -10.405 12.706)"/><path d="M-227.748 123.136c14.756 2.07 36.956 28.412 41.455 27.782 6.966-12.63-24.188-45.012-41.455-27.782" style="fill:#bfb5e6;fill-opacity:1;stroke:#7e6acd;stroke-width:1.39768;stroke-linecap:round;stroke-linejoin:round;stroke-miterlimit:2;stroke-opacity:1" transform="matrix(-.0937 .01429 .01425 .09344 -10.405 12.706)"/></g><path d="m-250.524 153.969-2.857.018c-.064-13.552-12.061-28.781-21.16-29.863 8.717-4.517 19.215 9.615 19.215 9.615s.255-8.907 1.018-9.416c1.209.445 3.436 7.828 3.436 7.828 6.044-16.288 21.216-9.32 21.216-9.32s-22.332 1.934-20.868 31.138" style="display:inline;fill:#506e00;fill-opacity:1;stroke:#374b00;stroke-width:1.39768;stroke-linecap:round;stroke-linejoin:round;stroke-miterlimit:2;stroke-opacity:1" transform="matrix(-.0937 .01429 .01425 .09344 -10.405 12.706)"/></g></g><g style="fill:#668450;fill-opacity:1;stroke:#3b4c2e;stroke-width:.930227;stroke-opacity:1"><path d="M-71.437 68.792s1.273-16.988 5.09-18.833l2.1.064c-4.454 2.608-5.472 19.214-5.472 19.214z" style="display:inline;fill:#668450;fill-opacity:1;stroke:#3b4c2e;stroke-width:.123062;stroke-linecap:round;stroke-linejoin:round;stroke-miterlimit:2;stroke-opacity:1" transform="matrix(1.07533 -.00103 .00103 1.07468 116.566 5.568)"/><path d="m-66.347 49.959 2.1.064c2.52 1.034.397 17.782.397 17.782s.022-16.676-2.497-17.846" style="fill:#668450;fill-opacity:1;stroke:#3b4c2e;stroke-width:.123062;stroke-linecap:round;stroke-linejoin:round;stroke-miterlimit:2;stroke-opacity:1" transform="matrix(1.07533 -.00103 .00103 1.07468 116.566 5.568)"/></g><g style="fill:#668450;fill-opacity:1;stroke:#3b4c2e;stroke-width:.930227;stroke-opacity:1"><path d="M-71.437 68.792s1.273-16.988 5.09-18.833l2.1.064c-4.454 2.608-5.472 19.214-5.472 19.214z" style="display:inline;fill:#668450;fill-opacity:1;stroke:#3b4c2e;stroke-width:.123062;stroke-linecap:round;stroke-linejoin:round;stroke-miterlimit:2;stroke-opacity:1" transform="matrix(1.07533 -.00103 .00103 1.07468 111.33 8.959)"/><path d="m-66.347 49.959 2.1.064c2.52 1.034.396 18.611.396 18.611s.023-17.505-2.496-18.675" style="fill:#668450;fill-opacity:1;stroke:#3b4c2e;stroke-width:.123062;stroke-linecap:round;stroke-linejoin:round;stroke-miterlimit:2;stroke-opacity:1" transform="matrix(1.07533 -.00103 .00103 1.07468 111.33 8.959)"/></g><g style="fill:#668450;fill-opacity:1;stroke:#3b4c2e;stroke-width:.83564;stroke-opacity:1"><path d="M-71.437 68.792s1.273-16.988 5.09-18.833l2.1.064c-4.454 2.608-5.472 19.214-5.472 19.214z" style="display:inline;fill:#668450;fill-opacity:1;stroke:#3b4c2e;stroke-width:.110549;stroke-linecap:round;stroke-linejoin:round;stroke-miterlimit:2;stroke-opacity:1" transform="matrix(1.32304 -.1589 .1286 1.06696 118.079 -2.67)"/><path d="m-66.347 49.959 2.1.064c2.52 1.034.398 16.006.398 16.006s.021-14.9-2.498-16.07" style="fill:#668450;fill-opacity:1;stroke:#3b4c2e;stroke-width:.110549;stroke-linecap:round;stroke-linejoin:round;stroke-miterlimit:2;stroke-opacity:1" transform="matrix(1.32304 -.1589 .1286 1.06696 118.079 -2.67)"/></g><g style="fill:#668450;fill-opacity:1;stroke:#3b4c2e;stroke-width:.930227;stroke-opacity:1"><path d="M-71.437 68.792s1.273-16.988 5.09-18.833l2.1.064c-4.454 2.608-5.472 19.214-5.472 19.214z" style="display:inline;fill:#668450;fill-opacity:1;stroke:#3b4c2e;stroke-width:.123062;stroke-linecap:round;stroke-linejoin:round;stroke-miterlimit:2;stroke-opacity:1" transform="rotate(-172.673 -26.188 .31)scale(1.07533 -1.07468)"/><path d="m-66.347 49.959 2.1.064c2.52 1.034.396 18.611.396 18.611s.023-17.505-2.496-18.675" style="fill:#668450;fill-opacity:1;stroke:#3b4c2e;stroke-width:.123062;stroke-linecap:round;stroke-linejoin:round;stroke-miterlimit:2;stroke-opacity:1" transform="rotate(-172.673 -26.188 .31)scale(1.07533 -1.07468)"/></g><g style="fill:#668450;fill-opacity:1;stroke:#3b4c2e;stroke-width:.930227;stroke-opacity:1"><path d="M-71.437 68.792s1.273-16.988 5.09-18.833l2.1.064c-4.454 2.608-5.472 19.214-5.472 19.214z" style="display:inline;fill:#668450;fill-opacity:1;stroke:#3b4c2e;stroke-width:.123062;stroke-linecap:round;stroke-linejoin:round;stroke-miterlimit:2;stroke-opacity:1" transform="rotate(7.935 8.368 -310.373)scale(-1.07533 1.07468)"/><path d="m-66.347 49.959 2.1.064c2.52 1.034.396 18.611.396 18.611s.023-17.505-2.496-18.675" style="fill:#668450;fill-opacity:1;stroke:#3b4c2e;stroke-width:.123062;stroke-linecap:round;stroke-linejoin:round;stroke-miterlimit:2;stroke-opacity:1" transform="rotate(7.935 8.368 -310.373)scale(-1.07533 1.07468)"/></g><g style="fill:#668450;fill-opacity:1;stroke:#3b4c2e;stroke-width:.930227;stroke-opacity:1"><path d="M-71.437 68.792s1.273-16.988 5.09-18.833l2.1.064c-4.454 2.608-5.472 19.214-5.472 19.214z" style="display:inline;fill:#668450;fill-opacity:1;stroke:#3b4c2e;stroke-width:.123062;stroke-linecap:round;stroke-linejoin:round;stroke-miterlimit:2;stroke-opacity:1" transform="rotate(14.345 33.166 -99.651)scale(-1.07533 1.07468)"/><path d="m-66.347 49.959 2.1.064c2.52 1.034.396 18.611.396 18.611s.023-17.505-2.496-18.675" style="fill:#668450;fill-opacity:1;stroke:#3b4c2e;stroke-width:.123062;stroke-linecap:round;stroke-linejoin:round;stroke-miterlimit:2;stroke-opacity:1" transform="rotate(14.345 33.166 -99.651)scale(-1.07533 1.07468)"/></g><path d="M21.646 62.335c.085-.158 1.398.059 2 .458-1.833 3.713-4.378 15.337-4.378 15.337s-1.408-10.243 2.378-15.795M25.927 55.19c-.1-.174-1.556.113-2.215.578 2.174 4.072 5.416 16.93 5.416 16.93s1.216-11.457-3.2-17.509" style="display:inline;fill:#668450;fill-opacity:1;stroke:#3b4c2e;stroke-width:.132292;stroke-linecap:round;stroke-linejoin:round;stroke-miterlimit:2;stroke-opacity:1"/></g></svg>