<svg xmlns="http://www.w3.org/2000/svg" xmlns:xlink="http://www.w3.org/1999/xlink" xml:space="preserve" width="149.817" height="200.314" viewBox="0 0 39.639 53"><path d="m20.621 22.97-.087-.026a.1.1 0 0 0-.06.005c-.47.173-.714.566-.809 1.044s-.053 1.049.033 1.631c.087.583.219 1.178.314 1.697.058.8-.291.31-.291.31-.256-.445-.572-.996-.925-1.518s-.743-1.017-1.158-1.35-.87-.508-1.318-.35a.1.1 0 0 0-.05.039.73.73 0 0 0-.094.589c.048.206.162.414.318.628.313.427.799.874 1.311 1.296.513.423 1.054.82 1.47 1.142.295.242.023.098.023.098-.404-.236-.908-.534-1.428-.795-.52-.26-1.054-.483-1.53-.57-.475-.086-.91-.03-1.173.297a.1.1 0 0 0-.023.065c.005.208.09.394.227.547s.326.277.546.383c.44.213 1.012.352 1.593.454.58.102 1.17.167 1.635.22.74.072.047.278.047.278-.412.11-.926.235-1.425.405-.5.17-.986.386-1.35.688-.363.3-.604.698-.58 1.2a.1.1 0 0 0 .045.08c.442.306.898.342 1.323.21.425-.134.823-.427 1.194-.77.372-.341.718-.735 1.029-1.077 0 0 .615-.447.41.144-.134.383-.29.799-.386 1.208-.097.41-.135.814-.014 1.175.122.36.41.663.916.85a.1.1 0 0 0 .061.004c.41-.112.647-.362.735-.678s.042-.689-.05-1.085c0 0-.45-1.625.513-.008.252.418.517.79.809 1.018a1 1 0 0 0 .464.217.74.74 0 0 0 .517-.129c.31-.317.35-.685.207-1.02-.144-.335-.448-.649-.81-.954-1.874-1.5-.649-.683.5-.084.53.27 1.056.499 1.526.59s.901.04 1.186-.275a.1.1 0 0 0 .025-.055.9.9 0 0 0-.142-.631 1.44 1.44 0 0 0-.518-.446c-.438-.242-1.034-.393-1.659-.501 0 0-2.242-.23.163-.127.644.024 1.27.018 1.775-.082.252-.05.474-.122.654-.23a.85.85 0 0 0 .382-.446.1.1 0 0 0-.004-.076c-.246-.518-.725-.756-1.283-.812s-1.205.058-1.846.233-1.277.41-1.803.609c-.429.133-.208-.055-.208-.055.46-.298 1.05-.678 1.613-1.094s1.1-.869 1.462-1.324a2.2 2.2 0 0 0 .391-.684.96.96 0 0 0-.014-.675.1.1 0 0 0-.049-.053c-.465-.224-.96-.085-1.418.235s-.898.822-1.31 1.365c-.411.543-.792 1.127-1.115 1.609-.454.674-.363-.182-.363-.182.143-.538.323-1.16.45-1.765.126-.604.202-1.192.13-1.672-.067-.45-.284-.818-.704-.964z" style="baseline-shift:baseline;display:inline;overflow:visible;vector-effect:none;fill:#3b5b25;fill-opacity:1;stroke-width:1;stroke-linecap:round;stroke-linejoin:round;stroke-miterlimit:2;stop-color:#000" transform="translate(8.814 4.634)"/><g style="stroke-width:1.45161" transform="matrix(-.68693 0 0 .69086 -30.519 -45.298)"><use xlink:href="#a" style="stroke-width:1.45161" transform="rotate(-4.786 -138.17 100.607)"/><path d="M-89.038 84.163c2.05-1.166 2.93 1.117 2.755 1.474-.236.48-2.597.82-2.755-1.474" style="display:inline;fill:#8b9ee0;fill-opacity:1;stroke:#4e6bd0;stroke-width:.189259;stroke-linecap:round;stroke-linejoin:round;stroke-miterlimit:2;stroke-dasharray:none;stroke-opacity:1"/><use xlink:href="#b" style="stroke-width:1.45161" transform="rotate(5.718 2.002 89.275)"/><path d="M-86.613 68.714c-.797.985 1.812 81.795 1.812 81.795h.64s-1.818-81.48-2.452-81.796z" style="fill:#756d42;fill-opacity:1;stroke:none;stroke-width:.288052;stroke-linecap:round;stroke-linejoin:round;stroke-miterlimit:2;stroke-opacity:1"/><path id="c" d="M-82.875 100.18c-2.227-.827-2.686 1.64-2.45 1.972.319.446 2.705.382 2.45-1.972" style="display:inline;fill:#5d4591;fill-opacity:1;stroke:#3f2f62;stroke-width:.192036;stroke-linecap:round;stroke-linejoin:round;stroke-miterlimit:2;stroke-dasharray:none;stroke-opacity:1"/><use xlink:href="#c" style="stroke-width:1.45161" transform="rotate(-3.68 -150.345 101.48)"/><use xlink:href="#c" style="stroke-width:1.45161" transform="rotate(-.174 -3045.825 -93.842)"/><use xlink:href="#c" style="stroke-width:1.45161" transform="matrix(1.0003 -.01576 .0129 .9995 -1.604 -14.153)"/><use xlink:href="#c" style="stroke-width:1.45161" transform="rotate(15.607 -19.586 91.007)"/><path id="a" d="M-88.743 93.774c2.226-.827 2.686 1.64 2.45 1.972-.319.446-2.705.382-2.45-1.972" style="display:inline;fill:#5d4591;fill-opacity:1;stroke:#3f2f62;stroke-width:.192036;stroke-linecap:round;stroke-linejoin:round;stroke-miterlimit:2;stroke-dasharray:none;stroke-opacity:1"/><use xlink:href="#a" style="stroke-width:1.45161" transform="rotate(12.491 -103.7 94.834)"/><use xlink:href="#a" style="stroke-width:1.45161" transform="rotate(-14.65 -118.766 94.893)"/><use xlink:href="#a" style="stroke-width:1.45161" transform="rotate(-4.842 -3.98 110.19)"/><path id="b" d="M-82.965 93.432c-2.227-.828-2.686 1.64-2.45 1.972.319.445 2.705.382 2.45-1.972" style="display:inline;fill:#8b9ee0;fill-opacity:1;stroke:#4e6bd0;stroke-width:.192036;stroke-linecap:round;stroke-linejoin:round;stroke-miterlimit:2;stroke-dasharray:none;stroke-opacity:1"/><use xlink:href="#b" style="stroke-width:1.45161" transform="rotate(-13.593 -101.633 95.322)"/><use xlink:href="#b" style="stroke-width:1.45161" transform="rotate(-12.152 -162.464 90.268)"/><use xlink:href="#b" style="stroke-width:1.45161" transform="rotate(9.996 -6.028 86.71)"/><path d="M-88 91.265c2.344-.389 2.326 2.122 2.03 2.402-.397.377-2.727-.14-2.03-2.402M-88.359 87.124c2.239-.794 2.661 1.68 2.42 2.009-.325.44-2.71.34-2.42-2.01M-89.791 80.119c2.08-1.147 2.899 1.226 2.714 1.59-.25.487-2.619.776-2.714-1.59M-88.517 99.511c2.157-.996 2.806 1.429 2.595 1.778-.283.468-2.666.59-2.595-1.778M-88.427 103.038c1.939-1.373 3.019.893 2.875 1.275-.193.512-2.514 1.065-2.875-1.275M-89.007 96.658c1.844-1.499 3.071.69 2.954 1.08-.159.525-2.439 1.23-2.954-1.08" style="display:inline;fill:#8b9ee0;fill-opacity:1;stroke:#4e6bd0;stroke-width:.192036;stroke-linecap:round;stroke-linejoin:round;stroke-miterlimit:2;stroke-dasharray:none;stroke-opacity:1"/><use xlink:href="#b" style="stroke-width:1.45161" transform="rotate(-17.61 -70.953 94.012)"/><use xlink:href="#b" style="stroke-width:1.45161" transform="rotate(11.465 -126.74 102.114)"/><path d="M-84.657 79.226c-2.365-.215-2.162 2.287-1.847 2.545.424.347 2.71-.34 1.847-2.545M-83.643 75.644c-1.98-1.311-2.989.988-2.833 1.365.208.506 2.546.986 2.833-1.365M-84.365 70.704c-2.328-.475-2.403 2.034-2.118 2.325.383.392 2.73-.037 2.118-2.325" style="display:inline;fill:#b9cef6;fill-opacity:1;stroke:#96b6f1;stroke-width:.192036;stroke-linecap:round;stroke-linejoin:round;stroke-miterlimit:2;stroke-dasharray:none;stroke-opacity:1"/><path d="M-83.86 72.916c-2.212-.865-2.713 1.595-2.482 1.93.31.451 2.697.428 2.483-1.93M-86.695 67.459c-1.727 1.133-.217 2.73.139 2.736.478.007 1.657-1.698-.139-2.736" style="display:inline;fill:#b9cef6;fill-opacity:1;stroke:#96b6f1;stroke-width:.192036;stroke-linecap:round;stroke-linejoin:round;stroke-miterlimit:2;stroke-dasharray:none;stroke-opacity:1"/><path id="d" d="M-89.546 77.685c2.227-.827 2.686 1.641 2.45 1.973-.318.445-2.704.381-2.45-1.973" style="display:inline;fill:#b9cef6;fill-opacity:1;stroke:#96b6f1;stroke-width:.192036;stroke-linecap:round;stroke-linejoin:round;stroke-miterlimit:2;stroke-dasharray:none;stroke-opacity:1"/><use xlink:href="#d" style="stroke-width:1.45161" transform="rotate(-13.222 -109.15 76.286)"/><use xlink:href="#d" style="stroke-width:1.45161" transform="rotate(8.146 -34.308 77.885)"/><use xlink:href="#d" style="stroke-width:1.45161" transform="rotate(-9.945 -64.97 79.278)"/><path d="M-89.583 75.902c1.922-1.39 3.03.865 2.891 1.248-.186.513-2.502 1.088-2.891-1.248" style="display:inline;fill:#b9cef6;fill-opacity:1;stroke:#96b6f1;stroke-width:.192036;stroke-linecap:round;stroke-linejoin:round;stroke-miterlimit:2;stroke-dasharray:none;stroke-opacity:1"/></g><path d="M-4.086 37.492a2 2 0 0 0-.14.038.16.16 0 0 0-.081.058c-.496.635-.499 1.381-.224 2.117s.815 1.484 1.428 2.21c.612.726 1.297 1.43 1.867 2.063.757 1.047-.137.67-.137.67-.727-.393-1.627-.881-2.554-1.298s-1.88-.765-2.732-.87c-.85-.106-1.624.038-2.105.636a.16.16 0 0 0-.037.095c-.013.343.13.645.371.887.24.242.574.432.969.593.79.321 1.835.522 2.896.668 1.062.145 2.14.231 2.985.32.61.083.113.117.113.117-.753.018-1.697.035-2.63.118-.934.083-1.858.23-2.583.515-.725.284-1.276.729-1.358 1.4a.16.16 0 0 0 .023.11c.183.281.458.463.775.557.318.094.682.104 1.073.063.783-.08 1.686-.374 2.57-.726s1.746-.762 2.43-1.085c1.075-.526.3.342.3.342-.473.501-1.072 1.107-1.612 1.764s-1.025 1.365-1.268 2.086c-.244.722-.238 1.47.22 2.14.03.042.077.069.129.071.867.045 1.522-.291 1.993-.834.47-.544.768-1.283.987-2.066.22-.784.361-1.618.498-2.35 0 0 .465-1.134.684-.15.142.638.28 1.341.495 1.985.214.643.504 1.231.976 1.622s1.123.564 1.976.39a.16.16 0 0 0 .088-.045c.468-.502.58-1.045.433-1.553s-.525-.98-.986-1.447c0 0-1.994-1.847.695-.444.7.36 1.379.644 1.973.71.297.033.576.012.821-.095a1.19 1.19 0 0 0 .6-.615c.157-.698-.1-1.237-.581-1.575-.48-.338-1.163-.51-1.92-.622-3.84-.47-1.468-.388.615-.538.956-.08 1.872-.211 2.594-.484s1.27-.71 1.395-1.383a.16.16 0 0 0-.013-.097 1.44 1.44 0 0 0-.73-.745c-.315-.145-.684-.192-1.087-.173-.806.04-1.753.337-2.701.718 0 0-3.27 1.584.115-.312.904-.512 1.759-1.052 2.367-1.616.304-.282.547-.57.701-.87.155-.3.219-.62.147-.936a.16.16 0 0 0-.07-.1c-.776-.502-1.634-.423-2.448-.027-.813.396-1.603 1.1-2.335 1.883-.731.783-1.403 1.646-1.958 2.363-.475.546-.332.101-.332.101.38-.8.867-1.82 1.286-2.868s.773-2.123.885-3.054c.056-.465.052-.895-.043-1.27-.094-.375-.285-.695-.592-.914a.16.16 0 0 0-.111-.031c-.829.086-1.39.696-1.746 1.524-.357.827-.537 1.888-.641 2.982C.527 41.308.5 42.43.464 43.367c-.05 1.31-.652.057-.652.057-.259-.859-.54-1.864-.878-2.8-.339-.938-.732-1.81-1.238-2.407-.473-.56-1.082-.881-1.782-.725zM16.705 36.853a2 2 0 0 0-.14.038.16.16 0 0 0-.081.058c-.496.635-.499 1.381-.224 2.117s.816 1.484 1.428 2.21 1.297 1.43 1.867 2.063c.757 1.047-.137.67-.137.67-.727-.393-1.627-.881-2.554-1.298s-1.88-.765-2.732-.87c-.85-.106-1.624.038-2.105.636a.16.16 0 0 0-.037.095c-.013.343.131.645.371.887s.574.432.969.593c.79.321 1.835.522 2.897.668 1.06.145 2.14.231 2.984.32.61.083.114.117.114.117-.754.018-1.698.035-2.632.118-.933.083-1.857.23-2.582.515-.725.284-1.275.729-1.358 1.4a.16.16 0 0 0 .023.11c.183.281.458.463.775.557.318.094.682.104 1.073.063.783-.08 1.687-.374 2.57-.726.884-.352 1.746-.762 2.43-1.085 1.075-.526.3.342.3.342-.473.501-1.072 1.108-1.612 1.764-.54.657-1.024 1.365-1.268 2.086-.244.722-.238 1.47.22 2.14.03.042.077.07.129.071.867.045 1.522-.291 1.993-.834.47-.544.768-1.283.988-2.066.22-.784.36-1.618.497-2.35 0 0 .465-1.134.685-.15.141.638.28 1.341.494 1.985.214.643.504 1.231.976 1.622s1.123.564 1.976.39a.16.16 0 0 0 .088-.045c.468-.502.58-1.045.433-1.553s-.525-.98-.986-1.447c0 0-1.994-1.847.696-.444.7.36 1.378.644 1.972.71.297.033.576.012.822-.095a1.19 1.19 0 0 0 .6-.615c.156-.698-.102-1.237-.582-1.575s-1.163-.51-1.919-.622c-3.84-.47-1.469-.388.614-.538.957-.08 1.872-.211 2.594-.484s1.27-.71 1.395-1.383a.16.16 0 0 0-.012-.097 1.44 1.44 0 0 0-.73-.745c-.316-.145-.685-.192-1.088-.173-.806.04-1.752.337-2.701.719 0 0-3.27 1.583.115-.313.905-.512 1.759-1.052 2.367-1.616.304-.282.547-.57.702-.87s.218-.62.146-.936a.16.16 0 0 0-.07-.1c-.776-.501-1.634-.423-2.448-.027-.813.396-1.603 1.1-2.334 1.883s-1.404 1.646-1.958 2.363c-.475.547-.333.101-.333.101.38-.8.867-1.82 1.286-2.868s.773-2.123.885-3.054c.056-.465.052-.895-.043-1.27-.094-.375-.285-.695-.592-.914a.16.16 0 0 0-.11-.031c-.83.086-1.39.696-1.747 1.524-.357.827-.537 1.888-.641 2.982-.105 1.093-.132 2.216-.168 3.152-.05 1.31-.652.058-.652.058-.258-.86-.54-1.865-.878-2.802s-.732-1.808-1.237-2.406c-.474-.56-1.083-.881-1.783-.725z" style="baseline-shift:baseline;display:inline;overflow:visible;vector-effect:none;fill:#3b5b25;fill-opacity:1;stroke-width:1;stroke-linecap:round;stroke-linejoin:round;stroke-miterlimit:2;stop-color:#000" transform="translate(8.814 4.634)"/><path d="M8.669 36.648a2 2 0 0 0-.145-.018.16.16 0 0 0-.096.024c-.697.404-.979 1.095-.999 1.88-.02.786.202 1.681.499 2.583s.67 1.812.962 2.612c.31 1.253-.378.57-.378.57-.528-.636-1.18-1.425-1.884-2.158-.704-.734-1.46-1.412-2.209-1.828s-1.521-.57-2.19-.197a.16.16 0 0 0-.07.075c-.14.313-.12.648.013.962.132.314.37.615.677.911.613.594 1.507 1.17 2.437 1.702.93.531 1.899 1.014 2.649 1.412.534.304.061.151.061.151-.705-.265-1.588-.602-2.485-.873-.897-.272-1.808-.48-2.587-.488-.78-.007-1.456.2-1.783.792a.16.16 0 0 0-.02.11c.065.33.252.601.512.807.26.205.593.35.971.46.757.217 1.704.282 2.655.286.951.003 1.905-.055 2.66-.099 1.193-.087.15.43.15.43-.625.287-1.408.626-2.155 1.033-.746.408-1.46.884-1.955 1.462s-.77 1.274-.594 2.066c.01.051.045.094.092.115.787.366 1.52.298 2.16-.03s1.192-.902 1.688-1.547c.497-.645.94-1.366 1.34-1.993 0 0 .855-.879.69.117-.106.644-.241 1.347-.282 2.024-.042.677.007 1.331.3 1.87.29.54.83.943 1.686 1.1a.16.16 0 0 0 .099-.01c.622-.29.928-.752.982-1.278s-.121-1.106-.374-1.71c0 0-1.16-2.459.81-.153.516.596 1.038 1.113 1.565 1.396.263.142.53.226.798.218a1.19 1.19 0 0 0 .786-.345c.406-.59.368-1.186.049-1.679-.32-.493-.888-.908-1.548-1.293-3.387-1.871-1.217-.91.77-.27.917.284 1.816.503 2.588.52.771.016 1.443-.183 1.81-.762a.16.16 0 0 0 .025-.094 1.44 1.44 0 0 0-.399-.964c-.239-.253-.563-.434-.944-.567-.762-.265-1.752-.342-2.774-.343 0 0-3.626.248.224-.246 1.03-.138 2.024-.32 2.799-.615.387-.148.72-.324.975-.545.256-.22.435-.494.486-.813a.16.16 0 0 0-.027-.12c-.533-.755-1.359-1.002-2.26-.939-.903.064-1.899.422-2.87.875s-1.917 1.002-2.699 1.46c-.645.33-.346-.03-.346-.03.651-.6 1.483-1.364 2.264-2.18s1.51-1.681 1.962-2.503c.225-.41.382-.81.435-1.194s-.005-.751-.208-1.069a.16.16 0 0 0-.091-.07c-.801-.23-1.549.126-2.19.76-.64.635-1.203 1.552-1.708 2.528-.506.975-.95 2.007-1.333 2.861-.536 1.196-.627-.19-.627-.19.082-.894.196-1.931.232-2.927.036-.995-.003-1.95-.249-2.694-.23-.697-.674-1.222-1.382-1.338Z" style="baseline-shift:baseline;display:inline;overflow:visible;vector-effect:none;fill:#3b5b25;fill-opacity:1;stroke-width:1;stroke-linecap:round;stroke-linejoin:round;stroke-miterlimit:2;stop-color:#000" transform="translate(8.814 4.634)"/><path d="M-4.661 29.362a2 2 0 0 0-.133.06.16.16 0 0 0-.07.07c-.39.706-.274 1.443.114 2.126s1.04 1.336 1.76 1.956 1.507 1.206 2.17 1.74c.914.914-.029.685-.029.685-.78-.274-1.746-.613-2.727-.878-.982-.265-1.979-.457-2.836-.427s-1.597.296-1.977.962a.16.16 0 0 0-.022.1c.042.34.232.617.507.817.276.201.635.336 1.05.432.832.192 1.896.225 2.967.2 1.07-.024 2.15-.11 2.997-.156.615-.015.13.097.13.097-.74.137-1.67.304-2.579.534-.908.23-1.796.521-2.468.917-.67.396-1.143.922-1.119 1.598q.001.06.04.105c.226.248.526.385.854.427.329.042.69-.006 1.07-.107.76-.204 1.606-.637 2.422-1.125s1.603-1.03 2.228-1.456c.977-.69.35.29.35.29-.387.57-.883 1.263-1.313 1.997s-.795 1.51-.921 2.261c-.127.75-.001 1.489.557 2.077a.16.16 0 0 0 .138.05c.863-.092 1.457-.528 1.835-1.14.38-.61.556-1.387.648-2.196.093-.808.1-1.654.12-2.398 0 0 .279-1.194.651-.256.242.607.49 1.279.803 1.88.314.602.693 1.136 1.221 1.448.528.311 1.199.378 2.013.072a.16.16 0 0 0 .08-.06c.382-.569.407-1.123.18-1.601-.225-.479-.673-.885-1.202-1.273 0 0-2.261-1.507.616-.549.749.245 1.463.418 2.06.39.299-.015.571-.08.796-.225a1.19 1.19 0 0 0 .495-.702c.045-.714-.295-1.205-.823-1.463s-1.23-.32-1.994-.31c-3.866.145-1.511-.15.521-.629.932-.23 1.815-.505 2.485-.889s1.142-.901 1.158-1.586a.16.16 0 0 0-.027-.094 1.44 1.44 0 0 0-.839-.62c-.335-.093-.707-.081-1.102.002-.789.166-1.676.61-2.553 1.137 0 0-2.978 2.082.065-.327.811-.649 1.57-1.317 2.08-1.97.256-.327.45-.65.555-.97.105-.321.118-.647-.004-.947a.16.16 0 0 0-.085-.089c-.845-.372-1.68-.158-2.42.362s-1.409 1.34-2.007 2.23c-.599.888-1.126 1.847-1.56 2.642-.382.615-.311.153-.311.153.248-.85.567-1.934.815-3.035s.427-2.22.39-3.156c-.019-.468-.091-.892-.244-1.247s-.391-.642-.73-.81a.16.16 0 0 0-.114-.012c-.804.216-1.261.907-1.483 1.78-.22.875-.23 1.951-.16 3.047s.221 2.21.334 3.139c.158 1.3-.635.16-.635.16-.391-.808-.828-1.755-1.31-2.627s-1.01-1.67-1.604-2.18c-.556-.478-1.208-.698-1.874-.433z" style="baseline-shift:baseline;display:inline;overflow:visible;vector-effect:none;fill:#3b5b25;fill-opacity:1;stroke-width:1;stroke-linecap:round;stroke-linejoin:round;stroke-miterlimit:2;stop-color:#000" transform="translate(8.814 4.634)"/><path d="M8.508 26.48a2 2 0 0 0-.145-.017.16.16 0 0 0-.097.023c-.697.404-.978 1.095-.998 1.88-.02.786.202 1.682.499 2.584.296.902.669 1.81.961 2.61.311 1.254-.377.572-.377.572-.528-.637-1.18-1.426-1.884-2.16-.704-.733-1.46-1.411-2.21-1.827s-1.52-.57-2.19-.197a.16.16 0 0 0-.07.076c-.14.312-.12.647.013.96.133.315.37.616.677.912.613.594 1.507 1.17 2.438 1.702.93.531 1.898 1.014 2.648 1.413.535.303.062.15.062.15-.706-.265-1.588-.601-2.485-.873s-1.808-.48-2.587-.488c-.78-.007-1.456.2-1.783.792a.16.16 0 0 0-.02.11c.065.33.252.601.511.807.26.206.593.35.972.46.756.217 1.704.282 2.655.286.95.003 1.904-.055 2.66-.099 1.193-.087.15.43.15.43-.626.287-1.408.626-2.155 1.033-.746.408-1.46.884-1.955 1.462s-.77 1.275-.594 2.066c.01.051.044.094.091.115.788.366 1.521.299 2.16-.03s1.192-.902 1.689-1.547.939-1.366 1.34-1.993c0 0 .854-.879.69.117-.107.644-.241 1.347-.283 2.024-.041.678.008 1.331.3 1.87.291.54.83.943 1.687 1.101a.16.16 0 0 0 .099-.01c.621-.29.928-.753.981-1.279s-.12-1.106-.374-1.71c0 0-1.16-2.459.811-.153.515.596 1.038 1.113 1.564 1.396.264.142.53.226.798.219a1.19 1.19 0 0 0 .786-.346c.406-.59.369-1.185.05-1.678-.32-.494-.889-.909-1.548-1.294-3.388-1.871-1.218-.909.77-.27.917.284 1.816.503 2.587.52.772.016 1.444-.183 1.811-.762a.16.16 0 0 0 .025-.094 1.44 1.44 0 0 0-.399-.964c-.239-.252-.563-.434-.945-.567-.762-.265-1.751-.342-2.773-.342 0 0-3.626.247.223-.247 1.03-.138 2.025-.32 2.8-.615.387-.148.72-.324.975-.545.256-.22.434-.494.485-.813a.16.16 0 0 0-.027-.12c-.532-.754-1.358-1.002-2.26-.939s-1.898.422-2.87.875c-.97.453-1.917 1.002-2.698 1.46-.645.33-.347-.03-.347-.03.652-.6 1.484-1.364 2.265-2.18.78-.816 1.51-1.681 1.961-2.502.226-.411.383-.812.435-1.195.053-.383-.004-.751-.207-1.069a.16.16 0 0 0-.092-.07c-.8-.23-1.548.126-2.189.761-.64.635-1.203 1.552-1.709 2.527-.505.975-.95 2.007-1.333 2.861-.535 1.196-.626-.19-.626-.19.081-.894.196-1.931.232-2.927.036-.995-.004-1.95-.249-2.694-.23-.697-.675-1.222-1.382-1.338Z" style="baseline-shift:baseline;display:inline;overflow:visible;vector-effect:none;fill:#3b5b25;fill-opacity:1;stroke-width:1;stroke-linecap:round;stroke-linejoin:round;stroke-miterlimit:2;stop-color:#000" transform="translate(8.814 4.634)"/><path d="M22.475 25.575q.072-.011.145-.017a.16.16 0 0 1 .097.023c.697.404.978 1.095.998 1.88.02.786-.202 1.682-.499 2.584-.296.902-.669 1.811-.961 2.611-.311 1.254.377.571.377.571.528-.637 1.18-1.426 1.884-2.159s1.46-1.412 2.21-1.828 1.52-.57 2.19-.196q.046.026.07.075c.14.312.12.647-.013.961s-.37.615-.677.912c-.613.593-1.507 1.17-2.438 1.701-.93.531-1.898 1.015-2.648 1.413-.535.304-.062.15-.062.15.706-.265 1.588-.601 2.485-.873s1.808-.48 2.587-.487 1.456.2 1.783.791q.03.053.02.11a1.36 1.36 0 0 1-.511.807c-.26.206-.593.35-.972.46-.756.218-1.704.283-2.655.286s-1.904-.055-2.66-.098c-1.193-.087-.15.429-.15.429.626.288 1.408.626 2.155 1.034.746.407 1.46.883 1.955 1.461s.77 1.275.594 2.067a.16.16 0 0 1-.091.115c-.788.365-1.521.298-2.16-.03s-1.192-.903-1.689-1.548-.939-1.365-1.34-1.993c0 0-.854-.879-.69.117.107.644.241 1.348.283 2.025s-.008 1.33-.3 1.87c-.291.539-.83.942-1.687 1.1a.16.16 0 0 1-.099-.01c-.621-.29-.928-.752-.981-1.279s.12-1.105.374-1.71c0 0 1.16-2.458-.811-.152-.515.595-1.038 1.112-1.564 1.396-.264.141-.53.226-.798.218a1.19 1.19 0 0 1-.786-.346c-.406-.589-.369-1.185-.05-1.678.32-.493.889-.909 1.548-1.294 3.388-1.87 1.218-.909-.77-.27-.917.284-1.816.504-2.587.52s-1.444-.183-1.811-.762a.16.16 0 0 1-.025-.094 1.44 1.44 0 0 1 .399-.964c.239-.252.563-.434.945-.566.762-.265 1.751-.342 2.773-.343 0 0 3.626.247-.223-.247-1.03-.137-2.024-.319-2.8-.615-.387-.148-.72-.324-.975-.545-.256-.22-.434-.493-.485-.813a.16.16 0 0 1 .027-.12c.532-.754 1.358-1.002 2.26-.938.902.063 1.898.421 2.87.874.97.453 1.917 1.002 2.698 1.46.645.33.347-.03.347-.03-.652-.6-1.484-1.364-2.265-2.18-.78-.816-1.51-1.68-1.961-2.502-.226-.41-.383-.811-.435-1.194-.053-.383.004-.752.207-1.07a.16.16 0 0 1 .092-.07c.8-.23 1.548.127 2.189.761.64.635 1.203 1.552 1.709 2.527.505.975.95 2.007 1.333 2.861.535 1.196.626-.19.626-.19-.081-.894-.196-1.93-.232-2.926s.004-1.951.249-2.695c.23-.696.675-1.221 1.382-1.338z" style="baseline-shift:baseline;display:inline;overflow:visible;vector-effect:none;fill:#3b5b25;fill-opacity:1;stroke-width:1;stroke-linecap:round;stroke-linejoin:round;stroke-miterlimit:2;stop-color:#000" transform="translate(8.814 4.634)"/><path d="M2.63 22.296q.041-.007.085-.01.03-.003.057.014c.412.238.578.647.59 1.11.011.465-.12.994-.295 1.527s-.396 1.07-.568 1.543c-.184.74.223.337.223.337.312-.376.697-.842 1.113-1.275.416-.434.862-.835 1.305-1.08s.9-.338 1.295-.116q.027.015.041.044a.7.7 0 0 1-.008.568 1.7 1.7 0 0 1-.4.539c-.362.35-.89.691-1.44 1.005s-1.122.6-1.565.835c-.316.18-.037.089-.037.089.417-.157.939-.356 1.469-.516s1.068-.284 1.529-.288.86.118 1.053.467q.018.03.012.066a.8.8 0 0 1-.302.476c-.154.122-.35.207-.574.272-.447.128-1.007.167-1.57.169-.561.002-1.125-.033-1.57-.058-.706-.052-.09.253-.09.253.37.17.833.37 1.274.611.44.241.862.522 1.155.864s.455.753.351 1.22a.1.1 0 0 1-.054.069 1.4 1.4 0 0 1-1.277-.018c-.378-.194-.704-.533-.997-.914s-.555-.807-.792-1.178c0 0-.505-.52-.408.07.063.38.143.795.167 1.196s-.004.786-.177 1.104c-.172.319-.49.558-.996.65a.1.1 0 0 1-.059-.005c-.367-.172-.548-.445-.58-.756-.031-.31.071-.653.221-1.01 0 0 .685-1.453-.48-.09-.303.352-.612.657-.923.824a.94.94 0 0 1-.472.13.7.7 0 0 1-.464-.205c-.24-.348-.218-.7-.03-.992.19-.29.526-.536.915-.764 2.002-1.105.72-.537-.455-.16-.542.168-1.073.298-1.529.308s-.853-.109-1.07-.45a.1.1 0 0 1-.014-.056.85.85 0 0 1 .235-.57c.142-.149.333-.256.558-.334.45-.157 1.035-.203 1.64-.203 0 0 2.142.146-.133-.146-.608-.081-1.196-.188-1.654-.363a1.9 1.9 0 0 1-.576-.322.8.8 0 0 1-.287-.48.1.1 0 0 1 .016-.071c.315-.446.803-.592 1.336-.555s1.121.25 1.695.517a20 20 0 0 1 1.595.862c.381.195.205-.017.205-.017-.385-.355-.877-.806-1.338-1.289s-.893-.993-1.16-1.478a2.1 2.1 0 0 1-.256-.706.92.92 0 0 1 .122-.631.1.1 0 0 1 .054-.042c.473-.136.915.075 1.294.45.378.375.71.916 1.01 1.493.298.576.56 1.186.787 1.69.317.707.37-.112.37-.112-.048-.528-.116-1.141-.137-1.73-.021-.587.002-1.152.147-1.591.136-.412.399-.722.817-.791" style="baseline-shift:baseline;display:inline;overflow:visible;vector-effect:none;fill:#3b5b25;fill-opacity:1;stroke-width:.999999;stroke-linecap:round;stroke-linejoin:round;stroke-miterlimit:2;stop-color:#000" transform="translate(8.814 4.634)"/><path d="M11.06 21.808q.045-.006.09-.01a.1.1 0 0 1 .06.014c.435.252.61.684.623 1.174s-.126 1.049-.311 1.611-.418 1.13-.6 1.63c-.194.782.236.356.236.356.329-.398.736-.89 1.175-1.347.44-.458.91-.881 1.378-1.14.468-.26.95-.357 1.367-.123q.03.016.044.047a.74.74 0 0 1-.008.6c-.083.195-.232.383-.423.568-.382.37-.94.73-1.52 1.062-.581.331-1.185.633-1.653.881-.334.19-.039.094-.039.094.44-.166.991-.375 1.55-.545.56-.17 1.129-.3 1.615-.304s.908.125 1.113.494q.018.032.012.069a.85.85 0 0 1-.32.503 1.8 1.8 0 0 1-.605.287c-.472.136-1.063.176-1.657.178-.593.002-1.188-.034-1.66-.061-.744-.054-.093.268-.093.268.39.18.879.39 1.344.645.466.254.911.55 1.22.912.31.36.48.795.371 1.289a.1.1 0 0 1-.057.072 1.47 1.47 0 0 1-1.348-.019c-.4-.205-.744-.563-1.053-.965-.31-.403-.586-.853-.836-1.244 0 0-.534-.548-.43.073.066.402.15.84.175 1.263.026.423-.005.83-.186 1.167-.182.336-.52.588-1.053.687a.1.1 0 0 1-.062-.007c-.388-.18-.579-.47-.612-.798s.075-.69.233-1.067c0 0 .724-1.534-.506-.095-.321.372-.647.694-.976.871a1 1 0 0 1-.498.136.74.74 0 0 1-.49-.216c-.253-.367-.23-.739-.03-1.047.199-.307.553-.566.965-.807 2.113-1.167.76-.567-.48-.168-.573.177-1.133.314-1.615.324-.481.01-.9-.114-1.13-.475a.1.1 0 0 1-.015-.059.9.9 0 0 1 .249-.601c.149-.158.351-.271.589-.354.475-.165 1.093-.213 1.73-.214 0 0 2.263.155-.139-.154-.643-.085-1.263-.199-1.746-.383a2 2 0 0 1-.61-.34.85.85 0 0 1-.302-.507.1.1 0 0 1 .017-.075c.332-.471.847-.625 1.41-.586s1.185.263 1.79.546a21 21 0 0 1 1.685.91c.402.206.215-.018.215-.018-.406-.374-.925-.851-1.412-1.36s-.943-1.049-1.224-1.561a2.2 2.2 0 0 1-.271-.746.97.97 0 0 1 .13-.667.1.1 0 0 1 .056-.043c.5-.144.966.078 1.366.474s.75.968 1.066 1.577c.315.608.593 1.252.832 1.785.334.746.39-.119.39-.119-.05-.557-.122-1.204-.144-1.825-.023-.622.002-1.218.155-1.681.144-.435.421-.763.863-.836" style="baseline-shift:baseline;display:inline;overflow:visible;vector-effect:none;fill:#3b5b25;fill-opacity:1;stroke-width:1;stroke-linecap:round;stroke-linejoin:round;stroke-miterlimit:2;stop-color:#000" transform="translate(8.814 4.634)"/><g style="display:inline"><path d="M18.654 25.649c.761-.82 1.192-4.606 2.894-4.292 1.19 1.202-2.265 3.516-2.753 4.429.882-.09 4.643-2.682 5.618-1.206-.215 1.535-5.105 1.189-5.472 1.383.71.334 5.193.491 5.005 2.484-.99.84-4.032-2.049-5.004-2.33.444.623 4.303 2.736 3.286 4.007-1.361.418-2.6-3.137-3.476-3.926.297 1.161 2.039 3.681.548 4.076-1.278.031-.586-3.06-.725-4.132-.614 1.183-.505 3.637-1.943 3.237-1.218-1.504 1.252-2.513 1.813-3.414-1.041 0-3.767 1.632-4.56-.104.827-1.548 3.941.108 4.518-.045-.187-.374-3.746-2.45-3.074-3.639 1.299-.485 2.79 3.244 3.152 3.537.15-.448-2.21-4.583-.972-5.169 1.58.317.967 4.55 1.145 5.104" style="fill:#5a8b39;fill-opacity:1;stroke:#3b5b25;stroke-width:.198437;stroke-linecap:round;stroke-linejoin:round;stroke-miterlimit:2;stroke-opacity:1" transform="translate(8.814 4.634)"/><g style="stroke-width:.681039"><path d="M10.842 79.8s-.897-7.966-.734-8.24c.358.057 1.11 8.167 1.11 8.167z" style="fill:#697f21;fill-opacity:1;stroke:none;stroke-width:.135143;stroke-linecap:round;stroke-linejoin:round;stroke-miterlimit:2;stroke-opacity:1" transform="matrix(-1.43324 .3209 .32108 1.43242 5.97 -65.362)"/><path d="M9.922 71.672c-.326-1.127-3.5-3.561-2.298-4.923 1.726-.421 1.939 3.938 2.496 4.871.397-.842.098-5.627 1.954-5.706 1.265 1.024-1.691 5.235-1.715 5.67.684-.457 3.25-4.405 4.942-3.16.222 1.345-4.024 2.52-4.802 3.243.8-.063 4.789-2.392 5.382-.79-.36 1.45-4.23.643-5.412 1.005 1.205.36 4.415.156 3.964 1.71-.663 1.166-3.071-1.128-4.11-1.582.732 1.192 2.999 2.42 1.861 3.498-2.011.282-1.584-2.484-2.092-3.477-.562.938-.567 4.271-2.558 4.045-.947-1.58 2.228-3.486 2.402-4.087-.438-.035-4.23 2.045-4.937.798.266-1.43 4.428-.757 4.887-.923-.322-.378-5.32-.49-5.177-1.92 1.14-1.25 4.618 1.59 5.213 1.728" style="fill:#5a8b39;fill-opacity:1;stroke:#3b5b25;stroke-width:.135143;stroke-linecap:round;stroke-linejoin:round;stroke-miterlimit:2;stroke-opacity:1" transform="matrix(-1.43324 .3209 .32108 1.43242 5.97 -65.362)"/></g><g style="stroke-width:1.45161" transform="matrix(.68693 0 0 .69086 71.383 -48.12)"><use xlink:href="#e" style="stroke-width:1.45161" transform="rotate(-4.786 -143.526 108.691)"/><use xlink:href="#f" style="stroke-width:1.45161" transform="rotate(5.718 -1.947 94.985)"/><path d="M-92.05 74.165c-.797.951 1.756 78.999 1.756 78.999h.64s-1.762-78.694-2.396-79z" style="fill:#756d42;fill-opacity:1;stroke:none;stroke-width:.288052;stroke-linecap:round;stroke-linejoin:round;stroke-miterlimit:2;stroke-opacity:1"/><path d="M-88.454 103.936c-2.276-.682-2.576 1.81-2.318 2.126.346.424 2.723.207 2.318-2.126M-87.922 99.241c-2.23-.82-2.682 1.65-2.444 1.98.32.445 2.705.374 2.444-1.98M-88.717 95.02c-2.366-.206-2.155 2.295-1.838 2.552.425.345 2.708-.35 1.838-2.552" style="display:inline;fill:#5d4591;fill-opacity:1;stroke:#3f2f62;stroke-width:.192036;stroke-linecap:round;stroke-linejoin:round;stroke-miterlimit:2;stroke-dasharray:none;stroke-opacity:1"/><path id="e" d="M-94.1 101.859c2.227-.827 2.686 1.64 2.45 1.972-.319.446-2.705.382-2.45-1.972" style="display:inline;fill:#5d4591;fill-opacity:1;stroke:#3f2f62;stroke-width:.192036;stroke-linecap:round;stroke-linejoin:round;stroke-miterlimit:2;stroke-dasharray:none;stroke-opacity:1"/><use xlink:href="#e" style="stroke-width:1.45161" transform="rotate(-14.65 -124.123 102.978)"/><path id="f" d="M-88.322 101.516c-2.226-.827-2.686 1.641-2.45 1.973.319.445 2.705.382 2.45-1.973" style="display:inline;fill:#8b9ee0;fill-opacity:1;stroke:#4e6bd0;stroke-width:.192036;stroke-linecap:round;stroke-linejoin:round;stroke-miterlimit:2;stroke-dasharray:none;stroke-opacity:1"/><use xlink:href="#f" style="stroke-width:1.45161" transform="rotate(-13.593 -106.99 103.407)"/><use xlink:href="#f" style="stroke-width:1.45161" transform="rotate(-12.182 -156.176 98.712)"/><use xlink:href="#f" style="stroke-width:1.45161" transform="rotate(-12.152 -182.212 96.821)"/><use xlink:href="#f" style="stroke-width:1.45161" transform="rotate(-9.358 -162.395 91.986)"/><use xlink:href="#f" style="stroke-width:1.45161" transform="rotate(9.996 6.132 93.263)"/><path d="M-93.357 99.35c2.344-.389 2.326 2.122 2.03 2.402-.397.377-2.727-.14-2.03-2.402M-93.716 95.209c2.24-.794 2.662 1.68 2.42 2.008-.325.441-2.71.342-2.42-2.008M-94.433 90.931c2.346-.378 2.316 2.132 2.02 2.412-.4.375-2.727-.152-2.02-2.412M-94.663 88.411c1.941-1.369 3.017.9 2.872 1.28-.193.512-2.516 1.061-2.872-1.28M-95.148 85.14c2.08-1.147 2.899 1.226 2.714 1.59-.25.487-2.618.776-2.714-1.59M-94.364 104.742c1.844-1.498 3.071.691 2.954 1.081-.158.524-2.438 1.23-2.954-1.08" style="display:inline;fill:#8b9ee0;fill-opacity:1;stroke:#4e6bd0;stroke-width:.192036;stroke-linecap:round;stroke-linejoin:round;stroke-miterlimit:2;stroke-dasharray:none;stroke-opacity:1"/><path id="g" d="M-89.131 89.556c-2.227-.827-2.687 1.64-2.45 1.972.318.446 2.704.382 2.45-1.972" style="display:inline;fill:#b9cef6;fill-opacity:1;stroke:#96b6f1;stroke-width:.192036;stroke-linecap:round;stroke-linejoin:round;stroke-miterlimit:2;stroke-dasharray:none;stroke-opacity:1"/><use xlink:href="#g" style="stroke-width:1.45161" transform="rotate(-15.19 -109.48 90.21)"/><use xlink:href="#g" style="stroke-width:1.45161" transform="rotate(13.13 -50.437 85.682)"/><use xlink:href="#g" style="stroke-width:1.45161" transform="rotate(-8.83 -177.871 83.063)"/><use xlink:href="#g" style="stroke-width:1.45161" transform="rotate(.977 628.69 91.165)"/><path d="M-91.883 73.331c-1.802.995-.434 2.702-.081 2.735.473.044 1.778-1.562.081-2.735" style="display:inline;fill:#b9cef6;fill-opacity:1;stroke:#96b6f1;stroke-width:.192036;stroke-linecap:round;stroke-linejoin:round;stroke-miterlimit:2;stroke-dasharray:none;stroke-opacity:1"/><path id="h" d="M-94.768 82.088c2.227-.827 2.687 1.64 2.45 1.972-.318.445-2.704.382-2.45-1.972" style="display:inline;fill:#b9cef6;fill-opacity:1;stroke:#96b6f1;stroke-width:.192036;stroke-linecap:round;stroke-linejoin:round;stroke-miterlimit:2;stroke-dasharray:none;stroke-opacity:1"/><use xlink:href="#h" style="stroke-width:1.45161" transform="rotate(-13.222 -110.432 82.21)"/><use xlink:href="#h" style="stroke-width:1.45161" transform="rotate(8.146 -48.623 82.553)"/><use xlink:href="#h" style="stroke-width:1.45161" transform="rotate(-9.945 -66.704 84.767)"/><use xlink:href="#h" style="stroke-width:1.45161" transform="rotate(3.61 -252.613 108.96)"/></g><g style="stroke-width:1.45161" transform="matrix(.68693 0 0 .69086 85.335 -44.389)"><use xlink:href="#i" style="stroke-width:1.45161" transform="rotate(-4.786 -143.526 105.628)"/><path d="M-92.05 74.165c-.797.951 1.756 78.999 1.756 78.999h.64s-1.762-78.694-2.396-79z" style="fill:#756d42;fill-opacity:1;stroke:none;stroke-width:.288052;stroke-linecap:round;stroke-linejoin:round;stroke-miterlimit:2;stroke-opacity:1"/><path d="M-88.454 100.873c-2.276-.683-2.576 1.81-2.318 2.125.346.424 2.723.208 2.318-2.125M-87.922 96.178c-2.23-.82-2.682 1.649-2.444 1.98.32.444 2.705.373 2.444-1.98M-88.717 91.957c-2.366-.207-2.155 2.294-1.838 2.551.425.345 2.708-.35 1.838-2.551" style="display:inline;fill:#5d4591;fill-opacity:1;stroke:#3f2f62;stroke-width:.192036;stroke-linecap:round;stroke-linejoin:round;stroke-miterlimit:2;stroke-dasharray:none;stroke-opacity:1"/><path id="i" d="M-94.1 98.795c2.227-.827 2.686 1.64 2.45 1.972-.319.446-2.705.382-2.45-1.972" style="display:inline;fill:#5d4591;fill-opacity:1;stroke:#3f2f62;stroke-width:.192036;stroke-linecap:round;stroke-linejoin:round;stroke-miterlimit:2;stroke-dasharray:none;stroke-opacity:1"/><use xlink:href="#i" style="stroke-width:1.45161" transform="rotate(-14.65 -124.123 99.914)"/><path id="j" d="M-88.322 98.453c-2.226-.828-2.686 1.64-2.45 1.972.319.445 2.705.382 2.45-1.972" style="display:inline;fill:#8b9ee0;fill-opacity:1;stroke:#4e6bd0;stroke-width:.192036;stroke-linecap:round;stroke-linejoin:round;stroke-miterlimit:2;stroke-dasharray:none;stroke-opacity:1"/><use xlink:href="#j" style="stroke-width:1.45161" transform="rotate(-13.593 -106.99 100.343)"/><use xlink:href="#j" style="stroke-width:1.45161" transform="rotate(-12.182 -141.82 97.18)"/><use xlink:href="#j" style="stroke-width:1.45161" transform="rotate(-12.152 -167.82 95.29)"/><use xlink:href="#j" style="stroke-width:1.45161" transform="rotate(-9.358 -143.677 90.454)"/><use xlink:href="#j" style="stroke-width:1.45161" transform="rotate(9.996 -11.385 91.731)"/><path d="M-93.357 96.286c2.344-.389 2.326 2.122 2.03 2.402-.397.377-2.727-.14-2.03-2.402M-93.716 92.145c2.24-.794 2.662 1.68 2.42 2.009-.325.44-2.71.34-2.42-2.01M-94.663 88.411c1.941-1.369 3.017.9 2.872 1.28-.193.512-2.516 1.061-2.872-1.28M-95.148 85.14c2.08-1.147 2.899 1.226 2.714 1.59-.25.487-2.618.776-2.714-1.59M-94.364 101.679c1.844-1.499 3.071.69 2.954 1.08-.158.525-2.438 1.23-2.954-1.08" style="display:inline;fill:#8b9ee0;fill-opacity:1;stroke:#4e6bd0;stroke-width:.192036;stroke-linecap:round;stroke-linejoin:round;stroke-miterlimit:2;stroke-dasharray:none;stroke-opacity:1"/><path id="k" d="M-89.131 89.556c-2.227-.827-2.687 1.64-2.45 1.972.318.446 2.704.382 2.45-1.972" style="display:inline;fill:#b9cef6;fill-opacity:1;stroke:#96b6f1;stroke-width:.192036;stroke-linecap:round;stroke-linejoin:round;stroke-miterlimit:2;stroke-dasharray:none;stroke-opacity:1"/><use xlink:href="#k" style="stroke-width:1.45161" transform="rotate(-15.19 -109.48 90.21)"/><use xlink:href="#k" style="stroke-width:1.45161" transform="rotate(13.13 -50.437 85.682)"/><use xlink:href="#k" style="stroke-width:1.45161" transform="rotate(-8.83 -177.871 83.063)"/><use xlink:href="#k" style="stroke-width:1.45161" transform="rotate(.977 628.69 91.165)"/><path d="M-91.883 73.331c-1.802.995-.434 2.702-.081 2.735.473.044 1.778-1.562.081-2.735" style="display:inline;fill:#b9cef6;fill-opacity:1;stroke:#96b6f1;stroke-width:.192036;stroke-linecap:round;stroke-linejoin:round;stroke-miterlimit:2;stroke-dasharray:none;stroke-opacity:1"/><path id="l" d="M-94.768 82.088c2.227-.827 2.687 1.64 2.45 1.972-.318.445-2.704.382-2.45-1.972" style="display:inline;fill:#b9cef6;fill-opacity:1;stroke:#96b6f1;stroke-width:.192036;stroke-linecap:round;stroke-linejoin:round;stroke-miterlimit:2;stroke-dasharray:none;stroke-opacity:1"/><use xlink:href="#l" style="stroke-width:1.45161" transform="rotate(-13.222 -110.432 82.21)"/><use xlink:href="#l" style="stroke-width:1.45161" transform="rotate(8.146 -48.623 82.553)"/><use xlink:href="#l" style="stroke-width:1.45161" transform="rotate(-9.945 -66.704 84.767)"/></g><g style="stroke-width:1.45161" transform="matrix(-.68693 0 0 .69086 -43.159 -46.538)"><use xlink:href="#m" style="stroke-width:1.45161" transform="rotate(-4.786 -138.17 102.904)"/><path d="M-89.038 86.46c2.05-1.166 2.93 1.118 2.755 1.475-.236.48-2.597.82-2.755-1.474" style="display:inline;fill:#8b9ee0;fill-opacity:1;stroke:#4e6bd0;stroke-width:.189259;stroke-linecap:round;stroke-linejoin:round;stroke-miterlimit:2;stroke-dasharray:none;stroke-opacity:1"/><use xlink:href="#n" style="stroke-width:1.45161" transform="rotate(5.718 2.002 91.572)"/><path d="M-86.613 68.714c-.797.985 1.812 81.795 1.812 81.795h.64s-1.818-81.48-2.452-81.796z" style="fill:#756d42;fill-opacity:1;stroke:none;stroke-width:.288052;stroke-linecap:round;stroke-linejoin:round;stroke-miterlimit:2;stroke-opacity:1"/><path id="o" d="M-82.875 102.478c-2.227-.827-2.686 1.64-2.45 1.972.319.446 2.705.382 2.45-1.972" style="display:inline;fill:#5d4591;fill-opacity:1;stroke:#3f2f62;stroke-width:.192036;stroke-linecap:round;stroke-linejoin:round;stroke-miterlimit:2;stroke-dasharray:none;stroke-opacity:1"/><use xlink:href="#o" style="stroke-width:1.45161" transform="rotate(-3.68 -150.345 103.778)"/><use xlink:href="#o" style="stroke-width:1.45161" transform="rotate(-.174 -3045.825 -91.544)"/><use xlink:href="#o" style="stroke-width:1.45161" transform="matrix(1.0003 -.01576 .0129 .9995 -1.633 -14.152)"/><use xlink:href="#o" style="stroke-width:1.45161" transform="rotate(15.607 -19.586 93.305)"/><path id="m" d="M-88.743 96.072c2.226-.827 2.686 1.64 2.45 1.972-.319.446-2.705.382-2.45-1.972" style="display:inline;fill:#5d4591;fill-opacity:1;stroke:#3f2f62;stroke-width:.192036;stroke-linecap:round;stroke-linejoin:round;stroke-miterlimit:2;stroke-dasharray:none;stroke-opacity:1"/><use xlink:href="#m" style="stroke-width:1.45161" transform="rotate(12.491 -103.7 97.132)"/><use xlink:href="#m" style="stroke-width:1.45161" transform="rotate(-14.65 -118.766 97.191)"/><use xlink:href="#m" style="stroke-width:1.45161" transform="rotate(-4.842 -3.98 112.489)"/><path id="n" d="M-82.965 95.73c-2.227-.828-2.686 1.64-2.45 1.972.319.445 2.705.382 2.45-1.973" style="display:inline;fill:#8b9ee0;fill-opacity:1;stroke:#4e6bd0;stroke-width:.192036;stroke-linecap:round;stroke-linejoin:round;stroke-miterlimit:2;stroke-dasharray:none;stroke-opacity:1"/><use xlink:href="#n" style="stroke-width:1.45161" transform="rotate(-13.593 -101.633 97.62)"/><use xlink:href="#n" style="stroke-width:1.45161" transform="rotate(-12.182 -147.23 93.308)"/><use xlink:href="#n" style="stroke-width:1.45161" transform="rotate(-12.152 -173.257 91.417)"/><use xlink:href="#n" style="stroke-width:1.45161" transform="rotate(9.996 7.11 87.86)"/><path d="M-88 93.563c2.344-.389 2.326 2.122 2.03 2.402-.397.377-2.727-.14-2.03-2.402M-88.359 89.422c2.239-.794 2.661 1.68 2.42 2.008-.325.441-2.71.342-2.42-2.008M-89.306 83.39c1.941-1.369 3.016.9 2.872 1.28-.193.512-2.516 1.061-2.872-1.28M-89.791 80.119c2.08-1.147 2.899 1.226 2.714 1.59-.25.487-2.619.776-2.714-1.59M-88.517 101.81c2.157-.997 2.806 1.428 2.595 1.776-.283.47-2.666.59-2.595-1.777M-88.427 105.336c1.939-1.373 3.019.893 2.875 1.275-.193.512-2.514 1.065-2.875-1.275M-89.007 98.955c1.844-1.498 3.071.691 2.954 1.081-.159.524-2.439 1.23-2.954-1.08" style="display:inline;fill:#8b9ee0;fill-opacity:1;stroke:#4e6bd0;stroke-width:.192036;stroke-linecap:round;stroke-linejoin:round;stroke-miterlimit:2;stroke-dasharray:none;stroke-opacity:1"/><use xlink:href="#n" style="stroke-width:1.45161" transform="rotate(-17.61 -70.953 96.31)"/><use xlink:href="#n" style="stroke-width:1.45161" transform="rotate(11.465 -126.74 104.412)"/><path d="M-84.657 79.226c-2.365-.215-2.162 2.287-1.847 2.545.424.347 2.71-.34 1.847-2.545M-83.643 75.644c-1.98-1.311-2.989.988-2.833 1.365.208.506 2.546.986 2.833-1.365M-84.365 70.704c-2.328-.475-2.403 2.034-2.118 2.325.383.392 2.73-.037 2.118-2.325" style="display:inline;fill:#b9cef6;fill-opacity:1;stroke:#96b6f1;stroke-width:.192036;stroke-linecap:round;stroke-linejoin:round;stroke-miterlimit:2;stroke-dasharray:none;stroke-opacity:1"/><path d="M-83.86 72.916c-2.212-.865-2.713 1.595-2.482 1.93.31.451 2.697.428 2.483-1.93M-86.695 67.459c-1.727 1.133-.217 2.73.139 2.736.478.007 1.657-1.698-.139-2.736" style="display:inline;fill:#b9cef6;fill-opacity:1;stroke:#96b6f1;stroke-width:.192036;stroke-linecap:round;stroke-linejoin:round;stroke-miterlimit:2;stroke-dasharray:none;stroke-opacity:1"/><path id="p" d="M-89.546 77.685c2.227-.827 2.686 1.641 2.45 1.973-.318.445-2.704.381-2.45-1.973" style="display:inline;fill:#b9cef6;fill-opacity:1;stroke:#96b6f1;stroke-width:.192036;stroke-linecap:round;stroke-linejoin:round;stroke-miterlimit:2;stroke-dasharray:none;stroke-opacity:1"/><use xlink:href="#p" style="stroke-width:1.45161" transform="rotate(-13.222 -109.15 76.286)"/><use xlink:href="#p" style="stroke-width:1.45161" transform="rotate(8.146 -34.308 77.885)"/><use xlink:href="#p" style="stroke-width:1.45161" transform="rotate(-9.945 -64.97 79.278)"/><path d="M-89.583 75.902c1.922-1.39 3.03.865 2.891 1.248-.186.513-2.502 1.088-2.891-1.248" style="display:inline;fill:#b9cef6;fill-opacity:1;stroke:#96b6f1;stroke-width:.192036;stroke-linecap:round;stroke-linejoin:round;stroke-miterlimit:2;stroke-dasharray:none;stroke-opacity:1"/></g><g style="stroke-width:.654157"><path d="M10.842 79.8s-.897-7.966-.734-8.24c.358.057 1.11 8.167 1.11 8.167z" style="fill:#697f21;fill-opacity:1;stroke:none;stroke-width:.129809;stroke-linecap:round;stroke-linejoin:round;stroke-miterlimit:2;stroke-opacity:1" transform="matrix(-1.5292 0 0 1.52818 42.898 -68.09)"/><path d="M9.922 71.672c-.326-1.127-3.5-3.561-2.298-4.923 1.726-.421 1.939 3.938 2.496 4.871.397-.842.098-5.627 1.954-5.706 1.265 1.024-1.691 5.235-1.715 5.67.684-.457 3.25-4.405 4.942-3.16.222 1.345-4.024 2.52-4.802 3.243.8-.063 4.789-2.392 5.382-.79-.36 1.45-4.23.643-5.412 1.005 1.205.36 4.415.156 3.964 1.71-.663 1.166-3.071-1.128-4.11-1.582.732 1.192 2.999 2.42 1.861 3.498-2.011.282-1.584-2.484-2.092-3.477-.562.938-.567 4.271-2.558 4.045-.947-1.58 2.228-3.486 2.402-4.087-.438-.035-4.23 2.045-4.937.798.266-1.43 4.428-.757 4.887-.923-.322-.378-5.32-.49-5.177-1.92 1.14-1.25 4.618 1.59 5.213 1.728" style="fill:#5a8b39;fill-opacity:1;stroke:#3b5b25;stroke-width:.129809;stroke-linecap:round;stroke-linejoin:round;stroke-miterlimit:2;stroke-opacity:1" transform="matrix(-1.5292 0 0 1.52818 42.898 -68.09)"/></g><g style="stroke-width:.689908"><path d="M12.147 78.698s-.897-7.967-.735-8.24c.359.057 1.11 8.167 1.11 8.167z" style="fill:#697f21;fill-opacity:1;stroke:none;stroke-width:.136903;stroke-linecap:round;stroke-linejoin:round;stroke-miterlimit:2;stroke-opacity:1" transform="matrix(1.44987 0 0 1.44907 -8.695 -57.292)"/><path d="M11.11 70.487c-.096-1.17-2.727-4.184-1.279-5.28 1.775-.073 1.123 4.243 1.485 5.267.555-.747 1.207-5.497 3.042-5.207 1.038 1.253-2.692 4.798-2.8 5.22.76-.314 4.055-3.677 5.468-2.122-.049 1.362-4.442 1.675-5.348 2.23.797.096 5.167-1.398 5.432.29-.64 1.35-4.273-.206-5.504-.085 1.11.59 4.297 1.025 3.549 2.46-.882 1.012-2.789-1.713-3.718-2.364.483 1.314 2.462 2.966 1.134 3.798-2.027-.12-1.062-2.749-1.364-3.822-.736.808-1.4 4.075-3.307 3.46-.616-1.736 2.873-2.978 3.163-3.532-.423-.12-4.551 1.17-4.998-.193.543-1.35 4.49.133 4.973.06-.241-.434-5.118-1.53-4.695-2.905 1.364-1 4.213 2.471 4.768 2.725" style="fill:#5a8b39;fill-opacity:1;stroke:#3b5b25;stroke-width:.136903;stroke-linecap:round;stroke-linejoin:round;stroke-miterlimit:2;stroke-opacity:1" transform="matrix(1.44987 0 0 1.44907 -8.695 -57.292)"/></g><g style="stroke-width:.656079"><path d="M10.842 79.8s-.897-7.966-.734-8.24c.358.057 1.11 8.167 1.11 8.167z" style="fill:#697f21;fill-opacity:1;stroke:none;stroke-width:.13019;stroke-linecap:round;stroke-linejoin:round;stroke-miterlimit:2;stroke-opacity:1" transform="matrix(1.4878 .3331 -.3333 1.48688 39.535 -64.18)"/><path d="M9.922 71.672c-.326-1.127-3.5-3.561-2.298-4.923 1.726-.421 1.939 3.938 2.496 4.871.397-.842.098-5.627 1.954-5.706 1.265 1.024-1.691 5.235-1.715 5.67.684-.457 3.25-4.405 4.942-3.16.222 1.345-4.024 2.52-4.802 3.243.8-.063 4.789-2.392 5.382-.79-.36 1.45-4.23.643-5.412 1.005 1.205.36 4.415.156 3.964 1.71-.663 1.166-3.071-1.128-4.11-1.582.732 1.192 2.999 2.42 1.861 3.498-2.011.282-1.584-2.484-2.092-3.477-.562.938-.567 4.271-2.558 4.045-.947-1.58 2.228-3.486 2.402-4.087-.438-.035-4.23 2.045-4.937.798.266-1.43 4.428-.757 4.887-.923-.322-.378-5.32-.49-5.177-1.92 1.14-1.25 4.618 1.59 5.213 1.728" style="fill:#5a8b39;fill-opacity:1;stroke:#3b5b25;stroke-width:.13019;stroke-linecap:round;stroke-linejoin:round;stroke-miterlimit:2;stroke-opacity:1" transform="matrix(1.4878 .3331 -.3333 1.48688 39.535 -64.18)"/></g><path d="M6.21 27.368c-.068-1.116-2.512-4.04-1.11-5.056 1.691-.032.982 4.065 1.306 5.049.544-.7 1.262-5.211 3.004-4.898.963 1.215-2.662 4.514-2.774 4.914.73-.283 3.938-3.419 5.251-1.908-.074 1.296-4.265 1.504-5.139 2.014.757.108 4.95-1.226 5.168.387-.637 1.273-4.066-.283-5.24-.193 1.045.585 4.07 1.064 3.328 2.415-.86.946-2.62-1.688-3.492-2.327.433 1.261 2.284 2.875 1.003 3.64-1.93-.156-.955-2.64-1.22-3.668-.719.755-1.418 3.853-3.222 3.228-.55-1.666 2.797-2.777 3.085-3.3-.4-.123-4.358 1.02-4.756-.286.545-1.275 4.274.219 4.735.16-.22-.419-4.843-1.564-4.412-2.864 1.32-.925 3.962 2.44 4.485 2.693" style="fill:#5a8b39;fill-opacity:1;stroke:#3b5b25;stroke-width:.198437;stroke-linecap:round;stroke-linejoin:round;stroke-miterlimit:2;stroke-opacity:1" transform="translate(8.814 4.634)"/><path d="M-1.181 28.792c.008-1.118-2.232-4.202-.765-5.12 1.69.083.704 4.123.96 5.126.59-.662 1.614-5.113 3.33-4.682.878 1.278-2.963 4.323-3.102 4.714.749-.233 4.162-3.143 5.37-1.547-.163 1.288-4.358 1.211-5.264 1.66.747.16 5.02-.887 5.129.737-.722 1.227-4.037-.558-5.216-.548 1.004.655 3.99 1.338 3.158 2.635-.922.886-2.5-1.861-3.326-2.558.346 1.288 2.084 3.023.753 3.7-1.914-.287-.774-2.699-.969-3.743-.767.704-1.675 3.747-3.432 3.002-.437-1.7 2.979-2.581 3.301-3.083-.39-.15-4.417.722-4.725-.608.63-1.235 4.25.508 4.713.48-.192-.432-4.725-1.888-4.207-3.156 1.38-.833 3.786 2.704 4.292 2.991" style="fill:#5a8b39;fill-opacity:1;stroke:#3b5b25;stroke-width:.198437;stroke-linecap:round;stroke-linejoin:round;stroke-miterlimit:2;stroke-opacity:1" transform="translate(8.814 4.634)"/><path d="M14.57 29.806c.008-1.118-2.233-4.202-.765-5.12 1.69.083.704 4.123.96 5.126.59-.662 1.614-5.113 3.33-4.682.878 1.278-2.963 4.323-3.102 4.714.749-.232 4.162-3.143 5.37-1.547-.163 1.288-4.358 1.211-5.264 1.66.747.16 5.02-.887 5.129.737-.722 1.227-4.037-.558-5.216-.548 1.004.655 3.99 1.338 3.158 2.635-.922.886-2.5-1.861-3.326-2.558.346 1.288 2.084 3.023.753 3.7-1.914-.287-.774-2.699-.969-3.743-.767.704-1.675 3.747-3.433 3.002-.436-1.7 2.98-2.581 3.302-3.083-.39-.15-4.417.722-4.725-.608.63-1.235 4.25.508 4.713.48-.192-.432-4.725-1.888-4.207-3.156 1.38-.833 3.786 2.704 4.292 2.991" style="display:inline;fill:#5a8b39;fill-opacity:1;stroke:#3b5b25;stroke-width:.198437;stroke-linecap:round;stroke-linejoin:round;stroke-miterlimit:2;stroke-opacity:1" transform="translate(8.814 4.634)"/><path d="M8.752 32.63c.075-1.092 2.768-3.952 1.224-4.945-1.864-.032-1.082 3.975-1.44 4.937-.599-.685-1.39-5.096-3.309-4.79-1.06 1.189 2.933 4.415 3.057 4.806-.805-.276-4.34-3.343-5.786-1.866.082 1.268 4.7 1.471 5.662 1.97-.834.105-5.453-1.2-5.693.378.701 1.245 4.479-.276 5.773-.189-1.152.573-4.486 1.04-3.668 2.362.948.926 2.887-1.65 3.848-2.275-.477 1.233-2.517 2.811-1.105 3.56 2.125-.154 1.053-2.582 1.345-3.588.79.738 1.561 3.768 3.549 3.157.606-1.63-3.082-2.716-3.399-3.227.44-.12 4.802.998 5.24-.28-.601-1.247-4.71.214-5.217.156.243-.409 5.335-1.529 4.86-2.8-1.453-.905-4.364 2.386-4.94 2.633M23.595 32.74c.596-.671 3.786-1.178 3.279-2.6-1.198-.957-2.7 2.041-3.416 2.487-.046-.746 1.653-4.013.25-4.778-1.287.24-.307 4.345-.423 4.662-.385-.585-1.146-4.356-2.83-4.122-.583.865 2.321 3.319 2.697 4.127-.596-.35-2.947-3.52-3.896-2.616-.168 1.162 3.055 2.072 3.854 2.78-1.038-.207-3.443-1.579-3.574-.309.152 1.079 2.708.378 3.647.455-.93.562-3.05.563-2.507 1.76 1.46.968 1.982-1.15 2.677-1.657.145.877-.875 3.235.725 3.836 1.213-.754-.642-3.315-.592-3.806.348.143 2.625 3.062 3.552 2.451.235-1.112-3.173-2.228-3.475-2.52.364-.144 4.241 1.687 4.57.622-.491-1.32-4.039-.642-4.538-.772" style="fill:#5a8b39;fill-opacity:1;stroke:#3b5b25;stroke-width:.198437;stroke-linecap:round;stroke-linejoin:round;stroke-miterlimit:2;stroke-opacity:1" transform="translate(8.814 4.634)"/><g style="stroke-width:.716007"><path d="M10.842 79.8s-.897-7.966-.734-8.24c.358.057 1.11 8.167 1.11 8.167z" style="fill:#697f21;fill-opacity:1;stroke:none;stroke-width:.142082;stroke-linecap:round;stroke-linejoin:round;stroke-miterlimit:2;stroke-opacity:1" transform="matrix(1.3632 .30523 -.30539 1.36252 27.787 -53.99)"/><path d="M9.922 71.672c-.326-1.127-3.5-3.561-2.298-4.923 1.726-.421 1.939 3.938 2.496 4.871.397-.842.098-5.627 1.954-5.706 1.265 1.024-1.691 5.235-1.715 5.67.684-.457 3.25-4.405 4.942-3.16.222 1.345-4.024 2.52-4.802 3.243.8-.063 4.789-2.392 5.382-.79-.36 1.45-4.23.643-5.412 1.005 1.205.36 4.415.156 3.964 1.71-.663 1.166-3.071-1.128-4.11-1.582.732 1.192 2.999 2.42 1.861 3.498-2.011.282-1.584-2.484-2.092-3.477-.562.938-.567 4.271-2.558 4.045-.947-1.58 2.228-3.486 2.402-4.087-.438-.035-4.23 2.045-4.937.798.266-1.43 4.428-.757 4.887-.923-.322-.378-5.32-.49-5.177-1.92 1.14-1.25 4.618 1.59 5.213 1.728" style="fill:#5a8b39;fill-opacity:1;stroke:#3b5b25;stroke-width:.142082;stroke-linecap:round;stroke-linejoin:round;stroke-miterlimit:2;stroke-opacity:1" transform="matrix(1.3632 .30523 -.30539 1.36252 27.787 -53.99)"/></g></g></svg>