<?xml version="1.0" encoding="UTF-8" standalone="no"?>
<!-- Created with Inkscape (http://www.inkscape.org/) -->

<svg
   width="4.0705523mm"
   height="4.0700922mm"
   viewBox="0 0 4.0705523 4.0700922"
   version="1.1"
   id="svg1"
   xml:space="preserve"
   xmlns="http://www.w3.org/2000/svg"
   xmlns:svg="http://www.w3.org/2000/svg"><defs
     id="defs1" /><g
     id="layer1"
     transform="translate(-41.759338,-107.29659)"><path
       id="path27-0-6-7"
       style="baseline-shift:baseline;display:inline;overflow:visible;vector-effect:none;fill:#388e3c;fill-opacity:1;stroke-linejoin:round;enable-background:accumulate;stop-color:#000000"
       d="m 43.794876,107.29658 -0.113688,0.18707 c 0,0 -0.158866,0.25821 -0.241846,0.5333 -0.03457,0.11459 -0.06048,0.23452 -0.04341,0.35295 -0.07151,-0.0955 -0.173599,-0.1615 -0.279052,-0.21808 -0.25319,-0.13585 -0.548804,-0.20722 -0.548804,-0.20722 l -0.212907,-0.0527 0.05271,0.21291 c 0,0 0.07138,0.29561 0.207222,0.5488 0.05661,0.10552 0.122444,0.20805 0.218075,0.27957 -0.118467,-0.0167 -0.238308,0.0104 -0.35295,0.045 -0.275086,0.083 -0.533301,0.24029 -0.533301,0.24029 l -0.187585,0.11317 0.187585,0.11318 c 0,0 0.258215,0.15938 0.533301,0.24236 0.114616,0.0346 0.234509,0.06 0.35295,0.0429 -0.09559,0.0715 -0.161477,0.17356 -0.218075,0.27905 -0.13584,0.25319 -0.207222,0.5488 -0.207222,0.54881 l -0.05271,0.2129 0.212907,-0.0527 c 0,0 0.295614,-0.0709 0.548804,-0.2067 0.105437,-0.0566 0.207545,-0.12256 0.279052,-0.21808 -0.01704,0.11839 0.0089,0.23787 0.04341,0.35244 0.08298,0.27508 0.241846,0.5333 0.241846,0.5333 l 0.113688,0.18758 0.113172,-0.18758 c 0,0 0.157316,-0.25822 0.240295,-0.5333 0.03459,-0.11468 0.06113,-0.23446 0.04444,-0.35295 0.07151,0.0956 0.174033,0.16197 0.279569,0.21859 0.253191,0.13584 0.548804,0.2067 0.548804,0.2067 l 0.212907,0.0527 -0.05271,-0.2129 c 0,0 -0.07138,-0.29562 -0.207222,-0.54881 -0.05655,-0.10541 -0.122093,-0.20755 -0.217558,-0.27905 0.118366,0.017 0.237892,-0.008 0.352433,-0.0429 0.275086,-0.083 0.533301,-0.24236 0.533301,-0.24236 l 0.187585,-0.11318 -0.187585,-0.11317 c 0,0 -0.258215,-0.15731 -0.533301,-0.24029 -0.114718,-0.0346 -0.234922,-0.0617 -0.353467,-0.045 0.09575,-0.0715 0.161933,-0.17397 0.218592,-0.27957 0.13584,-0.25319 0.207222,-0.5488 0.207222,-0.5488 l 0.05271,-0.21291 -0.212907,0.0527 c 0,0 -0.295613,0.0714 -0.548804,0.20722 -0.105526,0.0566 -0.208054,0.12244 -0.279569,0.21808 0.01666,-0.11847 -0.0099,-0.23832 -0.04444,-0.35295 -0.08298,-0.27509 -0.240295,-0.5333 -0.240295,-0.5333 z" /><ellipse
       style="fill:#61c166;fill-opacity:1;stroke:none;stroke-width:0.1;stroke-linecap:butt;stroke-linejoin:miter;stroke-miterlimit:2;stroke-dasharray:none;stroke-opacity:1"
       id="path52-6-9-7"
       cx="43.794617"
       cy="109.33163"
       rx="0.57580203"
       ry="0.55976021" /></g></svg>
