<?xml version="1.0" encoding="UTF-8" standalone="no"?>
<!-- Created with Inkscape (http://www.inkscape.org/) -->

<svg
   width="4.0709968mm"
   height="4.0700521mm"
   viewBox="0 0 4.0709968 4.0700521"
   version="1.1"
   id="svg1"
   xml:space="preserve"
   xmlns="http://www.w3.org/2000/svg"
   xmlns:svg="http://www.w3.org/2000/svg"><defs
     id="defs1" /><g
     id="layer1"
     transform="translate(-64.593946,-107.547)"><path
       id="path27-0-6-7-3-5-3-8"
       style="baseline-shift:baseline;display:inline;overflow:visible;fill:#ffffff;fill-opacity:1;stroke:#3b3b3b;stroke-width:0.1;stroke-linejoin:round;stroke-dasharray:none;stroke-opacity:1;enable-background:accumulate;stop-color:#000000"
       d="m 66.629706,107.59699 -0.110908,0.18247 c 0,0 -0.154981,0.25186 -0.235932,0.52018 -0.03372,0.11178 -0.059,0.22876 -0.04235,0.34428 -0.06976,-0.0932 -0.169354,-0.15753 -0.272228,-0.21272 -0.246998,-0.13251 -0.535383,-0.20213 -0.535383,-0.20213 l -0.207701,-0.0514 0.05142,0.20767 c 0,0 0.06963,0.28834 0.202155,0.53531 0.05522,0.10292 0.119449,0.20293 0.212742,0.27269 -0.11557,-0.0163 -0.232481,0.0101 -0.344319,0.0439 -0.268359,0.081 -0.52026,0.23438 -0.52026,0.23438 l -0.182997,0.11038 0.182997,0.1104 c 0,0 0.251901,0.15546 0.52026,0.2364 0.111813,0.0337 0.228774,0.0585 0.344319,0.0419 -0.09325,0.0697 -0.157528,0.16929 -0.212742,0.27218 -0.132518,0.24697 -0.202155,0.53531 -0.202155,0.53532 l -0.05142,0.20766 0.207701,-0.0514 c 0,0 0.288385,-0.0692 0.535383,-0.20162 0.102859,-0.0552 0.20247,-0.11954 0.272228,-0.21272 -0.01662,0.11548 0.0087,0.23202 0.04235,0.34378 0.08095,0.26831 0.235932,0.52018 0.235932,0.52018 l 0.110908,0.18297 0.110404,-0.18297 c 0,0 0.153469,-0.25187 0.234419,-0.52018 0.03374,-0.11186 0.05964,-0.2287 0.04335,-0.34427 0.06976,0.0932 0.169778,0.15798 0.272733,0.21321 0.246999,0.1325 0.535383,0.20162 0.535383,0.20162 l 0.207701,0.0514 -0.05142,-0.20766 c 0,0 -0.06964,-0.28835 -0.202155,-0.53532 -0.05517,-0.10281 -0.119107,-0.20244 -0.212238,-0.27218 0.115472,0.0166 0.232075,-0.008 0.343815,-0.0419 0.268359,-0.081 0.520259,-0.2364 0.520259,-0.2364 l 0.182998,-0.1104 -0.182998,-0.11038 c 0,0 -0.2519,-0.15344 -0.520259,-0.23438 -0.111913,-0.0337 -0.229177,-0.0602 -0.344823,-0.0439 0.09341,-0.0697 0.157973,-0.16969 0.213246,-0.27269 0.132518,-0.24697 0.202155,-0.53531 0.202155,-0.53531 l 0.05142,-0.20767 -0.207701,0.0514 c 0,0 -0.288384,0.0697 -0.535383,0.20213 -0.102946,0.0552 -0.202966,0.11943 -0.272733,0.21272 0.01625,-0.11556 -0.0097,-0.23246 -0.04335,-0.34428 -0.08095,-0.26832 -0.234419,-0.52018 -0.234419,-0.52018 z" /><ellipse
       style="fill:none;fill-opacity:1;stroke:#3b3b3b;stroke-width:0.1;stroke-linecap:butt;stroke-linejoin:miter;stroke-miterlimit:2;stroke-dasharray:none;stroke-opacity:1"
       id="path52-6-9-7-7-6-4-3"
       cx="66.629448"
       cy="109.58202"
       rx="0.57580203"
       ry="0.55976021" /></g></svg>
