<?xml version="1.0" encoding="UTF-8" standalone="no"?>
<!-- Created with Inkscape (http://www.inkscape.org/) -->

<svg
   width="31.194174mm"
   height="41.130432mm"
   viewBox="0 0 31.194174 41.130432"
   version="1.1"
   id="svg1"
   xmlns="http://www.w3.org/2000/svg"
   xmlns:svg="http://www.w3.org/2000/svg">
  <defs
     id="defs1" />
  <g
     id="layer5"
     transform="translate(0.64041536,1.1503107)">
    <path
       style="fill:#008000;fill-opacity:1;stroke:#008000;stroke-width:0.500999;stroke-linecap:round;stroke-linejoin:round;stroke-miterlimit:5;stroke-dasharray:none;stroke-opacity:1"
       d="m 20.482759,39.529226 c 0.243664,-2.304453 0.818464,-4.63536 3.486375,-4.850989 2.157373,-1.973559 -0.504793,-2.187121 -1.814891,-0.955125 -1.3998,0.170033 2.436235,-1.745208 2.621367,-2.825609 2.020384,-3.427117 -2.684476,0.02137 -2.002126,-0.313801 1.250119,-0.814699 3.884235,-4.260631 0.481215,-3.013967 0.618901,-0.337371 3.345653,-2.907849 0.496118,-1.992859 -3.810057,0.02726 4.561415,-2.950405 0.910736,-3.292435 -3.24368,0.762134 0.930011,-1.066834 1.977462,-1.233732 2.622403,-1.32926 -4.053573,-1.16995 -2.051894,-1.699372 2.65144,0.760306 3.119907,-1.997834 0.111963,-1.369705 -3.536072,-0.07664 3.366592,-0.47687 0.317851,-1.178487 -2.126353,-0.110856 -4.404875,0.215534 -6.419319,-0.149153 0.452468,1.212796 2.78684,3.796555 -0.06846,2.333222 -3.37849,-1.127147 0.55299,2.643503 0.612166,3.597036 -1.234054,-1.474445 -3.508268,-0.757224 -1.207402,0.505606 0.952464,0.522951 3.289943,2.24151 0.643823,1.522313 -2.679962,0.931164 3.733424,4.038043 -0.495226,4.301849 -0.255355,1.405155 3.403685,4.792958 0.0073,3.351629 0.877885,1.445887 1.475491,3.071777 0.02974,4.160756 0.604914,1.703048 -1.996414,4.288511 -1.744672,1.408571 -0.498599,-2.161316 -1.202598,-3.929257 -0.0571,-5.889887 -0.613462,-0.993583 -2.561877,-2.650009 -0.111627,-2.717402 0.225395,-1.275119 -2.829295,-2.551595 -0.179111,-3.005079 1.307557,-1.356689 -2.856479,-2.715887 -0.566881,-3.688988 -0.276079,-1.322275 -2.518375,-3.22684 0.07726,-3.532407 0.905972,-1.165052 -1.265061,-2.997118 0.376977,-3.539132 0.02703,-1.828144 -3.456385,-2.34204 -2.741384,-0.04988 -1.782308,-0.674646 -3.2578321,1.225908 -3.8022876,1.736884 -2.5760879,0.21181 -1.0866763,2.26028 0.2409453,2.919398 -0.8298276,0.847089 -4.1995612,1.52796 -1.3190401,2.973235 1.0426025,0.207901 4.5269574,0.337347 1.6395033,1.18154 -1.3793874,0.168045 -2.8384565,1.525776 -0.5589854,1.224383 1.2616555,-0.223471 3.5800165,-0.269228 1.0978195,0.559577 -1.4094174,0.245746 -2.9898259,1.991962 -0.4789585,1.71724 1.2498385,-0.237305 3.4526385,0.925444 1.0227995,1.101712 -3.3092891,1.06672 3.70457,2.384624 -0.01993,3.207173 1.761036,1.709241 0.743419,4.468153 0.877165,6.474526 C 9.7773581,36.542019 9.9899156,32.643001 8.1221071,31.352075 7.2767455,31.235914 6.4528202,30.223331 7.8238199,30.243139 6.4283094,29.093103 3.9630928,28.073095 6.4655416,26.379517 6.4389518,24.32924 2.9282956,22.291847 6.0777371,21.137655 7.466116,19.397156 4.6034232,17.109315 6.8053517,16.315948 5.4755976,15.403238 6.1843556,14.125694 6.2284857,13.327696 4.7665827,11.97788 2.2420801,14.781199 3.7549488,14.859171 c -2.354645,0.01813 -3.1159899,2.643059 -1.2712091,3.992794 -0.179626,1.804232 -3.10480387,3.587548 -0.402326,5.117528 1.1990776,1.056501 1.4862097,3.147424 -0.4730434,3.181793 -0.573389,1.66063 2.4987798,4.016812 -0.4827774,4.678001 -0.48442999,2.878781 3.0599959,4.165844 4.6724075,6.01216 2.3070618,1.83681 5.4688376,1.826256 8.2781196,1.888174 1.944987,-0.565445 5.162728,0.288975 6.333873,-0.590128 l -0.177022,-0.297165"
       id="path4" />
    <path
       style="fill:#ff6600;fill-opacity:1;stroke:#bd4b00;stroke-width:0.500999;stroke-linecap:round;stroke-linejoin:round;stroke-miterlimit:5;stroke-dasharray:none;stroke-opacity:1"
       d="m 6.0936666,14.041927 c 0.3657211,0.19443 0.7386925,0.629759 2.0312223,-0.08831 0.2301669,-0.12787 0.5042382,-0.184694 0.7065121,-0.353256 0.1486228,-0.123852 0.1753312,-0.440921 0.3532558,-0.529884 0.075307,-0.03765 0.1370963,0.365452 0.4415703,0.44157 0.3063668,0.07659 1.3939169,-0.479272 1.6779659,-0.706512 0.32548,-0.260384 0.39979,-0.643841 0.618198,-0.971454 0.167805,-0.251707 0.706512,-0.199225 0.706512,-0.618198 0,-0.06582 -0.06387,-0.115511 -0.08831,-0.176628 -0.345055,-0.862637 -1.26772,-1.1378157 -1.942908,-1.677966 -0.03251,-0.026006 0.04882,-0.1014791 0.08831,-0.088314 0.09636,0.032119 0.971454,0.501269 0.971454,0.1766279 0,-0.4524049 -1.044725,-1.4440185 -1.413024,-1.7662802 C 10.133653,7.5863936 10.004244,7.5126055 9.8911689,7.4183768 9.8096299,7.3504273 9.5511746,7.1666962 9.6262271,7.2417487 9.793226,7.4087478 10.578893,7.9350983 10.685995,7.5066908 10.70196,7.4428307 10.627119,7.3889388 10.597681,7.3300629 10.514389,7.1634778 10.267003,6.6461287 10.156111,6.5352366 9.7313294,6.1104549 8.7956593,5.3871545 8.1248889,5.3871545 c -1.1617515,0 -0.9868021,1.9429084 -1.4130242,1.9429084 -0.2899307,0 -0.530883,-0.2332821 -0.794826,-0.3532561 C 5.1615808,6.6334168 4.2015904,6.5158537 3.6208745,7.2417487 3.1236658,7.8632594 3.0909903,8.1813267 3.0909903,8.919715 c 0,0.117752 0.091949,0.426815 0,0.353256 C 2.6859108,8.9489072 2.061036,7.9088849 1.4130242,8.1248889 1.0155927,8.2573661 0.82216963,8.7135331 0.79482608,9.0963429 c -0.016311,0.2283555 0.0846371,0.9861621 0,1.3247101 -0.1140233,0.456093 -0.33899081,-0.102579 -0.52988405,0.08831 C 0.07110767,10.703201 0.0343426,12.317362 0,12.540589 c -0.04723939,0.307056 -0.52954009,0.530572 -0.35325603,0.88314 0.0575115,0.115023 0.754498,0.297103 0.88314008,0.264942 0.51928275,-0.12982 0.10303484,-0.0098 0.35325605,-0.176628 0.3933365,-0.262224 0.8133562,0.0093 1.1480821,0.176628 0.2227089,0.111355 0.306374,-0.176628 0.4415701,-0.176628 0.177749,0 0.3236447,0.176628 0.529884,0.176628 0.235504,0 -0.029438,0.02944 0.088314,-0.08831 0.03547,-0.03547 0.214994,0.01665 0.2649421,0 0.3439324,-0.114644 0.00826,-0.08831 0.353256,-0.08831 0.3567541,0 0.5737905,0.110268 0.88314,0.264942 0.053322,0.02666 0.2241177,-0.04082 0.2649421,0 0.020815,0.02082 -0.020815,0.0675 0,0.08831 0.02761,0.02761 0.2078853,-0.160999 0.3532561,-0.08831 0.2754193,0.13771 0.5113713,0.158723 0.88314,0.264942 z"
       id="path5" />
    <path
       style="fill:#ff6600;fill-opacity:1;stroke:#bd4b00;stroke-width:0.500999;stroke-linecap:round;stroke-linejoin:round;stroke-miterlimit:5;stroke-dasharray:none;stroke-opacity:1"
       d="m 20.665478,7.8599468 c 0,-0.117752 0.117752,-0.353256 0,-0.353256 -0.117752,0 0.08326,0.4365193 0,0.353256 -1.165974,-1.1659737 -0.0043,-0.7968104 -1.32471,-1.4130242 -0.194206,-0.090629 -0.403886,-0.1766279 -0.618198,-0.1766279 -0.732036,0 -0.415966,1.2520734 -0.706512,1.32471 -0.235868,0.058967 -0.827897,-0.3697914 -0.971454,-0.44157 -0.750975,-0.3754871 -1.894278,-0.9476441 -2.737735,-0.44157 -0.235736,0.141442 0.03133,1.5376633 -0.176627,1.5896521 -0.156687,0.039172 -0.425724,-0.2203018 -0.529885,-0.2649421 -0.358751,-0.1537502 -1.052839,-0.3624948 -1.32471,0 -0.05278,0.070372 -0.176628,0.382201 -0.176628,0.4415703 0,0.5031856 0.220536,1.0592705 0.44157,1.5013381 0.100262,0.2005239 0.365205,0.4176739 0.264942,0.6181979 -0.111709,0.223418 -0.391066,0.409972 -0.529884,0.618198 -0.21831,0.327465 -0.971454,1.412914 -0.971454,1.76628 0,0.09094 0.234595,0.744247 0.264942,0.794826 0.04009,0.06681 0.439473,0.321022 0.529884,0.44157 0.366637,0.488849 -0.300761,0.811502 -0.176628,1.059769 0.422363,0.844725 1.50898,-0.06759 2.119536,0.176628 0.356946,0.142778 0.600505,0.80718 1.148082,0.971454 0.409517,0.122855 1.074088,0.247836 1.501339,0.176628 0.375069,-0.06251 1.187106,-0.554529 1.589652,-0.353256 0.539958,0.269979 0.498062,0.522822 1.148082,0.44157 0.698478,-0.08731 0.800474,-1.186797 1.32471,-1.501339 0.490347,-0.294207 0.969326,0.362835 1.148082,-0.44157 0.03193,-0.143684 0,-0.294379 0,-0.44157 0,-1.112854 -0.353803,-1.943911 -0.88314,-2.914362 -0.0822,-0.150692 -0.173967,-0.29601 -0.264942,-0.44157 -0.05625,-0.09001 -0.176628,-0.158802 -0.176628,-0.264942 0,-0.02402 0.797183,0.02865 0.88314,0 0.769278,-0.256426 0.397894,-1.776798 0,-2.20785 C 21.232643,8.2315118 20.93042,8.0660128 20.665478,7.8599468 Z"
       id="path6" />
    <path
       style="fill:#ff6600;fill-opacity:1;stroke:#bd4b00;stroke-width:0.500999;stroke-linecap:round;stroke-linejoin:round;stroke-miterlimit:5;stroke-dasharray:none;stroke-opacity:1"
       d="m 28.437112,1.2363961 c -0.30629,-0.8167667 -0.01341,-0.70651205 -0.618199,-0.70651205 -0.294381,0 -0.588761,0 -0.883139,0 -0.294381,0 -0.588761,0 -0.883141,0 -0.14719,0 -0.337491,-0.10407906 -0.44157,0 -0.323108,0.32310784 0.786196,1.63524735 0,1.76628015 -1.034389,0.1723982 -2.020604,-0.067632 -3.002677,0.3532561 -0.08556,0.03667 -0.206788,0.015621 -0.264942,0.088314 -0.50286,0.6285759 0.994207,2.2049179 1.236396,2.7377345 0.589313,1.2964869 -0.831,0.4155003 -1.413024,0.7065118 -0.05888,0.029438 -0.14719,0.029438 -0.176628,0.088314 -0.124677,0.249355 0.27147,1.1406907 0.353256,1.32471 0.05427,0.1221065 0.227689,0.2925572 0.264942,0.44157 0.200441,0.801765 -1.030176,0.4110524 -1.148082,1.2363963 -0.149884,1.0491871 0.41246,2.0583691 0.264942,3.0909901 -0.04622,0.323572 -0.100032,0.665073 -0.176628,0.971454 -0.03193,0.12772 -0.150809,0.224162 -0.176628,0.353256 -0.01732,0.0866 0.02426,0.180026 0,0.264942 -0.202089,0.707313 -0.264942,-0.0425 -0.264942,0.971455 0,0.549061 0.512251,1.077474 0.794826,1.501338 0.440294,0.66044 -0.02859,0.0013 0.264942,0.44157 0.02309,0.03464 0.111407,0.05367 0.08831,0.08831 -0.161832,0.242749 -0.417043,0.137367 -0.353256,0.264942 0.27424,0.548479 3.586551,0.126571 3.797503,0 0.418612,-0.251167 0.226435,-1.097354 0.794826,-1.32471 0.05466,-0.02187 0.118554,0.0097 0.176627,0 0.620051,-0.103342 1.643203,0.01334 2.031223,-0.529884 0.565224,-0.791313 0.452548,-2.01146 0,-2.826049 -0.195192,-0.351343 -0.618199,-0.886782 -0.618199,-1.32471 0,-0.233675 0.632309,-0.381473 0.794826,-0.706512 0.186513,-0.373022 0.487186,-1.751706 0.441572,-2.2078503 -0.03016,-0.3016083 -0.139285,-0.5773126 -0.08832,-0.88314 0.07386,-0.4431263 0.997757,-1.2964953 1.05977,-1.8545942 0.0867,-0.780329 -0.341598,-1.5152311 -0.794827,-2.1195363 -0.217572,-0.2900974 -0.221842,-0.069934 -0.353255,-0.5298839 -0.145511,-0.5092793 0.288909,-0.6346086 0.08831,-1.2363962 -0.02944,-0.088314 -0.0069,-0.219733 -0.08831,-0.264942 -0.212196,-0.1178867 -0.471001,-0.117748 -0.706504,-0.176624 z"
       id="path7" />
    <path
       style="fill:#008000;fill-opacity:1;stroke:#008000;stroke-width:0.501;stroke-linecap:round;stroke-linejoin:round;stroke-miterlimit:5;stroke-dasharray:none;stroke-opacity:1"
       d="m 10.774309,16.779662 c 0.107864,-0.19452 0.445,0.203779 0.618198,0.08831 0.05477,-0.03651 0.05888,-0.117752 0.08831,-0.176628 0.431411,-0.862823 0.308118,-1.858517 0.08831,-2.737735 -0.04156,-0.166238 0.04156,-0.363646 0,-0.529884 -0.05207,-0.20829 -0.212869,-0.409908 -0.264942,-0.618198 -0.01428,-0.05712 0.01862,-0.120773 0,-0.176628 -0.01317,-0.03949 -0.08831,-0.04668 -0.08831,-0.08831 0,-0.497956 0.448215,-0.578326 0.353256,-1.148082 -0.124316,-0.745897 -0.643348,-1.362149 -0.794826,-2.119536 -0.124545,-0.622727 0.124545,-1.3201814 0,-1.9429081 -0.0608,-0.3039875 -0.140913,-0.2142921 -0.08831,-0.5298842 0.0615,-0.368993 0.364698,-0.5724314 0.264942,-0.971454 -0.05817,-0.2326727 -0.241012,-0.3428113 -0.353256,-0.5298842 -0.11417,-0.1902841 -0.44157,-0.8380545 -0.44157,-1.0597681 0,-0.3495609 0.343747,-0.2184078 0.529884,-0.2649419 0.2069,-0.051725 0.407168,-0.4025503 0.353256,-0.6181981 -0.0101,-0.040389 -0.07515,-0.048819 -0.08831,-0.088314 -0.0058,-0.017349 -0.03382,-0.6012899 0,-0.6181981 0.05266,-0.02633 0.11951,0.014279 0.176628,0 0.177666,-0.044416 0.350986,-0.1408485 0.529884,-0.176628 0.265367,-0.053073 0.543116,-0.025602 0.794826,-0.1766281 0.372928,-0.2237568 0.578147,-0.998155 1.148082,-0.618198 0.172299,0.1148658 0.04365,0.042626 0.08831,0.176628 0.03357,0.1006935 0.143064,0.1642485 0.176628,0.264942 0.178349,0.5350445 -0.176628,2.151075 -0.176628,2.7377343 0,0.5911641 0.02661,0.8576908 0.08831,1.4130242 0.03251,0.2925794 -0.02665,0.589969 0,0.88314 0.03788,0.416673 0.09611,0.8338082 0.176628,1.2363961 0.0736,0.3679751 -0.0736,0.7801072 0,1.1480821 0.126591,0.6329541 0.375115,1.2818711 0.264942,1.9429081 -0.09643,0.578573 -0.03878,-0.01075 -0.264942,0.44157 -0.05428,0.108562 -0.0405,0.241694 -0.08831,0.353256 -0.04181,0.09756 -0.137208,0.166394 -0.176628,0.264942 -0.04643,0.116078 -0.164526,0.685909 -0.176628,0.794826 -0.04532,0.407878 0.03221,0.755351 0.08831,1.148083 0.05499,0.384896 -0.0152,0.870848 -0.08831,1.236396 -0.08001,0.400076 -0.364748,0.453062 -0.618198,0.706512 -0.04655,0.04654 -0.04177,0.130082 -0.08831,0.176628 -0.04655,0.04654 -0.130082,0.04177 -0.176628,0.08831 -0.08052,0.08052 0,0.729736 0,0.88314"
       id="path8" />
    <path
       style="fill:#ff6600;fill-opacity:1;stroke:#bd4b00;stroke-width:0.500999;stroke-linecap:round;stroke-linejoin:round;stroke-miterlimit:5;stroke-dasharray:none;stroke-opacity:1"
       d="M 11.304193,9.6262271 C 10.802922,10.407851 9.9707035,10.131425 8.5664589,9.0080289 8.2150888,8.7269329 7.96247,8.4738278 7.6833187,8.1248889 7.6313048,8.0598713 7.5376139,8.0255688 7.5066908,7.9482608 7.3163678,7.4724532 7.9428731,7.6003927 8.0365747,7.5066908 8.2901805,7.253085 8.075642,6.6762089 7.9482608,6.4469226 7.6994757,5.9991092 7.266262,5.5463217 6.8884926,5.2105266 c -0.1908969,-0.1696863 -0.88314,-0.5554959 -0.88314,-0.88314 0,-0.3696785 1.5572055,-0.4109527 1.4130242,-1.0597682 C 7.3755381,3.0748446 7.235151,2.9175098 7.1534347,2.7377342 7.0878353,2.5934152 7.0719237,2.422987 6.9768068,2.2961642 6.818758,2.0854327 5.1811351,1.0155411 5.3871545,0.70651208 5.5439222,0.47136073 5.9539245,0.4795794 6.1819805,0.44157005 6.6599294,0.3619119 7.1171913,0.09556269 7.5950047,0 c 0.624386,-0.12487719 0.5882492,0.04889302 0.9714542,0.17662802 0.1729529,0.057651 1.0993747,0.0450671 1.32471,0 0.4947301,-0.09894607 0.8846191,-0.0149654 1.3247101,-0.08831401 0.211396,-0.03523266 0.406802,-0.14139536 0.618198,-0.17662802 0.37068,-0.06178001 0.779894,0.07363771 1.148082,0 0.814563,-0.1629126 0.250043,-0.93102199 0.794826,-0.79482609 0.415946,0.10398638 0.880182,1.28432587 1.236397,1.58965218 0.556823,0.47727712 1.378533,0.20694268 1.236396,1.05976812 -0.06522,0.3913511 -0.54804,0.6012744 -0.794826,0.971454 -0.02309,0.03464 -0.08831,0.046683 -0.08831,0.088314 0,0.3579492 0.361957,0.5429364 0.529884,0.7948261 0.373342,0.5600133 0.794826,1.3234886 0.794826,2.0312221 0,0.7927104 -1.115415,0.8310938 -1.148083,1.0597681 -0.100361,0.7025338 1.255776,1.7275223 1.148083,1.9429082 -0.167196,0.3343907 -0.580824,0.4291121 -0.88314,0.5298839 -0.174112,0.058037 -0.349596,0.2348939 -0.529884,0.2649421 -0.40951,0.068252 -1.006964,0.050758 -1.413025,0 -0.51065,-0.063831 -1.000615,-0.3414255 -1.501338,-0.44157 -0.09128,-0.018256 -0.171851,-0.088314 -0.264942,-0.088314 -0.08326,0 -0.113966,0.1217988 -0.176628,0.1766279 -0.736899,0.6447866 -0.868221,0.7094958 -1.76628,0.5298842 -0.15545,-0.03109 -0.2861201,-0.145538 -0.44157,-0.1766282 -0.057733,-0.011546 -0.117752,0 -0.1766281,0 -0.029438,0 0.058876,0 0.088314,0"
       id="path9" />
  </g>
</svg>
