<?xml version="1.0" encoding="UTF-8" standalone="no"?>
<!-- Created with Inkscape (http://www.inkscape.org/) -->

<svg
   width="1.5740894in"
   height="3.1259325in"
   viewBox="0 0 39.981872 79.398687"
   version="1.1"
   id="svg1"
   xml:space="preserve"
   xmlns:xlink="http://www.w3.org/1999/xlink"
   xmlns="http://www.w3.org/2000/svg"
   xmlns:svg="http://www.w3.org/2000/svg"
   xmlns:rdf="http://www.w3.org/1999/02/22-rdf-syntax-ns#"
   xmlns:cc="http://creativecommons.org/ns#"
   xmlns:dc="http://purl.org/dc/elements/1.1/"><defs
     id="defs1"><clipPath
       clipPathUnits="userSpaceOnUse"
       id="clipPath91"><rect
         style="fill:#307712;fill-opacity:1;stroke:#22540f;stroke-width:0.199727;stroke-linecap:round;stroke-dasharray:none;stroke-opacity:1"
         id="rect92"
         width="38.069874"
         height="118.50246"
         x="32.040295"
         y="-10.688685"
         transform="matrix(-0.99676199,-0.08040858,-0.2387915,0.97107086,0,0)" /></clipPath><clipPath
       clipPathUnits="userSpaceOnUse"
       id="clipPath92"><rect
         style="fill:#307712;fill-opacity:1;stroke:#22540f;stroke-width:0.198437;stroke-linecap:round;stroke-dasharray:none;stroke-opacity:1"
         id="rect93"
         width="47.970119"
         height="79.490532"
         x="14.295908"
         y="20.15893"
         transform="rotate(5.4309474)" /></clipPath><clipPath
       clipPathUnits="userSpaceOnUse"
       id="clipPath93"><rect
         style="fill:#307712;fill-opacity:1;stroke:#22540f;stroke-width:0.198437;stroke-linecap:round;stroke-dasharray:none;stroke-opacity:1"
         id="rect94"
         width="47.970119"
         height="79.490532"
         x="27.555996"
         y="10.699265"
         transform="rotate(42.519849)" /></clipPath><clipPath
       clipPathUnits="userSpaceOnUse"
       id="clipPath94"><rect
         style="fill:#307712;fill-opacity:1;stroke:#22540f;stroke-width:0.198437;stroke-linecap:round;stroke-dasharray:none;stroke-opacity:1"
         id="rect95"
         width="47.970119"
         height="79.490532"
         x="27.487827"
         y="19.742125"
         transform="rotate(24.949309)" /></clipPath><clipPath
       clipPathUnits="userSpaceOnUse"
       id="clipPath95"><rect
         style="fill:#307712;fill-opacity:1;stroke:#22540f;stroke-width:0.198437;stroke-linecap:round;stroke-dasharray:none;stroke-opacity:1"
         id="rect96"
         width="47.970119"
         height="79.490532"
         x="-79.28112"
         y="12.857623"
         transform="rotate(-63.734522)" /></clipPath><clipPath
       clipPathUnits="userSpaceOnUse"
       id="clipPath96"><rect
         style="fill:#307712;fill-opacity:1;stroke:#22540f;stroke-width:0.198437;stroke-linecap:round;stroke-dasharray:none;stroke-opacity:1"
         id="rect97"
         width="47.970119"
         height="79.490532"
         x="5.6479902"
         y="-94.885361"
         transform="rotate(132.02537)" /></clipPath><clipPath
       clipPathUnits="userSpaceOnUse"
       id="clipPath97"><rect
         style="fill:#307712;fill-opacity:1;stroke:#22540f;stroke-width:0.198437;stroke-linecap:round;stroke-dasharray:none;stroke-opacity:1"
         id="rect98"
         width="47.970119"
         height="79.490532"
         x="42.774822"
         y="-28.620836"
         transform="rotate(52.79874)" /></clipPath><clipPath
       clipPathUnits="userSpaceOnUse"
       id="clipPath98"><rect
         style="fill:#307712;fill-opacity:1;stroke:#22540f;stroke-width:0.199727;stroke-linecap:round;stroke-dasharray:none;stroke-opacity:1"
         id="rect99"
         width="38.069874"
         height="109.00584"
         x="-63.704662"
         y="-1.1917887"
         transform="matrix(0.99676199,0.08040859,-0.2387915,0.97107086,0,0)" /></clipPath><clipPath
       clipPathUnits="userSpaceOnUse"
       id="clipPath99"><rect
         style="fill:#307712;fill-opacity:1;stroke:#22540f;stroke-width:0.199727;stroke-linecap:round;stroke-dasharray:none;stroke-opacity:1"
         id="rect100"
         width="38.069874"
         height="118.50246"
         x="32.040295"
         y="-10.688685"
         transform="matrix(-0.99676199,-0.08040858,-0.2387915,0.97107086,0,0)" /></clipPath><clipPath
       clipPathUnits="userSpaceOnUse"
       id="clipPath100"><rect
         style="fill:#307712;fill-opacity:1;stroke:#22540f;stroke-width:0.198437;stroke-linecap:round;stroke-dasharray:none;stroke-opacity:1"
         id="rect101"
         width="47.970119"
         height="79.490532"
         x="-85.253593"
         y="38.537189"
         transform="rotate(8.6428145)" /></clipPath><clipPath
       clipPathUnits="userSpaceOnUse"
       id="clipPath101"><rect
         style="fill:#307712;fill-opacity:1;stroke:#22540f;stroke-width:0.198437;stroke-linecap:round;stroke-dasharray:none;stroke-opacity:1"
         id="rect102"
         width="47.970119"
         height="151.99742"
         x="-59.514286"
         y="-32.999935"
         transform="rotate(17.354363)" /></clipPath><clipPath
       clipPathUnits="userSpaceOnUse"
       id="clipPath102"><rect
         style="fill:#307712;fill-opacity:1;stroke:#22540f;stroke-width:0.198437;stroke-linecap:round;stroke-dasharray:none;stroke-opacity:1"
         id="rect103"
         width="47.970119"
         height="79.490532"
         x="-11.918654"
         y="-4.9250636" /></clipPath><clipPath
       clipPathUnits="userSpaceOnUse"
       id="clipPath103"><rect
         style="fill:#307712;fill-opacity:1;stroke:#22540f;stroke-width:0.198437;stroke-linecap:round;stroke-dasharray:none;stroke-opacity:1"
         id="rect104"
         width="47.970119"
         height="79.490532"
         x="13.97203"
         y="42.960423"
         transform="matrix(-0.9233292,-0.38400936,-0.38400936,0.9233292,0,0)" /></clipPath><clipPath
       clipPathUnits="userSpaceOnUse"
       id="clipPath104"><rect
         style="fill:#307712;fill-opacity:1;stroke:#22540f;stroke-width:0.198437;stroke-linecap:round;stroke-dasharray:none;stroke-opacity:1"
         id="rect105"
         width="47.970119"
         height="79.490532"
         x="-11.918654"
         y="-4.9250636" /></clipPath><clipPath
       clipPathUnits="userSpaceOnUse"
       id="clipPath105"><rect
         style="fill:#307712;fill-opacity:1;stroke:#22540f;stroke-width:0.198437;stroke-linecap:round;stroke-dasharray:none;stroke-opacity:1"
         id="rect106"
         width="47.970119"
         height="79.490532"
         x="-11.918654"
         y="-4.9250636" /></clipPath><clipPath
       clipPathUnits="userSpaceOnUse"
       id="clipPath106"><rect
         style="fill:#307712;fill-opacity:1;stroke:#22540f;stroke-width:0.198437;stroke-linecap:round;stroke-dasharray:none;stroke-opacity:1"
         id="rect107"
         width="47.970119"
         height="79.490532"
         x="-11.918654"
         y="-4.9250636" /></clipPath><clipPath
       clipPathUnits="userSpaceOnUse"
       id="clipPath107"><rect
         style="fill:#307712;fill-opacity:1;stroke:#22540f;stroke-width:0.198437;stroke-linecap:round;stroke-dasharray:none;stroke-opacity:1"
         id="rect108"
         width="47.970119"
         height="79.490532"
         x="-11.918654"
         y="-4.9250636" /></clipPath><clipPath
       clipPathUnits="userSpaceOnUse"
       id="clipPath108"><rect
         style="fill:#307712;fill-opacity:1;stroke:#22540f;stroke-width:0.198437;stroke-linecap:round;stroke-dasharray:none;stroke-opacity:1"
         id="rect109"
         width="47.970119"
         height="79.490532"
         x="-95.624626"
         y="-33.384544"
         transform="rotate(-94.49979)" /></clipPath><clipPath
       clipPathUnits="userSpaceOnUse"
       id="clipPath109"><rect
         style="fill:#307712;fill-opacity:1;stroke:#22540f;stroke-width:0.198437;stroke-linecap:round;stroke-dasharray:none;stroke-opacity:1"
         id="rect110"
         width="47.970119"
         height="79.490532"
         x="-11.918654"
         y="-4.9250636" /></clipPath><clipPath
       clipPathUnits="userSpaceOnUse"
       id="clipPath110"><rect
         style="fill:#307712;fill-opacity:1;stroke:#22540f;stroke-width:0.198437;stroke-linecap:round;stroke-dasharray:none;stroke-opacity:1"
         id="rect111"
         width="47.970119"
         height="79.490532"
         x="18.061571"
         y="1.7136099"
         transform="rotate(8.7755047)" /></clipPath><clipPath
       clipPathUnits="userSpaceOnUse"
       id="clipPath111"><rect
         style="fill:#307712;fill-opacity:1;stroke:#22540f;stroke-width:0.198437;stroke-linecap:round;stroke-dasharray:none;stroke-opacity:1"
         id="rect112"
         width="47.970119"
         height="79.490532"
         x="-11.918654"
         y="-4.9250636" /></clipPath><clipPath
       clipPathUnits="userSpaceOnUse"
       id="clipPath112"><rect
         style="fill:#307712;fill-opacity:1;stroke:#22540f;stroke-width:0.198437;stroke-linecap:round;stroke-dasharray:none;stroke-opacity:1"
         id="rect113"
         width="47.970119"
         height="79.490532"
         x="-11.918654"
         y="-4.9250636" /></clipPath><clipPath
       clipPathUnits="userSpaceOnUse"
       id="clipPath113"><rect
         style="fill:#307712;fill-opacity:1;stroke:#22540f;stroke-width:0.198437;stroke-linecap:round;stroke-dasharray:none;stroke-opacity:1"
         id="rect114"
         width="47.970119"
         height="79.490532"
         x="-11.918654"
         y="-4.9250636" /></clipPath><clipPath
       clipPathUnits="userSpaceOnUse"
       id="clipPath114"><rect
         style="fill:#307712;fill-opacity:1;stroke:#22540f;stroke-width:0.198437;stroke-linecap:round;stroke-dasharray:none;stroke-opacity:1"
         id="rect115"
         width="47.970119"
         height="79.490532"
         x="-11.918654"
         y="-4.9250636" /></clipPath><clipPath
       clipPathUnits="userSpaceOnUse"
       id="clipPath115"><rect
         style="fill:#307712;fill-opacity:1;stroke:#22540f;stroke-width:0.198437;stroke-linecap:round;stroke-dasharray:none;stroke-opacity:1"
         id="rect116"
         width="47.970119"
         height="79.490532"
         x="34.554497"
         y="1.1440572"
         transform="rotate(46.676107)" /></clipPath><clipPath
       clipPathUnits="userSpaceOnUse"
       id="clipPath116"><rect
         style="fill:#307712;fill-opacity:1;stroke:#22540f;stroke-width:0.198437;stroke-linecap:round;stroke-dasharray:none;stroke-opacity:1"
         id="rect117"
         width="47.970119"
         height="79.490532"
         x="-11.918654"
         y="-4.9250636" /></clipPath><clipPath
       clipPathUnits="userSpaceOnUse"
       id="clipPath117"><rect
         style="fill:#307712;fill-opacity:1;stroke:#22540f;stroke-width:0.198437;stroke-linecap:round;stroke-dasharray:none;stroke-opacity:1"
         id="rect118"
         width="47.970119"
         height="79.490532"
         x="-11.918654"
         y="-4.9250636" /></clipPath><clipPath
       clipPathUnits="userSpaceOnUse"
       id="clipPath118"><rect
         style="fill:#307712;fill-opacity:1;stroke:#22540f;stroke-width:0.198437;stroke-linecap:round;stroke-dasharray:none;stroke-opacity:1"
         id="rect119"
         width="48.676826"
         height="79.490532"
         x="-58.780117"
         y="66.282349"
         transform="rotate(22.582254)" /></clipPath><clipPath
       clipPathUnits="userSpaceOnUse"
       id="clipPath119"><rect
         style="fill:#307712;fill-opacity:1;stroke:#22540f;stroke-width:0.198437;stroke-linecap:round;stroke-dasharray:none;stroke-opacity:1"
         id="rect120"
         width="47.970119"
         height="79.490532"
         x="-11.918654"
         y="-4.9250636" /></clipPath><clipPath
       clipPathUnits="userSpaceOnUse"
       id="clipPath120"><rect
         style="fill:#307712;fill-opacity:1;stroke:#22540f;stroke-width:0.198437;stroke-linecap:round;stroke-dasharray:none;stroke-opacity:1"
         id="rect121"
         width="47.970119"
         height="79.490532"
         x="-11.918654"
         y="-4.9250636" /></clipPath><clipPath
       clipPathUnits="userSpaceOnUse"
       id="clipPath121"><rect
         style="fill:#307712;fill-opacity:1;stroke:#22540f;stroke-width:0.198437;stroke-linecap:round;stroke-dasharray:none;stroke-opacity:1"
         id="rect122"
         width="47.970119"
         height="79.490532"
         x="-11.918654"
         y="-4.9250636" /></clipPath></defs><g
     id="layer1"
     transform="translate(-37.756967,-29.754769)"><g
       id="g80"
       transform="translate(7.912551,22.605972)"
       style="display:inline"><path
         style="fill:#e9fc95;fill-opacity:1;stroke:#b1d47a;stroke-width:0.484872;stroke-linecap:round;stroke-dasharray:none;stroke-opacity:1"
         id="path79"
         d="m -35.939178,25.125873 c 0.261001,-0.343168 -0.155865,4.907819 0.256998,4.783603 0.412864,-0.124217 -2.832203,-4.273455 -2.425177,-4.131273 0.407026,0.142182 -4.715778,1.368362 -4.470059,1.722634 0.245718,0.354272 3.189098,-4.014155 3.179653,-3.583114 -0.0094,0.431042 -2.758646,-4.062124 -3.019647,-3.718956 -0.261001,0.343169 4.803174,1.792571 4.390311,1.916787 -0.412864,0.124216 3.010841,-3.878893 2.603815,-4.021075 -0.407027,-0.142182 -0.220573,5.122025 -0.466292,4.767753 -0.245719,-0.354272 4.619448,1.664836 4.628893,1.233794 0.0094,-0.431041 -4.939496,1.373016 -4.678495,1.029847 z"
         transform="matrix(0.40937425,0,0,0.40913867,27.089744,28.313768)" /><path
         style="display:inline;fill:#e9fc95;fill-opacity:1;stroke:#b1d47a;stroke-width:0.484872;stroke-linecap:round;stroke-dasharray:none;stroke-opacity:1"
         id="path79-8"
         d="m -35.939178,25.125873 c 0.261001,-0.343168 -0.155865,4.907819 0.256998,4.783603 0.412864,-0.124217 -2.832203,-4.273455 -2.425177,-4.131273 0.407026,0.142182 -4.715778,1.368362 -4.470059,1.722634 0.245718,0.354272 3.189098,-4.014155 3.179653,-3.583114 -0.0094,0.431042 -2.758646,-4.062124 -3.019647,-3.718956 -0.261001,0.343169 4.803174,1.792571 4.390311,1.916787 -0.412864,0.124216 3.010841,-3.878893 2.603815,-4.021075 -0.407027,-0.142182 -0.220573,5.122025 -0.466292,4.767753 -0.245719,-0.354272 4.619448,1.664836 4.628893,1.233794 0.0094,-0.431041 -4.939496,1.373016 -4.678495,1.029847 z"
         transform="matrix(0.33384159,0.23679628,-0.23693263,0.33364947,30.001794,38.965564)" /></g></g><g
     id="layer7"
     style="display:inline"
     transform="translate(9.0207954,4.5525577)"><path
       style="fill:#307712;fill-opacity:1;stroke:#22540f;stroke-width:0.198437;stroke-linecap:round;stroke-dasharray:none;stroke-opacity:1"
       d="m 1.1327647,74.713217 -2.0685268,-16.20346 2.9550381,4.481809 0.3201289,-4.235555 1.4898317,4.137054 2.7145893,-3.682449 10.3074381,0.805511 0.939839,4.372858 1.028452,1.098939 c 0,0 1.557664,-6.198769 2.811381,-6.790802 0.870636,0.417906 1.418362,0.452894 1.418362,0.452894 l -1.717797,15.577627 z"
       id="path75" /></g><g
     id="layer5"
     transform="translate(9.0207954,4.5525577)"><path
       id="path41"
       clip-path="none"
       style="fill:#307712;fill-opacity:1;stroke:#22540f;stroke-width:0.198437;stroke-linecap:round;stroke-dasharray:none;stroke-opacity:1"
       d="M 14.102498,-3.3992757 C 13.066422,-1.637023 12.37434,8.3028449 11.912451,20.518127 6.6574342,0.99177165 -3.7291521,1.6990785 -4.5263387,2.1983154 3.8664786,2.9065457 8.5623386,11.106723 11.13162,21.372339 c -0.655269,0.176931 -1.092171,0.504596 -1.3161985,0.710551 -0.016598,0.0061 -0.033918,0.01252 -0.052193,0.01912 -0.064859,0.06789 -0.127587,0.143607 -0.188619,0.22686 C 8.0841799,18.015973 6.1916168,15.170128 4.3217,13.307198 3.9686582,9.7993633 3.5480078,7.3807163 3.0468424,6.6352539 3.259293,7.5420477 3.4570979,9.682638 3.6400879,12.669511 0.33082371,9.7653346 -2.7429961,9.7914838 -3.1843018,10.012309 c 2.7548389,0.500507 5.0238835,1.78594 6.8838176,3.663859 0.1725454,3.040241 0.3313047,6.821639 0.4759399,11.001395 -1.4315253,-1.486748 -2.8519072,-2.575672 -4.19767657,-3.366719 -0.56806095,-3.14868 -1.12938403,-5.152041 -1.65416263,-5.359363 0.2482603,0.620741 0.5618292,2.390731 0.91518965,4.950086 -4.20091945,-2.183653 -7.52561375,-1.51756 -7.92509765,-1.237651 3.0084752,-0.125234 5.6718299,0.614952 8.02845052,1.999361 0.42219212,3.168748 0.89539927,7.370284 1.37976074,12.02769 C 0.65363188,33.597159 0.58602715,33.506106 0.51883138,33.417598 -0.50352217,28.44334 -1.543933,24.738689 -2.462382,24.035225 c 0.4561972,0.919094 1.1196524,3.980582 1.86190186,8.084778 -1.30959126,-1.306286 -2.27220846,-1.497802 -2.59777426,-1.13068 1.0143626,0.509641 1.9602449,1.371168 2.84065349,2.495455 0.29842175,1.69984 0.60699261,3.542487 0.91777344,5.461682 -0.87128295,0.937744 -1.91856593,2.364009 -3.15639653,4.510319 -2.9200412,-3.251537 -5.7713377,-1.858571 -6.0476928,-1.533757 2.3591815,-0.684739 4.2599004,0.168849 5.7913777,1.983342 -0.6435608,1.14348 -1.336702,2.478105 -2.0815267,4.033862 -1.7074102,-2.388279 -3.1877777,-2.907085 -3.6607584,-2.544547 1.2716874,0.65791 2.365286,1.811006 3.3072916,3.291272 -0.2838236,0.606351 -0.5749709,1.244254 -0.8733317,1.915128 0.3518533,-0.588371 0.6907047,-1.149412 1.0169922,-1.684651 1.0113549,1.651983 1.8435158,3.683896 2.5305949,5.877677 -0.4679202,0.457807 -0.9459738,0.940366 -1.4345377,1.449524 -2.0428592,-2.552585 -3.9517435,-3.074091 -4.5020508,-2.762105 1.4370205,0.933055 2.6587348,2.177999 3.6964152,3.6158 -0.452451,0.487137 -0.9133735,0.996213 -1.3828613,1.528588 0.5015851,-0.486697 0.9935814,-0.95303 1.4753621,-1.399914 3.7036503,5.227361 5.023477,12.917494 5.42189127,17.481103 0,0 0.90069363,0.06459 0.98753663,-0.02791 -0.00942,-0.108938 -0.019133,-0.217675 -0.028939,-0.325561 0.00313,3e-5 0.00578,3.36e-4 0.00827,5.16e-4 C 1.3492981,69.998481 0.88705397,66.307893 0.32556152,63.103125 1.3035752,68.081007 2.6840739,74.801636 2.6840739,74.801636 l 0.8159709,-0.357601 c 4.095e-4,0.02372 0.01207,0.229736 0.012402,0.248563 9.096e-4,-3.9e-4 0.3470292,-0.148932 0.3953247,-0.151928 C 3.6884389,64.239935 2.7213776,57.071977 1.4133504,52.109998 1.7629001,51.857866 2.104894,51.618395 2.4391276,51.390662 3.5882913,63.893717 4.4948161,74.8776 4.4948161,74.8776 l 0.7462077,-0.710034 c 0.00292,0.224904 0.00413,0.342615 0.00413,0.342615 l 0.9146728,0.09715 c 0,0 -0.00531,-2.660392 -0.039791,-6.930843 0.4242315,3.971689 0.6986653,6.803719 0.6986653,6.803719 l 0.8423259,-0.340031 c 0,0 -0.632459,-8.300651 -1.6484782,-16.345772 -0.036594,-2.670782 -0.082347,-5.53401 -0.1390096,-8.491988 0.077541,-0.04106 0.1546144,-0.08136 0.2309936,-0.120923 0.3155701,1.210628 0.6084042,2.414647 0.8790162,3.589445 -0.067386,5.525275 0.1154138,11.73127 0.6087483,18.700667 0.047838,-0.0137 0.2530298,-0.01413 0.4413168,-0.01137 -0.017099,0.975767 -0.028171,1.969271 -0.033073,2.980696 0.00504,-0.001 0.012489,-0.0016 0.021187,-0.0021 0.1304779,-0.0067 0.6424617,0.04945 0.6438883,0.04961 5.367e-4,-0.872394 -0.034081,-5.351731 0.3653524,-11.439095 0.017932,0.66679 0.038761,1.340639 0.062012,2.022098 0.038615,-0.0095 0.1774231,-0.0069 0.3276286,-5.16e-4 0.015698,0.0776 0.030771,0.149804 0.044958,0.216007 7.341e-4,-2.43e-4 0.1059204,-0.03538 0.243396,-0.07906 0.060359,0.608918 0.1192219,1.195868 0.1767334,1.758032 -0.5197071,3.939955 -0.9940515,6.647372 -1.1136271,7.342188 0.00163,1e-4 0.6892272,0.04264 0.7792806,0.07803 0.2405725,-1.434094 0.4641849,-2.836496 0.6723099,-4.208012 0.277279,2.560755 0.464055,4.10621 0.464055,4.10621 l 0.30179,-0.08268 c -1.93e-4,0.08225 -5.17e-4,0.124024 -5.17e-4,0.124024 l 0.91519,-0.111105 c 0,0 0.0834,-7.660207 0.246497,-18.184419 0.687421,2.258726 1.240144,4.2013 1.594734,5.424992 -0.103778,1.887425 -0.202618,3.158409 -0.236161,3.605464 6.52e-4,-2.2e-5 0.135647,-0.005 0.294039,-0.0078 -0.03673,0.608544 -0.07003,1.227305 -0.100252,1.856217 -0.711595,4.228171 -1.456242,7.433138 -1.456242,7.433138 l 0.668176,0.0956 c 0,0 0.264879,-1.146113 0.632519,-2.969845 -0.02076,0.992324 -0.03425,2.007281 -0.03927,3.045809 0.06536,-0.0135 0.537615,0.03861 0.538986,0.03876 3.37e-4,-0.563739 -0.0176,-2.982808 0.138492,-6.438883 0.220145,-1.228934 0.445288,-2.571061 0.653191,-3.963582 0.0035,0.02769 0.0069,0.05548 0.01033,0.0832 -0.109616,6.017421 -0.12299,10.329602 -0.12299,10.329602 l 0.91519,-0.06718 c 0,0 0.02707,-1.505576 0.08061,-3.979085 0.205549,1.352419 0.426458,2.734869 0.663525,4.148067 0.09005,-0.03539 0.777139,-0.07793 0.778764,-0.07803 -0.03208,-0.186395 -0.08976,-0.517225 -0.166915,-0.978235 0.09952,0.02197 0.185108,0.04135 0.236678,0.05323 -1.29e-4,0.04152 -5.17e-4,0.06253 -5.17e-4,0.06253 l 0.302824,-0.02687 c -0.03933,0.357212 -0.05994,0.547771 -0.05994,0.547771 l 0.803051,0.695048 c 0,0 2.693375,-22.22688 4.946468,-37.324854 0.409497,-0.955996 0.848564,-1.839163 1.3193,-2.631881 1.072792,1.655794 2.206773,3.519332 3.402893,5.615162 -2.555106,3.213618 -6.151691,11.734587 -7.447091,30.706136 -0.333496,1.958422 -0.527099,3.207556 -0.527099,3.207556 l 0.820105,0.358634 c 0,0 0.03228,-0.181832 0.09302,-0.515731 0.175663,0.03718 0.323678,0.07112 0.324528,0.07131 0.07664,-0.660125 0.171951,-1.883165 0.309025,-3.492293 1.346951,-7.164309 4.206029,-21.728965 5.444112,-23.152076 -1.292219,0.234689 -2.806478,5.475777 -4.09484,11.255644 1.023739,-6.717996 2.685948,-13.87078 5.462199,-17.76274 0.491951,0.872803 0.993732,1.784391 1.506368,2.736784 -0.467435,-1.014861 -0.926631,-1.985558 -1.377177,-2.914551 v -5.17e-4 c 0.63564,-0.857204 1.328239,-1.544439 2.08411,-2.019515 -0.354055,-0.329692 -1.272525,-0.05953 -2.428275,1.314132 -1.111707,-2.261074 -2.171352,-4.26383 -3.179134,-6.036841 0.780935,-1.186992 1.644806,-2.131655 2.600875,-2.763139 -0.439819,-0.420597 -1.618003,-0.0141 -3.061312,1.962671 -0.165981,-0.284971 -0.330416,-0.563666 -0.49351,-0.836124 0.01718,-0.106367 0.03409,-0.212338 0.05116,-0.317294 1.639835,-1.694981 3.548565,-2.908318 5.770708,-3.451469 -0.295981,-0.218874 -2.717599,-0.181944 -5.607927,2.462382 0.632004,-3.791894 1.177643,-6.489657 1.545126,-7.233667 -0.699695,0.219247 -1.532361,3.150543 -2.39572,7.49515 -1.393423,-2.242579 -2.676947,-4.024588 -3.851961,-5.433777 0.03982,-0.734175 0.08045,-1.437705 0.121956,-2.106331 2.310944,-2.908978 5.109301,-4.995725 8.497673,-5.822384 -0.36344,-0.268257 -3.324094,-0.224738 -6.867281,2.983797 -0.50617,0.458363 -1.024144,0.981298 -1.548226,1.577165 0.197873,-2.885887 0.413997,-4.95877 0.647505,-5.789311 -0.563741,0.698768 -1.02569,3.162235 -1.404048,6.696749 -0.249891,0.315674 -0.500672,0.648487 -0.751376,0.999423 -0.424303,-0.441378 -0.832303,-0.831544 -1.224214,-1.175639 2.141325,-6.982398 5.893681,-12.174496 12.15378,-13.311849 -0.726609,-0.3635881 -8.590554,-0.199449 -12.890169,12.7031 -0.893618,-0.690796 -1.693786,-1.133256 -2.402438,-1.399914 0.700533,-2.429668 1.517534,-4.738057 2.470134,-6.850228 2.558179,-3.497902 5.860855,-5.7788722 10.112044,-6.13761 C 25.927332,8.3034274 21.917182,7.924049 17.663521,12.02769 20.625923,6.7464204 24.674311,3.1994491 30.196606,2.9362549 29.506608,2.4681833 21.292921,1.5612528 15.281238,14.818734 14.47548,15.948771 13.683194,17.272082 12.92686,18.820557 13.247421,7.7797136 13.640554,-1.1446641 14.102498,-3.3992757 Z M 4.4328044,14.471468 c 2.0146772,2.341874 3.5008945,5.433861 4.5754313,8.981364 C 8.4940909,24.862744 8.1775476,27.037802 8.009847,29.710331 7.0725056,28.185099 6.1151362,26.877958 5.1562744,25.758634 4.9571036,21.499855 4.7184215,17.620599 4.4328044,14.471468 Z m 8.7617386,5.865275 c -0.102096,0.324472 -0.202767,0.654354 -0.302307,0.990637 -0.01203,-0.0023 -0.02421,-0.004 -0.03617,-0.0062 0.0016,-0.05921 0.0035,-0.118656 0.0052,-0.177767 0.108942,-0.27203 0.219831,-0.540766 0.333313,-0.806669 z m -2.372981,1.687236 c 0.145851,0.0024 0.305619,0.01404 0.47904,0.03772 0.03006,0.125746 0.05944,0.251963 0.08888,0.378272 -0.323885,0.877585 -0.636415,1.808873 -0.935344,2.797245 -0.185461,-0.704173 -0.380862,-1.376947 -0.584977,-2.018998 0.165717,-0.465288 0.350797,-0.859957 0.556038,-1.177189 0.118547,-0.01243 0.250507,-0.01945 0.396359,-0.01705 z M 0.12557373,22.15472 C 1.6127639,23.146888 2.9723995,24.4006 4.2152466,25.855269 4.3403364,29.599933 4.4544487,33.629102 4.5573446,37.708293 4.3663395,37.582642 4.1766737,37.486619 3.988387,37.423556 3.844219,37.332781 3.4815618,37.143212 2.8726929,37.300566 2.540013,36.63734 2.2122739,36.035366 1.8918742,35.489823 1.3216718,30.349141 0.72144436,25.654892 0.12557373,22.15472 Z M 13.487549,22.819279 c 0.676913,0.35645 1.445786,0.860908 2.308903,1.565796 -0.6628,2.264818 -1.219597,4.884059 -1.623157,7.911662 -0.02656,0.06545 -0.05311,0.130842 -0.07958,0.196887 -0.309412,-2.744537 -0.697366,-5.245259 -1.148767,-7.523572 0.171809,-0.72477 0.352513,-1.442203 0.542603,-2.150773 z m -1.714624,1.362191 c 0.0028,0.01348 0.0055,0.02682 0.0083,0.04031 -0.01742,0.52629 -0.03398,1.055755 -0.05064,1.5875 -0.190894,0.844686 -0.374316,1.719728 -0.54932,2.626197 -0.08531,-0.439501 -0.17445,-0.869067 -0.266651,-1.288294 0.264243,-1.011951 0.549878,-2.002143 0.858346,-2.96571 z m -2.3595461,0.702799 c 0.1882979,0.712819 0.3617626,1.441107 0.5208984,2.183329 -0.3532283,1.325359 -0.6828769,2.743517 -0.984436,4.260206 -0.071104,-0.129265 -0.1425289,-0.257391 -0.2139404,-0.383956 0.1174614,-2.369851 0.3339851,-4.439401 0.677478,-6.059579 z m 7.1432331,0.152446 c 0.287315,0.258001 0.583871,0.537262 0.889868,0.839225 -0.594427,0.920628 -1.186046,1.948278 -1.7663,3.094385 0.247639,-1.353341 0.538293,-2.668794 0.876432,-3.93361 z m 2.241724,0.190169 c -0.0058,0.06172 -0.01182,0.123282 -0.01757,0.185518 -0.02129,-0.0237 -0.04235,-0.04734 -0.06356,-0.0708 0.02694,-0.03852 0.05405,-0.07644 0.08113,-0.114722 z m -0.804602,1.203544 c 0.209248,0.217314 0.4228,0.445209 0.640271,0.683679 -0.348057,4.30488 -0.609797,9.56937 -0.806669,14.991333 -0.499767,1.412096 -0.974884,2.97134 -1.414384,4.692737 0.357726,-9.179322 0.836204,-17.519376 1.426786,-19.263424 -1.369244,1.409137 -2.13787,11.459887 -2.568319,21.909774 -0.02797,-0.101804 -0.0571,-0.201155 -0.08785,-0.297656 -0.08865,-0.406101 -0.178471,-0.806705 -0.269751,-1.201994 -0.01183,-3.417321 -0.117488,-6.583098 -0.30334,-9.515698 0.124733,-2.250124 0.325436,-4.47398 0.6196,-6.627503 0.815773,-1.930541 1.732726,-3.738926 2.763656,-5.371248 z M 5.2172526,27.103255 c 0.9801444,1.297301 1.8813854,2.721663 2.7104289,4.238501 -0.079694,2.051255 -0.087381,4.331698 -0.041341,6.741708 C 7.749257,39.220445 7.6258735,40.400322 7.5173706,41.624849 6.8916339,40.442144 6.2567052,39.43547 5.6260132,38.695312 5.514508,34.726588 5.3797995,30.790901 5.2172526,27.103255 Z m 14.1877644,0.882117 c 1.095769,1.274722 2.288173,2.813917 3.57911,4.669999 -1.344805,1.532778 -2.738451,3.659212 -4.029728,6.593913 0.134147,-4.034749 0.284437,-7.903849 0.450618,-11.263912 z m -6.746875,1.209745 c 0.263169,1.775568 0.480611,3.570164 0.658875,5.36143 -0.283622,0.801735 -0.560616,1.641943 -0.829924,2.522327 0.0535,-2.632198 0.110418,-5.275863 0.171049,-7.883757 z M 10.376111,29.3672 c 0.108509,0.634417 0.207836,1.276672 0.29869,1.925464 -0.139289,0.85941 -0.271683,1.744611 -0.396359,2.655651 C 10.085381,33.535617 9.8907231,33.133986 9.6944987,32.743738 9.8999458,31.602494 10.126661,30.474792 10.376111,29.3672 Z m -1.7094565,3.387907 c 0.00321,0.0064 0.00661,0.01271 0.00982,0.01912 -0.00398,0.02213 -0.00844,0.04449 -0.012402,0.06666 7.782e-4,-0.02876 0.00178,-0.05709 0.00258,-0.08578 z m 14.3117875,0.848527 c -0.2252,1.221668 -0.451903,2.525827 -0.677478,3.889685 -1.279743,2.924464 -2.585864,7.097309 -3.67161,12.907222 0.07921,-3.076201 0.167981,-6.236935 0.266133,-9.33173 1.095202,-2.843014 2.437628,-5.411021 4.082955,-7.465177 z m 0.823723,0.251147 c 0.0766,0.11444 0.15374,0.230131 0.230993,0.346749 -0.125786,0.194031 -0.253296,0.399663 -0.381888,0.617533 0.05067,-0.326367 0.100956,-0.647972 0.150895,-0.964282 z M 9.4226807,34.337439 c 0.213283,0.467323 0.4206751,0.940357 0.6227013,1.418518 C 9.691308,38.675188 9.4121669,41.848538 9.2226929,45.29801 9.0946756,44.990559 8.9655591,44.687527 8.8356364,44.389539 8.7674541,42.875488 8.7133544,41.375544 8.6769897,39.910225 8.8790185,38.042913 9.1252851,36.176791 9.4226807,34.337439 Z m 1.6887853,0.812353 c 0.02486,0.281058 0.04859,0.562466 0.0708,0.84491 -0.04587,-0.110094 -0.09187,-0.219469 -0.137976,-0.328145 0.0221,-0.172324 0.04436,-0.344333 0.06718,-0.516765 z m 2.385901,1.374594 c 0.04589,0.544452 0.08838,1.087829 0.127641,1.629357 -0.07929,1.372271 -0.131172,2.811311 -0.152962,4.319633 -0.290622,-0.971104 -0.589413,-1.902454 -0.896069,-2.795178 0.285883,-1.066567 0.592229,-2.120121 0.92139,-3.153812 z m -2.691825,1.119828 c 0.196895,0.51337 0.387809,1.030838 0.573092,1.551843 0.0027,0.06054 0.0051,0.121337 0.0078,0.181901 -0.01264,0.623656 -0.02483,1.245823 -0.03669,1.866036 -0.421691,1.73622 -0.814162,3.600969 -1.171505,5.603276 -0.04625,0.0072 -0.09293,0.01472 -0.140043,0.02274 0.163372,-2.936891 0.408055,-6.056577 0.767395,-9.225793 z m -7.5923014,0.165364 c 0.4384006,-0.0226 0.89543,0.203207 1.3627075,0.628386 0.024105,0.969403 0.047443,1.941104 0.07028,2.91145 -0.50628,-1.31228 -1.0102531,-2.475341 -1.5048177,-3.502629 0.024655,-0.01317 0.048357,-0.02557 0.07183,-0.03721 z m -0.7622274,0.520899 c 0.8340094,1.841239 1.5871111,3.890158 2.2639445,6.01617 0.03433,1.538889 0.067117,3.067143 0.098185,4.571297 -0.049632,0.0289 -0.099813,0.05824 -0.1498617,0.08785 C 4.0576041,45.902086 3.3877191,43.606419 2.6799398,43.031482 2.5303613,41.519666 2.3771657,40.014569 2.2210531,38.533565 c 0.080317,-0.07411 0.1570592,-0.141449 0.2299601,-0.203088 z m 3.203422,1.398364 c 0.5826922,0.851398 1.1724715,1.943448 1.7554484,3.187919 -0.1204878,1.543184 -0.2181697,3.154466 -0.2904215,4.836914 -0.1060483,0.04484 -0.2133641,0.09154 -0.3219442,0.140043 C 6.459204,46.693003 6.1169509,45.57069 5.773291,44.522347 5.7370419,42.931704 5.6977466,41.329056 5.6544352,39.728841 Z M 0.75344238,40.14742 C 1.2959928,43.541263 1.8405392,47.123964 2.3455933,50.540068 1.9790001,50.807433 1.6036156,51.092311 1.219047,51.396346 0.23838784,47.922799 -0.91441085,45.605603 -2.0794596,44.081547 -0.91038695,42.325421 0.01407446,41.061822 0.75344238,40.14742 Z M 12.46849,42.502832 c 0.362178,1.185984 0.69769,2.378319 1.008207,3.566707 0.0052,0.324484 0.01178,0.652059 0.01964,0.982369 -0.250394,-0.09202 -0.601883,-0.192031 -1.056266,-0.253731 0.03574,-1.490598 0.04443,-2.921502 0.02842,-4.295345 z m 9.023738,0.13901 c -1.294547,8.629761 -2.491653,18.378452 -3.235978,24.737508 0.03725,-2.007154 0.08382,-4.402455 0.140043,-7.043498 0.608774,-5.700397 1.557157,-12.222083 3.095935,-17.69401 z M 2.7310994,43.54928 c 0.3496433,1.093882 0.7477464,3.248895 1.1549683,5.935038 C 3.7026758,49.601659 3.5165242,49.723785 3.3279622,49.850704 3.137555,47.769471 2.9379949,45.654239 2.7310994,43.54928 Z M 17.74672,44.428296 c -0.159906,4.874211 -0.270142,9.782928 -0.346232,14.151591 -0.08851,0.7479 -0.173437,1.515006 -0.254765,2.301668 -0.293487,-2.379353 -0.625236,-4.624239 -0.990637,-6.742224 0.0412,-1.294366 0.08473,-2.60198 0.130742,-3.907255 0.408214,-1.967607 0.890516,-3.921765 1.460892,-5.80378 z m -20.1186682,0.09508 c 1.3149056,1.822307 2.33533203,4.380237 3.12745764,7.245035 -0.51960733,0.423412 -1.05464501,0.880752 -1.60610352,1.374593 -0.89147962,-3.079926 -1.80958912,-5.280489 -2.63653162,-5.430676 0.4655073,0.535076 1.1598906,2.928077 1.9171957,6.086967 -0.1119109,0.104075 -0.2242797,0.209221 -0.3374471,0.31626 C -2.8234116,51.506503 -3.8035229,49.597679 -4.72736,48.236844 -3.8514174,46.8127 -3.0700994,45.58412 -2.3719482,44.523376 Z M 11.277865,45.26855 c -0.0083,0.493927 -0.01645,0.985308 -0.02429,1.474328 -0.08531,0.0029 -0.172592,0.0076 -0.262,0.01344 0.09177,-0.495915 0.187149,-0.992068 0.286288,-1.487764 z m -3.1011031,0.500228 c 0.027598,0.516488 0.057011,1.033868 0.087333,1.551843 -0.060164,0.02001 -0.1207613,0.04076 -0.1819011,0.06201 0.028695,-0.535255 0.059865,-1.073348 0.094568,-1.613855 z m 0.7648112,0.774113 c 0.06493,0.167743 0.1293917,0.336306 0.1937866,0.505912 -2.173e-4,0.0048 -2.998e-4,0.0096 -5.168e-4,0.01447 -0.053865,0.01384 -0.1079944,0.02853 -0.1627807,0.04341 -0.010306,-0.187933 -0.020549,-0.375963 -0.030489,-0.563789 z m 4.2359169,0.608748 c 0.116253,0.09385 0.225806,0.200661 0.329179,0.319877 0.07032,2.607252 0.222674,5.39512 0.467155,8.375199 -0.03168,1.180465 -0.07141,2.276939 -0.114205,3.273702 -0.435256,-1.544939 -1.004883,-3.488016 -1.669665,-5.574336 0.0078,-0.489159 0.01561,-0.983373 0.02377,-1.48208 0.103553,-1.703778 0.175148,-3.339591 0.217041,-4.909778 0.290846,-0.01615 0.539565,-0.01393 0.746724,-0.0026 z m -1.932698,0.147278 c -0.01727,1.096959 -0.03355,2.179756 -0.04858,3.244763 -0.188632,-0.547705 -0.381982,-1.09677 -0.57981,-1.643311 0.08407,-0.508845 0.171579,-1.018654 0.263033,-1.529105 0.125676,-0.02686 0.24755,-0.05098 0.365353,-0.07235 z m -2.1445723,0.575675 c -0.011795,0.291907 -0.023036,0.585436 -0.03359,0.881083 -0.017073,-0.283901 -0.033802,-0.568024 -0.050126,-0.852144 0.028002,-0.0099 0.055959,-0.01932 0.083716,-0.02894 z M 8.314738,48.166569 c 0.166299,2.719519 0.3658032,5.43674 0.5777425,8.034652 -0.011501,0.113646 -0.022805,0.227264 -0.034107,0.341581 -0.3127779,-1.553629 -0.6343024,-3.018977 -0.9622151,-4.400765 0.031695,-1.260712 0.077172,-2.551666 0.1400431,-3.862813 0.093863,-0.03877 0.1869825,-0.07636 0.2785365,-0.112655 z m -2.4618653,0.06615 c 0.00912,0.03374 0.017792,0.06755 0.026872,0.101286 -0.00833,0.0043 -0.016457,0.0081 -0.024805,0.0124 -7.541e-4,-0.038 -0.00131,-0.07566 -0.00207,-0.113688 z m 1.2288656,0.467155 c -0.00243,0.06603 -0.00488,0.132193 -0.00723,0.198437 -0.015631,-0.05786 -0.030859,-0.115597 -0.046509,-0.173116 0.018065,-0.0085 0.035751,-0.01692 0.053743,-0.02532 z m -2.2489584,1.179773 5.168e-4,0.02532 c -0.00143,-0.0078 -0.0027,-0.01544 -0.00413,-0.02325 0.00126,-7.27e-4 0.00236,-0.0013 0.00362,-0.0021 z m -0.8154541,0.486792 c 0.3248179,2.220319 0.6528527,4.740437 0.9642823,7.293611 0.03161,1.757583 0.060303,3.431917 0.0863,4.995561 C 4.6719599,59.567409 4.1053534,55.303962 3.438033,50.730237 3.633948,50.604784 3.8271335,50.483495 4.0173258,50.366435 Z m 6.3489662,0.110071 c 0.275632,0.806873 0.542759,1.612799 0.798401,2.404504 -0.0064,0.490187 -0.01268,0.975825 -0.0186,1.456242 -0.22904,3.466266 -0.547401,6.71341 -0.877466,9.546187 C 10.094191,62.0659 9.913466,60.081343 9.7384237,57.99491 9.7378361,57.069423 9.743405,56.073855 9.7580607,55.018864 9.9318308,53.5339 10.133047,52.013699 10.366292,50.476506 Z m 4.515487,1.703772 c 0.0091,0.04516 0.01837,0.0903 0.02739,0.135392 0.03599,0.505744 0.05669,1.034189 0.0646,1.580782 -0.05467,0.347529 -0.107596,0.699693 -0.15968,1.056783 0.02902,-0.940866 0.05131,-1.864912 0.0677,-2.772957 z M 0.9399943,52.45623 c 2.3364191,8.992407 2.5313324,20.380469 2.5585002,21.952665 -0.009,-0.058 -1.9933209,-12.834112 -4.18837487,-20.700029 0.56026478,-0.446773 1.10337516,-0.863511 1.62987467,-1.252636 z m -2.3853841,1.865002 c 0.72470735,3.073907 0.89677181,4.402211 1.57561441,7.815544 -0.55666124,-2.93958 -1.18801861,-5.513901 -1.87998861,-7.563363 0.1019377,-0.08494 0.2034843,-0.169135 0.3043742,-0.252181 z m -1.0438639,0.877466 c 0.6910174,2.283897 1.2298275,4.725974 1.65364579,7.086906 -0.93846069,-2.595592 -2.01332269,-4.492092 -3.06131189,-5.849256 0.4793582,-0.432156 0.9487021,-0.844134 1.4076661,-1.23765 z m 10.3270182,1.511019 c 0.2619509,1.279545 0.4940068,2.480309 0.6971151,3.563607 C 8.3586119,62.623032 8.2223987,65.102102 8.1312866,67.71783 7.9865054,65.046789 7.8346478,61.191031 7.8377645,56.709717 Z m 8.1803795,1.968872 c 0.3421,2.281371 0.592791,4.33458 0.774629,6.03374 -0.136767,1.68198 -0.257084,3.44314 -0.359151,5.287533 -0.186358,-1.27576 -0.391527,-2.770102 -0.597379,-4.436939 0.05092,-2.083481 0.111506,-4.420064 0.181901,-6.884334 z m -4.972823,5.61206 c -0.02172,2.721391 -0.03514,5.011495 -0.04341,6.713802 -0.109275,-0.991806 -0.238378,-2.192198 -0.378788,-3.556888 0.150676,-1.07208 0.291359,-2.124073 0.422198,-3.156914 z m -5.8988651,3.269568 c 0.034608,2.260289 0.060007,4.070858 0.076481,5.276681 C 5.1401383,71.714255 5.0036163,69.89176 4.8229614,67.574687 Z" /></g><g
     id="layer6"
     style="display:inline"
     transform="translate(9.0207954,4.5525577)"><path
       style="fill:#67921f;stroke:#4f7118;stroke-width:0.198437;stroke-linecap:round;stroke-dasharray:none"
       d="M 3.1157607,74.614301 C 3.8749321,72.320187 16.350542,36.540669 -8.572133,29.651184 -7.1433527,29.285073 17.317404,33.482189 4.000836,74.68866 3.8988264,74.662929 3.115761,74.614289 3.115761,74.614289 Z"
       id="path52"
       clip-path="url(#clipPath121)" /><path
       style="fill:#67921f;stroke:#4f7118;stroke-width:0.198437;stroke-linecap:round;stroke-dasharray:none"
       d="m 5.3507168,70.680748 c 0.59884,-2.239282 10.4690742,-37.139752 -10.4458597,-44.884697 1.1873978,-0.308322 21.6755189,4.757875 11.1860067,44.991393 -0.08559,-0.0292 -0.74015,-0.106672 -0.74015,-0.106672 z"
       id="path70"
       clip-path="url(#clipPath120)" /><path
       style="fill:#67921f;stroke:#4f7118;stroke-width:0.198437;stroke-linecap:round;stroke-dasharray:none"
       d="M 20.332587,73.599449 C 19.336252,69.94387 3.1524497,12.953319 27.762591,1.0040057 26.276749,0.46730891 1.8700689,8.0781388 19.441832,73.750415 c 0.100975,-0.04494 0.890754,-0.150982 0.890754,-0.150982 z"
       id="path73"
       clip-path="url(#clipPath119)" /><g
       id="g50"
       transform="matrix(0.90992396,-0.38400936,0.37843417,0.9233292,46.008071,-71.207413)"
       style="stroke-width:0.199893;stroke-dasharray:none"
       clip-path="url(#clipPath118)"><path
         style="fill:#67921f;stroke:#4f7118;stroke-width:0.199893;stroke-linecap:round;stroke-dasharray:none"
         d="m -75.443316,73.477635 c 4.77185,2.608612 -0.924488,27.253855 -0.924488,27.253855 l -0.668057,-0.0954 c 0,0 5.561032,-23.934439 0.811722,-27.280398 0.763496,0.05752 0.01175,-0.02304 0.780823,0.121943 z"
         id="path49" /><path
         style="fill:#74a423;fill-opacity:1;stroke:#4f7118;stroke-width:0.199893;stroke-linecap:round;stroke-dasharray:none"
         d="m -95.518832,84.920758 c 13.933805,-13.520244 20.200836,-11.357004 20.200836,-11.357004 0,0 -6.426093,-4.262855 -20.200836,11.357004 z"
         id="path50" /></g><path
       style="fill:#67921f;stroke:#4f7118;stroke-width:0.198437;stroke-linecap:round;stroke-dasharray:none"
       d="M 8.7306262,74.300327 C 9.2519006,71.070641 18.023883,20.638499 -7.8986407,13.561237 -6.4941056,12.919789 18.673111,16.33709 9.632957,74.317332 9.5271195,74.291761 8.7306252,74.300309 8.7306252,74.300309 Z"
       id="path69"
       clip-path="url(#clipPath117)" /><path
       style="fill:#67921f;stroke:#4f7118;stroke-width:0.198437;stroke-linecap:round;stroke-dasharray:none"
       d="M 17.757778,74.461278 C 17.611424,72.365609 14.95135,39.521176 30.673714,40.073544 29.873456,39.410021 14.78312,36.738649 17.222051,74.300271 c 0.06402,0.0043 0.535727,0.161003 0.535727,0.161003 z"
       id="path55"
       clip-path="url(#clipPath116)" /><use
       id="use87"
       xlink:href="#g80"
       transform="rotate(-46.676107,-30.269884,50.821676)"
       style="display:inline"
       clip-path="url(#clipPath115)" /><path
       style="fill:#67921f;stroke:#4f7118;stroke-width:0.198437;stroke-linecap:round;stroke-dasharray:none"
       d="M 13.005091,74.220296 C 12.234717,71.926182 -0.42498833,36.146664 24.865456,29.257179 23.415592,28.891068 -1.4061183,33.088184 12.106955,74.294655 c 0.103515,-0.02573 0.898135,-0.07437 0.898135,-0.07437 z"
       id="path54"
       clip-path="url(#clipPath114)" /><path
       style="fill:#67921f;stroke:#4f7118;stroke-width:0.198438;stroke-linecap:round;stroke-dasharray:none"
       d="m 12.233751,74.578329 c 0.481096,-3.659154 9.27581,-60.915021 -20.931599,-66.5908325 0.9764003,-0.6395278 29.963309,0.9592877 21.541851,66.6707745 -0.07064,-0.03634 -0.610252,-0.07996 -0.610252,-0.07996 z"
       id="path43"
       clip-path="url(#clipPath113)" /><path
       style="fill:#67921f;stroke:#4f7118;stroke-width:0.198252;stroke-linecap:round;stroke-dasharray:none"
       d="M 8.9076061,74.605629 C 8.1982561,70.517609 -3.5094793,6.7297625 21.954546,-4.2554098 20.514886,-4.9698917 -4.4092693,1.2818222 8.0078161,74.694941 c 0.10416,-0.0406 0.89979,-0.08933 0.89979,-0.08933 z"
       id="path44"
       clip-path="url(#clipPath112)"
       transform="matrix(1,0,0,1.001871,0,-0.13951044)" /><path
       style="fill:#74a423;fill-opacity:1;stroke:#4f7118;stroke-width:0.198437;stroke-linecap:round;stroke-dasharray:none;stroke-opacity:1"
       d="M 24.873522,6.3114867 C 21.67213,10.609001 18.261949,74.630161 18.261949,74.630161 l 0.918047,-0.04687 c 0,0 3.954809,-62.212778 5.693526,-68.2718043 z"
       id="path47"
       clip-path="url(#clipPath111)" /><use
       id="use88"
       xlink:href="#g80"
       transform="rotate(-8.7755047,-58.249633,192.04049)"
       style="display:inline"
       clip-path="url(#clipPath110)" /><path
       style="fill:#67921f;stroke:#4f7118;stroke-width:0.198437;stroke-linecap:round;stroke-dasharray:none"
       d="M 15.476282,74.465695 C 15.772349,71.015557 20.918894,17.136157 -0.839524,9.7857054 0.296392,9.0903855 21.275932,12.541496 16.224043,74.476843 c -0.0887,-0.02646 -0.747762,-0.01116 -0.747762,-0.01116 z"
       id="path48"
       clip-path="url(#clipPath109)" /><use
       id="use84"
       xlink:href="#g80"
       transform="rotate(94.49979,28.699103,52.918386)"
       style="display:inline"
       clip-path="url(#clipPath108)" /><path
       style="fill:#74a423;fill-opacity:1;stroke:#4f7118;stroke-width:0.198437;stroke-linecap:round;stroke-dasharray:none;stroke-opacity:1"
       d="m -3.0998377,46.489628 c 3.20139202,1.773238 6.611573,28.189609 6.611573,28.189609 l -0.918047,-0.01934 c 0,0 -3.954809,-25.670197 -5.693526,-28.170269 z"
       id="path51"
       clip-path="url(#clipPath107)" /><path
       style="fill:#67921f;stroke:#4f7118;stroke-width:0.198437;stroke-linecap:round;stroke-dasharray:none"
       d="M 14.722877,74.536357 C 14.435738,72.166816 9.444395,35.162665 30.546654,30.114405 29.444993,29.636862 9.0981247,32.007071 13.997666,74.544013 c 0.08602,-0.01817 0.725212,-0.0077 0.725212,-0.0077 z"
       id="path53"
       clip-path="url(#clipPath106)" /><path
       style="fill:#74a423;fill-opacity:1;stroke:#4f7118;stroke-width:0.198437;stroke-linecap:round;stroke-dasharray:none;stroke-opacity:1"
       d="M 25.939806,32.968821 C 22.738414,35.592093 19.328233,74.67164 19.328233,74.67164 l 0.918047,-0.02862 c 0,0 3.954809,-37.97568 5.693526,-41.674208 z"
       id="path67"
       clip-path="url(#clipPath105)" /><path
       style="fill:#74a423;fill-opacity:1;stroke:#4f7118;stroke-width:0.198436;stroke-linecap:round;stroke-dasharray:none;stroke-opacity:1"
       d="m 7.3905482,33.286231 c 3.2013918,2.609806 6.6115728,41.488731 6.6115728,41.488731 l -0.918047,-0.02846 c 0,0 -3.9548088,-37.780726 -5.6935258,-41.460267 z"
       id="path68"
       clip-path="url(#clipPath104)" /><g
       id="g46"
       transform="matrix(-0.9233292,-0.38400936,-0.38400936,0.9233292,-25.890684,-47.885485)"
       style="stroke-width:0.198437;stroke-dasharray:none"
       clip-path="url(#clipPath103)"><path
         style="fill:#67921f;stroke:#4f7118;stroke-width:0.198437;stroke-linecap:round;stroke-dasharray:none"
         d="m -75.443316,73.477635 c 4.77185,2.608612 -0.924488,27.253855 -0.924488,27.253855 l -0.668057,-0.0954 c 0,0 5.561032,-23.934439 0.811722,-27.280398 0.763496,0.05752 0.01175,-0.02304 0.780823,0.121943 z"
         id="path45" /><path
         style="fill:#74a423;fill-opacity:1;stroke:#4f7118;stroke-width:0.198437;stroke-linecap:round;stroke-dasharray:none"
         d="m -95.518832,84.920758 c 13.933805,-13.520244 20.200836,-11.357004 20.200836,-11.357004 0,0 -6.426093,-4.262855 -20.200836,11.357004 z"
         id="path46" /></g><path
       style="fill:#67921f;stroke:#4f7118;stroke-width:0.198437;stroke-linecap:round;stroke-dasharray:none"
       d="M 4.8106748,74.798981 C 5.0437914,73.491343 9.0878112,53.079054 -7.6912219,49.926257 c 0.877423,-0.245897 17.0607431,1.410766 13.0788606,24.889218 -0.068403,-0.01152 -0.5769651,-0.0165 -0.5769651,-0.0165 z"
       id="path74"
       clip-path="url(#clipPath102)" /><g
       id="g77"
       transform="matrix(0.95447822,-0.15599268,0.29828063,0.49916623,47.59563,12.333007)"
       style="stroke-width:0.274399;stroke-dasharray:none"
       clip-path="url(#clipPath101)"><path
         style="fill:#67921f;stroke:#4f7118;stroke-width:0.274399;stroke-linecap:round;stroke-dasharray:none"
         d="m -76.367804,100.73149 -0.668057,-0.0954 c 0,0 5.561032,-23.934439 0.811722,-27.280398 5.657033,0.426188 0.652099,23.813323 -0.143665,27.375798 z"
         id="path76" /></g><g
       id="g72"
       transform="rotate(-8.6428145,-250.91015,-506.96796)"
       style="stroke-width:0.198437;stroke-dasharray:none"
       clip-path="url(#clipPath100)"><path
         style="fill:#67921f;stroke:#4f7118;stroke-width:0.198437;stroke-linecap:round;stroke-dasharray:none"
         d="m -75.443316,73.477635 c 4.77185,2.608612 -0.924488,27.253855 -0.924488,27.253855 l -0.668057,-0.0954 c 0,0 5.561032,-23.934439 0.811722,-27.280398 0.763496,0.05752 0.01175,-0.02304 0.780823,0.121943 z"
         id="path71" /><path
         style="fill:#74a423;fill-opacity:1;stroke:#4f7118;stroke-width:0.198437;stroke-linecap:round;stroke-dasharray:none"
         d="m -95.518832,84.920758 c 13.933805,-13.520244 20.200836,-11.357004 20.200836,-11.357004 0,0 -6.426093,-4.262855 -20.200836,11.357004 z"
         id="path72" /></g><g
       id="g78"
       transform="matrix(-1.2395586,-0.05464082,-0.30481407,0.6773393,-52.291172,2.2448234)"
       style="stroke-width:0.214447;stroke-dasharray:none"
       clip-path="url(#clipPath99)"><path
         style="fill:#67921f;stroke:#4f7118;stroke-width:0.214447;stroke-linecap:round;stroke-dasharray:none"
         d="m -76.367804,100.73149 -0.668057,-0.0954 c 0,0 5.561032,-23.934439 0.811722,-27.280398 5.657033,0.426188 0.652099,23.813323 -0.143665,27.375798 z"
         id="path77" /><path
         style="fill:#67921f;stroke:#4f7118;stroke-width:0.214447;stroke-linecap:round;stroke-dasharray:none"
         d="m -75.537331,100.64658 0.689297,0.009 c 0,0 6.916192,-26.805515 13.181635,-29.62507 -5.641599,-0.488957 -12.810867,25.63159 -13.870932,29.61605 z"
         id="path88" /></g><g
       id="g79"
       transform="matrix(1.2395586,-0.05940115,0.30481407,0.73634932,68.352695,-4.0559735)"
       style="stroke-width:0.205675;stroke-dasharray:none"
       clip-path="url(#clipPath98)"><path
         style="fill:#67921f;stroke:#4f7118;stroke-width:0.205675;stroke-linecap:round;stroke-dasharray:none"
         d="m -76.367804,100.73149 -0.668057,-0.0954 c 0,0 5.561032,-23.934439 0.811722,-27.280398 5.657033,0.426188 0.652099,23.813323 -0.143665,27.375798 z"
         id="path78" /></g><use
       id="use80"
       xlink:href="#g80"
       transform="rotate(-52.79874,-3.4786666,66.939054)"
       clip-path="url(#clipPath97)" /><use
       id="use81"
       xlink:href="#g80"
       transform="rotate(-132.02537,11.231198,48.888404)"
       clip-path="url(#clipPath96)" /><use
       id="use82"
       xlink:href="#g80"
       transform="rotate(63.734522,47.983985,45.288804)"
       clip-path="url(#clipPath95)" /><use
       id="use83"
       xlink:href="#g80"
       transform="rotate(-24.949309,-75.453187,76.728407)"
       clip-path="url(#clipPath94)" /><use
       id="use85"
       xlink:href="#g80"
       transform="rotate(-42.519849,-39.815977,42.916269)"
       clip-path="url(#clipPath93)" /><use
       id="use86"
       xlink:href="#g80"
       transform="rotate(-5.4309474,-277.54195,263.81108)"
       clip-path="url(#clipPath92)" /><g
       id="g90"
       transform="matrix(-1.2395586,-0.05464082,-0.30481407,0.6773393,-52.291172,2.2448234)"
       style="stroke-width:0.214447;stroke-dasharray:none"
       clip-path="url(#clipPath91)"><path
         style="fill:#67921f;stroke:#4f7118;stroke-width:0.214447;stroke-linecap:round;stroke-dasharray:none"
         d="m -76.367804,100.73149 -0.668057,-0.0954 c 0,0 5.561032,-23.934439 0.811722,-27.280398 5.657033,0.426188 0.652099,23.813323 -0.143665,27.375798 z"
         id="path89" /><path
         style="fill:#67921f;stroke:#4f7118;stroke-width:0.214447;stroke-linecap:round;stroke-dasharray:none"
         d="m -75.537331,100.64658 0.689297,0.009 c 0,0 6.916192,-26.805515 13.181635,-29.62507 -5.641599,-0.488957 -12.810867,25.63159 -13.870932,29.61605 z"
         id="path90" /><path
         style="fill:#67921f;stroke:#4f7118;stroke-width:0.214447;stroke-linecap:round;stroke-dasharray:none"
         d="m -80.076147,100.50216 -0.67218,-0.0787 c 0,0 3.140151,-14.089662 -1.903325,-16.239364 5.654038,0.438368 3.011193,14.21982 2.575504,16.318004 z"
         id="path91" /></g></g><metadata
     id="metadata1"><rdf:RDF><cc:Work
         rdf:about=""><dc:creator><cc:Agent><dc:title>Erica Schroeder</dc:title></cc:Agent></dc:creator><dc:rights><cc:Agent><dc:title>© 2026 Erica Schroeder. All rights reserved.</dc:title></cc:Agent></dc:rights><dc:date>1/16/2026</dc:date></cc:Work></rdf:RDF></metadata></svg>
