<?xml version="1.0" encoding="UTF-8" standalone="no"?>
<!-- Created with Inkscape (http://www.inkscape.org/) -->

<svg
   width="83mm"
   height="100mm"
   viewBox="0 0 83 100"
   version="1.1"
   id="svg1"
   xmlns="http://www.w3.org/2000/svg"
   xmlns:svg="http://www.w3.org/2000/svg">
  <defs
     id="defs1" />
  <g
     id="layer1">
    <path
       style="fill:#008067;fill-opacity:1;stroke:#005d4c;stroke-width:0.544846;stroke-linecap:round;stroke-linejoin:round;stroke-miterlimit:5;stroke-opacity:1"
       d="m 27.856371,98.063421 c 0.155501,-0.32841 0.673843,-0.738923 0.466507,-0.985233 -0.207338,-0.246305 -0.370256,1.366387 -0.466507,0.985233 -0.174323,-0.690297 0.155501,-1.473299 0.155501,-2.21677 0,-1.038526 -0.386642,-1.986391 -0.622011,-2.955698 -0.609809,-2.511358 -1.661531,-4.47268 -2.64354,-6.650312 -1.143879,-2.536584 -2.276111,-5.035138 -3.576556,-7.389238 -0.635467,-1.150339 -1.28953,-1.961876 -2.021532,-2.955697 -2.532571,-3.438395 -5.071309,-6.58103 -8.241631,-8.374472 -2.0781913,-1.175621 -4.622304,-2.114826 -6.842108,-1.724156 -0.8822884,0.155281 -1.684456,0.968714 -2.4880395,1.477851 -0.1735237,0.109939 -0.2796157,0.492616 -0.4665075,0.492616 -0.2518342,0 -0.51216952,-0.942231 -0.46650739,-1.231541 0.10242651,-0.648924 0.42437319,-0.9561 0.62201069,-1.477847 0.084329,-0.222633 0.050571,-0.539468 0.155502,-0.738926 0.1659169,-0.315364 0.4252324,-0.471761 0.6220099,-0.738919 0.7036515,-0.95533 1.2065382,-1.553357 2.1770344,-1.724158 2.1959469,-0.386474 3.2400247,0.04412 5.2870833,0.738925 2.1426761,0.727261 4.2044011,1.219433 6.2200991,2.709385 1.394786,1.030995 2.615089,2.597242 3.88756,3.940929 2.962162,3.127944 0.576382,0.234717 4.043066,4.67985 1.368786,1.75512 2.704109,3.693004 4.198566,5.172465 0.571615,0.565884 1.50742,1.251644 1.399522,0.738925 C 29.150936,79.337899 28.809789,79.050899 28.633882,78.605094 27.390176,75.453143 25.836421,72.758101 24.279815,69.984318 21.853245,65.660308 19.324458,61.625224 16.660194,57.66892 15.479142,55.915115 15.432269,55.526711 14.172153,53.974301 12.738406,52.20798 12.570697,52.281476 11.062105,50.772297 10.588063,50.298071 10.164063,49.691607 9.6625825,49.294449 8.401998,48.296099 4.4821248,45.952112 2.9759769,46.092446 2.462754,46.14027 1.4642056,46.50094 0.95444493,47.077677 0.77549305,47.28014 0.67651166,47.637387 0.48793752,47.8166 0.35223773,47.945575 -0.03500901,47.927879 0.0214301,47.570293 c 0.64875242,-4.11036 7.1307278,-2.635791 8.5526355,-2.216772 8.2256864,2.424012 14.4246904,13.232418 18.5047914,24.138178 0.888476,2.374817 1.708508,4.919768 2.488041,7.389238 0.249082,0.789074 0.502616,2.766586 0.933014,3.448313 0.183261,0.290276 0,-0.821025 0,-1.231542 0,-1.919701 0.03665,-0.672969 -0.155503,-2.955693 -0.470758,-5.592452 0.31822,2.86961 -0.622009,-5.172464 -0.636387,-5.443221 0.137798,-1.4934 -0.933016,-6.157703 -0.729158,-3.176111 -1.453463,-6.389525 -2.488037,-9.3597 -0.361131,-1.036774 -0.835651,-1.96388 -1.244022,-2.955694 -0.369186,-0.896652 -0.725678,-1.80626 -1.088514,-2.709388 -0.46651,-1.067334 -0.944909,-2.12187 -1.399524,-3.202004 C 22.194402,45.694364 21.905421,44.708451 21.480769,43.875676 19.894431,40.764741 18.06667,38.084256 16.038183,35.747513 13.957342,33.350462 11.81245,31.169301 9.5070799,29.343505 8.5323776,28.571566 7.5272357,27.898674 6.5525335,27.126735 6.4488647,27.04463 6.1256238,26.880427 6.2415284,26.880427 c 0.5105074,0 0.9230423,0.694953 1.399522,0.985231 1.7096099,1.041514 0.4614677,0.0715 1.8660295,0.738924 1.5935851,0.757248 3.2547981,2.354338 4.6650731,3.69462 0.617484,0.586836 1.280058,1.061191 1.86603,1.724157 4.364015,4.93741 8.438167,11.372298 11.196177,18.719401 0.889144,2.3686 1.344163,5.291808 1.866028,7.881854 0.513341,2.547722 1.06987,5.074005 1.555027,7.635547 0.229581,1.212155 0.434188,3.489851 0.622009,4.679851 0.02514,0.159303 0,-0.32841 0,-0.492616 0,-0.985231 0.04431,-1.97297 0,-2.955697 -0.05955,-1.320501 -0.264643,-2.619097 -0.311004,-3.940926 -0.06039,-1.721503 0.03886,-3.449411 0,-5.172465 -0.159454,-7.071872 -1.2996,-12.216714 -2.332538,-18.965711 -0.189609,-1.501662 -0.695773,-5.598061 -0.933016,-7.142933 -0.291203,-1.896266 -0.611552,-3.781119 -0.933013,-5.665082 -0.196913,-1.154027 -0.523554,-2.263094 -0.62201,-3.448311 -0.162429,-1.955319 -0.198413,-3.940389 -0.155501,-5.91139 0.01624,-0.745727 0.529762,-1.415208 0.466506,-2.216772 -0.02875,-0.364338 -0.176268,-0.68645 -0.311005,-0.985231 -0.170432,-0.377932 -0.359749,-0.777528 -0.622011,-0.985233 -0.005,-0.004 -1.244017,0.43996 -1.244017,0.492617 0,0.183585 0.218278,0.136155 0.311004,0.246307 0.299024,0.355231 0.645867,0.606211 0.933013,0.985232 1.873894,2.473462 3.884438,7.588695 4.820577,11.083857 0.473896,1.769335 0.824538,3.615303 1.244021,5.418776 0.350083,1.505115 1.599361,6.649809 1.866029,8.128163 0.628657,3.485163 1.064385,7.050906 1.555023,10.591241 0.593437,4.282099 1.106889,8.894108 0.933017,13.300626 -0.04894,1.240021 -0.182051,2.469085 -0.311005,3.69462 -0.07027,0.667823 -0.218283,1.309551 -0.311005,1.970467 -0.01125,0.08016 -0.05183,0.246305 0,0.246305 0.275277,0 0.443181,-1.804215 0.466506,-1.970463 0.325559,-2.320509 0.01628,-0.114876 0.155504,-3.202004 0.0666,-1.476757 0.244005,-2.947835 0.311004,-4.433544 0.546327,-12.11496 -0.07037,0.951097 0.155501,-7.635544 0.02858,-1.896766 0.259025,-3.771383 0.311005,-5.665082 0.02702,-0.984305 -0.02702,-1.971396 0,-2.955698 0.02488,-0.905996 0.155503,-1.802532 0.155503,-2.709387 0,-1.480124 -0.12215,-2.954358 -0.155503,-4.43354 -0.09097,-4.034635 0.03985,-0.895972 0.155503,-4.92616 0.07759,-2.70362 -0.08127,-5.424842 0,-8.128163 0.08776,-2.919304 0.462748,-5.753998 0.777513,-8.620777 0.267966,-2.440559 0.450121,-4.969245 0.777512,-7.3892389 0.495182,-3.6602756 0.247482,1.2629179 0.466507,-3.9409271 0.0041,-0.097713 0.1459,-3.956137 0.466507,-3.4483099 0.12832,0.2032488 -0.155501,3.8410142 -0.155501,4.6798506 0,0.9886462 0.130556,1.9678384 0.155501,2.9556956 0.02694,1.0664807 -0.01161,2.1348257 0,3.2020007 0.04021,3.694983 0.155503,7.388327 0.155503,11.083859 0,2.899715 -0.597228,14.918795 -0.62201,15.517401 -0.208915,5.046403 -0.257163,9.576246 -0.311004,14.778476 -0.04602,4.446237 0.155501,8.856658 0.155501,13.300628 0,0.903129 0,1.806258 0,2.709389 0,0.661932 -0.07631,2.521222 0.155503,1.970463 0.118549,-0.281666 0.110721,-0.65423 0.155502,-0.98523 0.110754,-0.818702 0.224103,-1.637189 0.311005,-2.463084 0.412589,-3.921101 0.547831,-7.900632 0.933016,-11.822779 0.218774,-2.227671 0.553888,-4.423852 0.777512,-6.650317 0.1394,-1.387913 0.156813,-2.803248 0.311004,-4.187234 0.434155,-3.896846 1.183469,-7.715366 1.710527,-11.576473 1.863486,-13.651454 -0.342273,1.648226 0.933015,-9.606009 0.206597,-1.823185 0.554304,-3.600508 0.777513,-5.418774 0.843356,-6.869998 -0.138146,-1.046453 0.622009,-4.926158 1.085784,-5.541657 0.814958,-6.7713541 3.732059,-11.0838578 0.542554,-0.8020858 1.365626,-0.9278306 2.021532,-1.4778471 0.369336,-0.3097108 0.793018,-1.45328834 1.088519,-0.98523135 0.262421,0.41566015 -0.244731,1.73951405 -0.311006,1.97046145 -0.899357,3.1339794 -1.278749,4.1841865 -2.02153,7.8818548 -0.967219,4.814928 -1.863092,9.582736 -2.488042,14.532168 -1.065614,8.439384 -2.492221,16.741212 -2.643541,25.369716 -0.05183,2.955698 -0.10639,5.911276 -0.155501,8.867089 -0.02728,1.641484 0,3.284103 0,4.926155 0,0.574721 0,1.149439 0,1.724158 0,0.164206 -0.0733,0.608727 0,0.492615 0.56179,-0.889847 0.733879,-6.35733 0.933013,-7.881852 0.346403,-2.651979 0.794159,-5.269135 1.244021,-7.881855 0.157163,-0.912793 1.32232,-7.145261 1.555022,-8.128163 0.750414,-3.169639 1.685094,-6.222523 2.488041,-9.3597 0.842162,-3.290396 2.431979,-9.767596 3.11005,-12.06909 1.962629,-6.661512 4.186728,-11.5314667 8.397131,-15.0247832 1.54008,-1.2777861 3.118984,-2.4351706 4.665073,-3.6946205 0.0074,-0.00602 1.399522,-1.1289295 1.399522,-1.4778457 0,-0.013265 -0.59188,0.513244 -1.088514,0.9852314 -1.133398,1.077144 -2.038751,2.3349323 -2.954549,3.9409256 -4.477779,7.8524924 -7.465335,17.7385974 -10.107659,27.3401824 -0.426991,1.551587 -0.789018,3.148364 -1.244021,4.679849 -1.819852,6.125432 -0.788506,1.174991 -2.021532,7.389238 -0.861516,4.341907 -1.378953,8.643816 -2.02153,13.054321 -0.04807,0.329849 -0.08792,0.664086 -0.155503,0.985234 -0.03666,0.174166 -0.25917,0.410513 -0.155503,0.492615 0.02886,0.02284 0.14162,-0.534405 0.466507,-1.477849 1.528288,-4.438007 -0.508674,1.883829 1.555025,-4.926157 1.922225,-6.343136 3.835999,-12.117192 6.531103,-17.734172 0.47046,-0.980507 0.876511,-2.044431 1.399524,-2.955696 0.51834,-0.903128 1.133372,-1.65438 1.710527,-2.463079 2.770935,-3.882596 4.29052,-6.312825 8.241628,-5.418775 0.761252,0.172255 1.24549,0.411872 1.866029,0.985233 1.536619,1.419789 2.660192,2.999646 3.576559,5.418773 1.005352,2.654047 0.382105,0.696799 0.777511,3.202005 0.02812,0.178105 0.192154,0.666781 0.155503,0.492617 -0.384529,-1.827219 -1.365689,-4.540588 -2.177034,-5.911392 -5.478403,-9.256009 -8.618278,2.425957 -11.818187,8.620779 -1.50697,2.917392 -1.284304,1.912002 -2.643541,4.926156 -1.470434,3.260728 -2.882195,6.67316 -4.198568,10.098626 -1.853048,4.82201 -3.16565,8.108858 -2.954547,13.793244 0.03439,0.925769 0.148136,3.190332 0.622009,3.94093 0.103671,0.164202 0.207339,-0.328413 0.311007,-0.492616 0.132151,-0.209324 0.357879,-0.251731 0.466508,-0.492619 0.162244,-0.359781 0.186171,-0.836079 0.311004,-1.231538 0.394076,-1.248395 0.797243,-2.491578 1.244019,-3.694619 1.678384,-4.519406 3.893673,-8.026179 6.2201,-11.822782 0.281958,-0.460143 0.56897,-0.951017 0.933015,-1.23154 8.871958,-6.836462 6.913198,-3.310577 21.303835,3.202003 0.205496,0.09301 0.01841,0.788473 -0.155503,0.985234 -0.552608,0.625216 -1.098797,0.23545 -1.555024,-0.246309 -0.276157,-0.291613 -0.484658,-0.73784 -0.777513,-0.985232 -0.957461,-0.808839 -4.060938,-2.80153 -5.13158,-2.955696 -3.089702,-0.444903 -7.552255,1.26604 -10.10766,3.694617 -0.545083,0.518034 -2.863315,3.889416 -3.421055,4.679854 -5.942396,8.421667 2.898285,-4.210045 -2.643541,3.940926 -0.689028,1.013427 -1.5149,1.906908 -2.177034,2.955697 -0.115905,0.183584 0.328219,-0.106917 0.466506,-0.24631 1.080669,-1.089279 1.658958,-2.023334 2.954547,-2.463078 3.044036,-1.033198 5.957258,-0.0071 8.86364,1.477847 2.857417,1.460001 5.603167,3.88033 7.930626,6.896623 0.510612,0.66173 0.9191,1.500568 1.399523,2.216772 1.076115,1.604244 2.275568,3.063216 3.576555,4.187235 0.187622,0.162098 0.717587,0.549086 0.62201,0.246305 -0.62114,-1.967709 -4.48288,-3.326609 -5.598088,-3.694618 -7.773701,-2.565237 -8.250459,-0.70754 -16.638763,8.374468 -0.724437,0.784353 -4.643866,8.93426 -4.820577,9.359706 -0.509624,1.226974 -0.748879,2.699157 -1.244019,3.940924 -0.138395,0.347085 -0.41963,0.48248 -0.62201,0.738925 -0.114483,0.145068 -0.179873,0.388764 -0.311005,0.492617 -0.04636,0.03672 -0.11885,-0.05806 -0.155503,0 -0.0733,0.116106 0.0733,0.376504 0,0.492615 -0.121559,0.192546 -0.270519,-0.214247 -0.311004,-0.24631 -0.413927,-0.327817 -2.001332,-0.931654 -2.488038,-0.738922 -0.07112,0.02817 -0.08438,0.218149 -0.155505,0.246308 -0.150857,0.05975 -0.314024,-0.0483 -0.466505,0 -0.113655,0.036 -0.19956,0.195873 -0.311005,0.246309 -0.918819,0.415817 -2.018659,0.491853 -2.954549,0.738925 -1.357594,0.35839 -2.829972,-0.240867 -4.198565,0 -1.010649,0.177867 -0.241904,0.450039 -1.399523,0.246305 -1.029637,-0.181207 -2.074422,-0.556658 -3.110048,-0.738925 -1.677878,-0.295295 -3.316636,0.755464 -4.97608,0.49262 -2.328503,-0.368824 0.0075,-0.04688 -1.399521,-0.49262 -0.418834,-0.132681 -1.03882,0.354649 -1.24402,0.24631 -0.06954,-0.03672 -0.08994,-0.194382 -0.155501,-0.24631 -0.69305,-0.548876 -1.200423,-0.492614 -2.021532,-0.492614 z"
       id="path1" />
  </g>
</svg>
