<?xml version="1.0" encoding="UTF-8" standalone="no"?>
<!-- Created with Inkscape (http://www.inkscape.org/) -->

<svg
   width="37.774155mm"
   height="41.552475mm"
   viewBox="0 0 37.774155 41.552475"
   version="1.1"
   id="svg1"
   xml:space="preserve"
   xmlns="http://www.w3.org/2000/svg"
   xmlns:svg="http://www.w3.org/2000/svg"><defs
     id="defs1" /><g
     id="layer1"
     transform="translate(-121.96913,-50.572279)"><rect
       style="fill:#000000;stroke-width:0.243264"
       id="rect1-7"
       width="33.386589"
       height="41.552471"
       x="126.3567"
       y="50.572281"
       ry="5.6946883"
       rx="9.1794615" /><ellipse
       style="fill:none;stroke:#000000;stroke-width:1.18;stroke-dasharray:none;stroke-opacity:1"
       id="path3-361"
       cx="127.74142"
       cy="58.568089"
       rx="5.1822872"
       ry="3.5190599" /><ellipse
       style="fill:none;stroke:#000000;stroke-width:1.18;stroke-dasharray:none;stroke-opacity:1"
       id="path3-3-29"
       cx="127.74142"
       cy="62.828232"
       rx="5.1822872"
       ry="3.5190599" /><ellipse
       style="fill:none;stroke:#000000;stroke-width:1.18;stroke-dasharray:none;stroke-opacity:1"
       id="path3-6-3"
       cx="127.74142"
       cy="67.088371"
       rx="5.1822872"
       ry="3.5190599" /><ellipse
       style="fill:none;stroke:#000000;stroke-width:1.18;stroke-dasharray:none;stroke-opacity:1"
       id="path3-2-1"
       cx="127.74142"
       cy="71.348518"
       rx="5.1822872"
       ry="3.5190599" /><ellipse
       style="fill:none;stroke:#000000;stroke-width:1.18;stroke-dasharray:none;stroke-opacity:1"
       id="path3-5-9"
       cx="127.74142"
       cy="75.608658"
       rx="5.1822872"
       ry="3.5190599" /><ellipse
       style="fill:none;stroke:#000000;stroke-width:1.18;stroke-dasharray:none;stroke-opacity:1"
       id="path3-29-7"
       cx="127.74142"
       cy="79.868805"
       rx="5.1822872"
       ry="3.5190599" /><path
       id="path4-5"
       style="fill:none;stroke:#fecd01;stroke-width:1.428;stroke-linejoin:round"
       d="m 138.63179,79.343364 c -1.49311,-0.82513 3.7426,-4.67855 2.47054,-5.81524 -1.27206,-1.136699 -4.51461,4.49777 -5.50184,3.10652 -0.98722,-1.39126 5.40192,-2.59138 4.74902,-4.167431 -0.65289,-1.576054 -6.01903,2.093541 -6.30485,0.41172 -0.28581,-1.681822 5.99131,0.0091 6.0869,-1.6942 0.0956,-1.703255 -6.33131,-0.725344 -5.85911,-2.364625 0.4722,-1.63928 5.39405,2.607691 6.21919,1.114585 0.82514,-1.493105 -5.3896,-3.400567 -4.2529,-4.672627 1.13669,-1.27206 3.72844,4.68984 5.11969,3.702612 1.39126,-0.987227 -3.38041,-5.402265 -1.80435,-6.055158 1.57605,-0.652892 1.32436,5.843111 3.00618,5.557293 1.68182,-0.285818 -0.70169,-6.33398 1.00156,-6.238391 1.70326,0.09559 -1.34202,5.839081 0.29727,6.311283 1.63928,0.472202 2.116,-6.011172 3.60911,-5.186034 1.4931,0.825137 -3.7426,4.678549 -2.47054,5.815245 1.27206,1.136697 4.51461,-4.497776 5.50183,-3.106519 0.98723,1.391257 -5.40191,2.591374 -4.74902,4.167429 0.6529,1.576054 6.01904,-2.093542 6.30485,-0.411721 0.28582,1.681821 -5.99131,-0.0091 -6.0869,1.6942 -0.0956,1.703255 6.33132,0.725344 5.85912,2.364629 -0.47221,1.63928 -5.39406,-2.607695 -6.2192,-1.114589 -0.82513,1.493109 5.38961,3.400569 4.25291,4.672629 -1.1367,1.27206 -3.72844,-4.689843 -5.1197,-3.70261 -1.39125,0.98722 3.38042,5.40226 1.80436,6.05515 -1.57605,0.6529 -1.32436,-5.84311 -3.00618,-5.55729 -1.68183,0.28582 0.70169,6.33398 -1.00157,6.23839 -1.70325,-0.0956 1.34202,-5.83908 -0.29726,-6.31128 -1.63928,-0.4722 -2.11601,6.01117 -3.60911,5.18603 z" /><ellipse
       style="fill:none;stroke:#000000;stroke-width:1.18;stroke-dasharray:none;stroke-opacity:1"
       id="ellipse1"
       cx="127.74142"
       cy="-84.128944"
       rx="5.1822872"
       ry="3.5190599"
       transform="scale(1,-1)" /></g></svg>
